<svg viewBox="0 0 1472 336" xmlns="http://www.w3.org/2000/svg" xml:space="preserve" style="stroke-linejoin:round;stroke-miterlimit:2">
  <path d="m290.599 52.276-4.752 27.496c-2.376 12.56-10.522 18.33-21.725 18.33h-22.064c3.848-21.384 7.693-42.77 11.541-64.157h22.064c11.203 0 17.312 5.771 14.936 18.331M274.986 149.7c-2.152 11.88-4.301 23.76-6.451 35.642-2.037 12.558-10.184 18.328-21.384 18.328h-23.424l12.56-72.301h23.424c11.2 0 17.31 5.771 15.275 18.331m50.917-72.982c1.696-9.96 3.395-19.917 5.091-29.874 5.432-29.872-16.293-46.846-48.88-46.846h-62.12c-13.917 79.208-27.837 158.414-41.752 237.619h61.44c39.376 0 62.12-16.973 67.211-46.845 2.376-13.011 4.754-26.024 7.128-39.038 3.056-18.33-2.715-34.624-21.384-37.68 19.349-2.373 29.872-16.97 33.266-37.336M647.103 335.491h99.152l5.755-32.624h-62.048l11.514-64.611h51.179l5.755-32.624h-51.176l10.554-61.411h61.091l5.757-32.624h-98.194l-39.339 223.894ZM793.274 144.222h37.421l-33.587 191.27h37.107l33.581-191.27h37.422l5.76-32.624H799.031l-5.757 32.624ZM1029.32 111.597H917.376l-5.76 32.624h37.422l-33.582 191.27h37.099l33.587-191.27h37.421l5.757-32.624ZM1079.85 144.222h61.091l5.757-32.624h-98.192l-39.341 223.894h99.152l5.757-32.627h-62.051l11.518-64.608h51.173l5.757-32.624h-51.176l10.555-61.411ZM1241.7 164.691c-1.707 9.704-3.411 19.406-5.117 29.107-2.88 15.992-11.835 20.469-23.99 20.469h-19.509c4.051-23.349 8.104-46.696 12.152-70.045h19.512c12.155 0 19.832 4.477 16.952 20.469m-9.917-53.093h-57.891c-13.115 74.629-26.227 149.261-39.341 223.893h37.101c5.227-29.746 10.448-59.493 15.672-89.237h19.832c4.157 29.744 8.315 59.491 12.477 89.237h36.782c-5.014-31.45-10.024-62.904-15.035-94.357 16.952-6.717 27.507-20.149 31.347-42.219l7.034-39.981c6.078-33.904-17.272-47.336-47.978-47.336M1356.88 13.735l-9.4 51.942 81.939 58.656-102.088 57.762-9.851 55.523L1463 148.063l8.062-44.776-114.182-89.552ZM0 245.936l114.181 89.555 9.403-51.942-81.941-58.658 102.09-57.76 9.851-55.523L8.059 201.16 0 245.936ZM550.96 0H432.152l-6.11 34.624h39.715l-35.643 202.994h39.376l35.643-202.994h39.717L550.96 0ZM329.297 237.618h39.376L410.425-.001h-39.376l-41.752 237.619ZM611.919 160.854c-1.493 8.635-2.986 17.272-4.477 25.907-2.24 11.834-9.915 17.272-20.469 17.272h-20.792c3.626-20.15 7.25-40.299 10.874-60.451h20.792c10.555 0 16.31 5.437 14.072 17.272m-14.714 91.795c-2.024 11.197-4.051 22.392-6.075 33.584-1.92 11.837-9.597 17.274-20.152 17.274h-22.069l11.834-68.128h22.07c10.554 0 16.312 5.438 14.392 17.27m47.978-68.766 4.798-28.146c5.117-28.147-15.352-44.139-46.059-44.139h-58.531c-13.114 74.629-26.229 149.261-39.341 223.893h57.891c37.104 0 58.533-15.992 63.33-44.141 2.24-12.261 4.48-24.52 6.718-36.781 2.877-17.27-2.56-32.624-20.15-35.502 18.23-2.24 28.144-15.992 31.344-35.184" fill="currentColor"/>
</svg>
