<svg xmlns="http://www.w3.org/2000/svg" xml:space="preserve" width="148" height="64" fill-rule="evenodd" stroke-linejoin="round" stroke-miterlimit="2" clip-rule="evenodd" viewBox="0 0 2321 1005"><path fill="var(--svg-hover-color,#1b508b)" d="M11.342 865.542h23.637v100.992H11.342zm1.133-20.708c-2.904-2.712-4.35-6.083-4.35-10.117 0-4.037 1.446-7.408 4.35-10.12 2.896-2.709 6.492-4.067 10.78-4.067 4.283 0 7.878 1.296 10.778 3.875 2.9 2.587 4.35 5.837 4.35 9.742q.002 6.241-4.254 10.495-4.255 4.256-10.875 4.255c-4.287 0-7.883-1.35-10.779-4.063m143.35 30.729q11.538 11.163 11.538 33.1v57.871h-23.638v-54.846q-.002-13.236-6.242-19.954-6.245-6.712-17.779-6.712c-8.7 0-15.575 2.616-20.612 7.85q-7.568 7.85-7.567 22.595v51.067H67.883V865.542h22.505v13.05c3.908-4.662 8.829-8.195 14.754-10.591 5.925-2.392 12.604-3.592 20.046-3.592q19.1.001 30.637 11.154m69.6-15.316v6.05h27.796v18.912h-27.042v81.325h-23.641V885.21h-16.642v-18.912h16.642v-6.43q-.002-16.262 9.458-25.625 9.455-9.362 26.667-9.362 13.617 0 21.37 5.487l-6.62 17.775c-4.038-2.77-8.388-4.162-13.05-4.162-9.963 0-14.938 5.425-14.938 16.267Zm111.013 78.675c5.67-5.8 8.512-13.43 8.512-22.884 0-9.458-2.841-17.083-8.512-22.883q-8.513-8.7-21.563-8.7c-13.05 0-15.854 2.9-21.462 8.7-5.613 5.8-8.417 13.425-8.417 22.883q-.001 14.182 8.417 22.884 8.412 8.7 21.462 8.7c13.05 0 15.888-2.9 21.563-8.7m-49.171 22.316c-8.2-4.412-14.596-10.558-19.2-18.437s-6.9-16.8-6.9-26.763c0-9.958 2.296-18.846 6.9-26.666 4.604-7.817 11-13.93 19.2-18.346 8.192-4.413 17.4-6.617 27.608-6.617q15.505-.001 27.804 6.617c8.196 4.416 14.592 10.529 19.196 18.346q6.9 11.73 6.9 26.666 0 14.944-6.9 26.763-6.904 11.819-19.196 18.437-12.298 6.62-27.804 6.621c-10.208 0-19.416-2.208-27.608-6.62ZM451.8 864.409v22.504q-3.025-.567-5.483-.566-13.807 0-21.562 8.037c-5.167 5.358-7.75 13.083-7.75 23.167v48.983h-23.642V865.542h22.504v14.75q10.214-15.882 35.933-15.883m179.671 11.063q11.158 11.061 11.159 33.191v57.871h-23.642v-54.846c0-8.825-1.958-15.475-5.863-19.954q-5.863-6.712-16.833-6.712-11.913 0-19.1 7.85-7.187 7.848-7.187 22.408v51.254h-23.642v-54.846q0-13.237-5.863-19.954-5.86-6.712-16.829-6.712-12.103-.001-19.196 7.754-7.092 7.754-7.091 22.504v51.254h-23.642V865.542h22.504v12.859q5.677-6.807 14.184-10.4 8.513-3.59 18.912-3.592c7.567 0 14.275 1.417 20.142 4.254q8.8 4.257 13.9 12.575 6.242-7.944 16.079-12.387 9.831-4.44 21.75-4.442 19.098 0 30.258 11.063m94.467 71.108c4.6-2.708 7.846-6.588 9.738-11.63v-11.724H711.28c-13.621 0-20.425 4.475-20.425 13.425q-.001 6.43 5.104 10.212 5.106 3.786 14.187 3.784c5.921 0 11.188-1.355 15.792-4.067m21.558-71.488q11.82 10.688 11.821 32.246v59.196h-22.316v-12.292q-4.357 6.619-12.388 10.117c-5.362 2.33-11.82 3.5-19.387 3.5s-14.184-1.296-19.859-3.88q-8.511-3.872-13.141-10.778c-3.092-4.6-4.634-9.8-4.634-15.604 0-9.075 3.371-16.359 10.117-21.842q10.118-8.231 31.867-8.23h26.1v-1.512c0-7.058-2.113-12.483-6.334-16.262q-6.342-5.676-18.82-5.675-8.506 0-16.738 2.65c-5.483 1.762-10.117 4.225-13.9 7.375l-9.267-17.213q7.944-6.048 19.1-9.266 11.159-3.213 23.642-3.213 22.313.001 34.137 10.683m104.676 85.955q-4.161 3.407-10.117 5.108c-3.971 1.133-8.163 1.704-12.575 1.704q-16.645 0-25.721-8.7-9.08-8.701-9.08-25.346V885.21h-16.64v-18.912h16.64v-23.071h23.638v23.07h27.046v18.913h-27.046v48.038q.001 7.376 3.596 11.254 3.594 3.875 10.4 3.875 7.943.002 13.242-4.159l6.617 16.83Zm21.375-95.505h23.637v100.992h-23.637zm1.133-20.708q-4.35-4.067-4.35-10.117 0-6.054 4.35-10.12t10.779-4.067c4.288 0 7.88 1.296 10.78 3.875 2.9 2.587 4.35 5.837 4.35 9.742q.001 6.241-4.255 10.495-4.256 4.256-10.875 4.255c-4.287 0-7.88-1.35-10.78-4.063Zm122.362 94.088q8.508-8.702 8.509-22.884c0-9.458-2.838-17.083-8.509-22.883q-8.512-8.7-21.562-8.7-13.052 0-21.467 8.7c-5.612 5.8-8.416 13.425-8.416 22.883q-.001 14.182 8.416 22.884 8.415 8.7 21.467 8.7c13.052 0 15.887-2.9 21.562-8.7m-49.175 22.316q-12.294-6.618-19.195-18.437-6.906-11.82-6.905-26.763-.001-14.936 6.905-26.666 6.901-11.724 19.195-18.346 12.294-6.618 27.613-6.617 15.506-.001 27.8 6.617c8.196 4.416 14.592 10.529 19.196 18.346q6.905 11.73 6.904 26.666.001 14.944-6.904 26.763c-4.604 7.879-11 14.025-19.196 18.437q-12.294 6.62-27.8 6.621-15.32-.001-27.613-6.62Zm194.038-85.675c7.688 7.442 11.538 18.475 11.538 33.1v57.871H1129.8v-54.846q0-13.236-6.242-19.954c-4.158-4.475-10.087-6.712-17.775-6.712-8.7 0-15.575 2.616-20.616 7.85-5.046 5.233-7.563 12.766-7.563 22.595v51.067h-23.642V865.542h22.5v13.05c3.913-4.662 8.83-8.195 14.759-10.591 5.92-2.392 12.604-3.592 20.046-3.592q19.1.001 30.637 11.154Zm153.188 84.917q-3.789 3.405-9.359 5.204-5.589 1.795-11.633 1.796-14 .002-21.562-7.567-7.568-7.557-7.567-21.37V878.4h-17.775v-11.346h17.775v-21.75h13.429v21.75h30.263V878.4H1258.4v59.383q0 8.895 4.446 13.525c2.958 3.092 7.217 4.633 12.762 4.633q4.162 0 8.042-1.325c2.583-.879 4.825-2.141 6.713-3.779l4.729 9.642Zm37.162-73.475c-6.496 6.12-10.187 14.092-11.066 23.925h70.541c-.879-9.833-4.57-17.804-11.058-23.925q-9.746-9.17-24.304-9.171c-9.584 0-17.625 3.058-24.113 9.17Zm72.146 33.95h-83.212c.758 10.337 4.729 18.696 11.916 25.058 7.184 6.367 16.267 9.55 27.234 9.55 6.175 0 11.854-1.1 17.02-3.308q7.75-3.308 13.43-9.742l7.566 8.7c-4.42 5.296-9.933 9.334-16.554 12.104q-9.927 4.163-21.842 4.163c-10.212 0-19.262-2.175-27.141-6.525-7.875-4.35-14.025-10.37-18.434-18.063q-6.622-11.53-6.62-26.1c0-9.704 2.108-18.404 6.333-26.095q6.337-11.537 17.4-17.967c7.38-4.288 15.667-6.433 24.87-6.433q13.801 0 24.776 6.433c7.308 4.287 13.05 10.246 17.212 17.87q6.238 11.445 6.238 26.192zm44.354 40.092c-7.758-4.284-13.846-10.305-18.254-18.059-4.412-7.754-6.617-16.483-6.617-26.196q0-14.557 6.617-26.095c4.408-7.692 10.496-13.68 18.254-17.967 7.75-4.288 16.542-6.433 26.384-6.433 8.566 0 16.225 1.675 22.97 5.012q10.123 5.018 15.984 14.658l-10.025 6.809q-4.919-7.375-12.48-11.063-7.561-3.687-16.45-3.687c-7.191 0-13.653 1.604-19.391 4.82s-10.208 7.788-13.425 13.713-4.82 12.67-4.82 20.233c0 7.696 1.603 14.471 4.82 20.334s7.687 10.4 13.425 13.616q8.606 4.82 19.392 4.821 8.887 0 16.45-3.591 7.561-3.589 12.479-10.971l10.025 6.808q-5.862 9.648-16.075 14.658c-6.808 3.342-14.438 5.013-22.88 5.013q-14.76.002-26.383-6.433m172.475-83.871q11.063 10.875 11.063 31.675v57.683h-13.43v-56.358q0-15.509-7.75-23.642c-5.174-5.42-12.545-8.133-22.128-8.133-10.717 0-19.192 3.187-25.438 9.55q-9.362 9.556-9.362 26.383v52.2h-13.425v-140.33h13.425v58.25c3.654-5.795 8.7-10.274 15.129-13.428 6.433-3.15 13.808-4.73 22.129-4.73 12.483 0 22.412 3.63 29.787 10.88m129.926 0q11.062 10.875 11.062 31.675v57.683h-13.43v-56.358q.001-15.509-7.75-23.642-7.762-8.131-22.124-8.133c-10.721 0-19.2 3.187-25.442 9.55q-9.36 9.556-9.358 26.383v52.2h-13.43v-99.48h12.859v18.347q5.48-9.074 15.23-14.092c6.487-3.337 14.02-5.012 22.595-5.012 12.488 0 22.413 3.629 29.788 10.879m109.495 73.566c5.613-3.216 9.996-7.783 13.142-13.712q4.73-8.887 4.73-20.238 0-11.344-4.73-20.233-4.72-8.888-13.142-13.712c-5.608-3.217-11.945-4.821-19-4.821-7.066 0-13.404 1.604-19.012 4.82-5.613 3.217-10.02 7.788-13.242 13.713q-4.817 8.888-4.816 20.233-.001 11.35 4.816 20.238c3.221 5.93 7.63 10.496 13.242 13.712q8.412 4.82 19.012 4.821c7.055 0 13.392-1.608 19-4.82Zm-44.912 10.213q-11.539-6.524-18.158-18.063-6.618-11.53-6.617-26.1-.001-14.557 6.617-26.095t18.158-17.967c7.692-4.288 16.325-6.433 25.912-6.433 9.575 0 18.213 2.145 25.905 6.433q11.53 6.43 18.062 17.967c4.346 7.691 6.525 16.391 6.525 26.095 0 9.713-2.179 18.413-6.525 26.1q-6.531 11.538-18.062 18.063c-7.692 4.35-16.33 6.525-25.905 6.525-9.587 0-18.22-2.175-25.912-6.525m105.721-134.75h13.429v140.33h-13.43zm112.43 124.537c5.612-3.216 9.99-7.783 13.145-13.712q4.725-8.887 4.725-20.238 0-11.344-4.725-20.233c-3.154-5.925-7.533-10.496-13.146-13.712-5.608-3.217-11.946-4.821-19.004-4.821-7.067 0-13.4 1.604-19.013 4.82q-8.407 4.825-13.233 13.713-4.825 8.888-4.825 20.233 0 11.35 4.825 20.238c3.217 5.93 7.63 10.496 13.233 13.712 5.613 3.213 11.946 4.821 19.013 4.821 7.058 0 13.396-1.608 19.004-4.82Zm-44.918 10.213c-7.691-4.35-13.745-10.37-18.154-18.063q-6.617-11.53-6.616-26.1-.001-14.557 6.616-26.095c4.409-7.692 10.463-13.68 18.154-17.967 7.692-4.288 16.325-6.433 25.913-6.433q14.37 0 25.912 6.433c7.684 4.287 13.709 10.275 18.059 17.967 4.346 7.691 6.525 16.391 6.525 26.095 0 9.713-2.18 18.413-6.525 26.1-4.35 7.692-10.375 13.713-18.059 18.063q-11.543 6.525-25.912 6.525c-9.588 0-18.22-2.175-25.913-6.525m166.43-14.755c5.796-3.087 10.3-7.403 13.525-12.953q4.817-8.319 4.816-18.913c0-7.058-1.604-13.333-4.816-18.817-3.225-5.483-7.696-9.766-13.434-12.862-5.741-3.088-12.262-4.63-19.575-4.63q-10.775 0-19.383 4.538-8.606 4.539-13.425 12.859-4.825 8.325-4.825 18.912 0 10.594 4.825 18.913 4.82 8.323 13.425 12.954 8.608 4.637 19.383 4.637c7.184 0 13.684-1.546 19.484-4.637Zm31.396-79.145v87.375c0 16.892-4.134 29.408-12.392 37.542-8.258 8.129-20.704 12.2-37.35 12.2-9.204 0-17.938-1.359-26.192-4.071-8.258-2.709-14.975-6.463-20.141-11.25l6.808-10.213q7.182 6.427 17.492 10.021c6.87 2.396 14.091 3.596 21.654 3.596q18.912 0 27.8-8.796 8.887-8.792 8.887-27.33v-12.67c-4.158 6.308-9.612 11.096-16.358 14.375s-14.213 4.917-22.413 4.917c-9.325 0-17.804-2.05-25.429-6.146-7.633-4.096-13.62-9.833-17.97-17.208-4.35-7.38-6.526-15.73-6.526-25.063q0-13.995 6.525-24.962c4.35-7.313 10.309-12.984 17.871-17.021q11.356-6.052 25.53-6.054c8.45 0 16.083 1.704 22.883 5.108q10.216 5.106 16.458 14.75v-19.1zm123.112 0-49.737 111.392c-4.038 9.329-8.7 15.95-13.996 19.858-5.292 3.908-11.663 5.867-19.1 5.867-4.796 0-9.267-.759-13.43-2.271-4.158-1.517-7.754-3.784-10.779-6.809l6.242-10.025q7.562 7.565 18.154 7.567 6.809 0 11.63-3.783c3.22-2.525 6.212-6.809 8.987-12.863l4.35-9.646-44.442-99.287h13.992l37.446 84.537 37.446-84.537zM549.084.82v114.863H317.496q-61.63 0-98.05 29.417c-24.283 19.604-39.846 41.408-46.692 65.363-6.858 23.975-11.829 46.079-14.941 66.3-3.121 20.241-4.671 40.316-4.671 60.233v22.413c0 8.725.308 18.208.937 28.479.613 10.275 1.854 22.737 3.721 37.354 1.867 14.633 6.05 30.35 12.575 47.158 6.525 16.809 15.688 32.38 27.488 46.692 15.525 16.192 32.291 26.313 50.296 30.346 18.008 4.058 41.308 6.07 69.875 6.07h231.05v116.726H312.696c-44.68 0-82.675-3.88-114-11.671-31.338-7.775-62.83-23.492-94.463-47.158-37.845-32.363-64.691-71.275-80.512-116.725C7.904 451.242 0 402.059 0 349.138v-40.154c0-24.28 2.475-47.934 7.467-70.971 4.975-23.025 11.208-44.825 18.675-65.367 7.47-20.546 16.183-38.596 26.15-54.158 9.95-15.559 24.587-32.996 43.891-52.3 19.288-19.288 42.63-33.455 70.034-42.484q41.08-13.53 77.042-18.212A562 562 0 0 1 315.629.82z"/><path fill="var(--svg-hover-color,#1776bb)" d="M826.421 568.58c4.98 2.5 11.35 4.366 19.146 5.604 7.775 1.258 15.409 1.87 22.875 1.87 26.767 0 51.042-7.779 72.834-23.345 21.796-15.554 36.258-34.554 43.425-56.963 7.15-22.412 10.741-45.129 10.741-68.17 0-32.988-6.07-61.776-18.208-86.376-12.137-24.587-31.596-42.491-58.362-53.696-17.434-6.216-33.313-9.337-47.63-9.337-16.195 0-33 3.43-50.425 10.27q-25.207 12.15-42.02 30.817c-11.205 12.459-19.767 27.709-25.676 45.759-5.929 18.062-8.875 38.908-8.875 62.562 0 31.75 6.684 60.392 20.08 85.913 13.379 25.533 34.083 43.892 62.095 55.092m231.588 44.825c-23.662 21.8-47.946 37.208-72.833 46.225-24.913 9.033-45.763 15.087-62.575 18.208-16.796 3.108-34.242 4.67-52.288 4.67-34.246 0-68.492-6.07-102.72-18.207-34.247-12.138-62.726-29.096-85.442-50.896q-34.106-32.676-49.03-71.438c-9.966-25.825-16.5-46.996-19.608-63.496-3.12-16.487-4.67-34.087-4.67-52.762 0-35.488 4.816-65.513 14.474-90.113 9.646-24.587 18.68-43.42 27.08-56.5 8.404-13.07 21.483-28.475 39.22-46.22q26.611-26.614 75.642-44.822 49.024-18.21 105.054-18.208c35.492 0 69.567 5.762 102.25 17.275 32.692 11.525 58.209 26.146 76.571 43.888 18.363 17.741 31.904 33.312 40.625 46.691 8.713 13.392 17.738 32.067 27.084 56.03 9.337 23.974 14.008 54.629 14.008 91.979 0 35.487-6.07 69.566-18.208 102.25-12.146 32.687-30.35 61.166-54.634 85.446m479.042 58.829h-333.375V570.45h273.617c46.062 0 69.096-16.491 69.096-49.495q-.002-47.62-69.096-47.621h-112.996c-16.2 0-28.95-.309-38.288-.934-9.341-.616-22.729-2.337-40.15-5.137-17.437-2.804-33.312-9.017-47.629-18.675-14.325-9.646-25.212-23.958-32.679-42.954-7.47-18.984-11.213-41.863-11.213-68.638 0-104.587 57.9-156.88 173.692-156.88h278.284V281.9h-252.688c-39.458 0-61.367 10.9-65.746 32.688v15.875c0 27.4 20.546 41.083 61.634 41.083h118.596c23.645 0 45.283 2.658 64.895 7.942 19.609 5.296 36.888 13.7 51.825 25.212 14.942 11.525 26.617 26.142 35.021 43.888 8.405 17.742 12.609 38.137 12.609 61.167 0 28.016-4.054 51.679-12.138 70.966-8.104 19.304-15.875 33.78-23.346 43.421-7.475 9.659-19 20.08-34.55 31.284-15.575 11.208-37.358 16.808-65.375 16.808"/><path fill="var(--svg-hover-color,#1b508b)" d="M1777.968 672.234V.82h141.009v271.746h258.662V.82h140.075v671.413H2177.64V391.159h-258.662v281.075z"/></svg>