<svg xmlns="http://www.w3.org/2000/svg" xml:space="preserve" fill-rule="evenodd" stroke-linejoin="round" stroke-miterlimit="2" clip-rule="evenodd" viewBox="0 0 2321 1005">
    <path fill="var(--svg-hover-color,#1b508b)" d="M11.342 865.542h23.637v100.992H11.342V865.542Zm1.133-20.708c-2.904-2.712-4.35-6.083-4.35-10.117 0-4.037 1.446-7.408 4.35-10.12 2.896-2.709 6.492-4.067 10.78-4.067 4.283 0 7.878 1.296 10.778 3.875 2.9 2.587 4.35 5.837 4.35 9.742 0 4.162-1.416 7.658-4.254 10.495-2.837 2.838-6.462 4.255-10.875 4.255-4.287 0-7.883-1.35-10.779-4.063ZM155.825 875.563c7.692 7.442 11.538 18.475 11.538 33.1v57.871h-23.638v-54.846c0-8.825-2.083-15.475-6.242-19.954-4.162-4.475-10.091-6.712-17.779-6.712-8.7 0-15.575 2.616-20.612 7.85-5.046 5.233-7.567 12.766-7.567 22.595v51.067H67.883V865.542h22.505v13.05c3.908-4.662 8.829-8.195 14.754-10.591 5.925-2.392 12.604-3.592 20.046-3.592 12.733 0 22.945 3.72 30.637 11.154ZM225.425 860.247v6.05h27.796v18.912h-27.042v81.325h-23.641V885.21h-16.642v-18.912h16.642v-6.43c0-10.841 3.15-19.383 9.458-25.625 6.304-6.241 15.192-9.362 26.667-9.362 9.079 0 16.2 1.829 21.37 5.487l-6.62 17.775c-4.038-2.77-8.388-4.162-13.05-4.162-9.963 0-14.938 5.425-14.938 16.267ZM336.438 938.922c5.67-5.8 8.512-13.43 8.512-22.884 0-9.458-2.841-17.083-8.512-22.883-5.675-5.8-12.863-8.7-21.563-8.7s-15.854 2.9-21.462 8.7c-5.613 5.8-8.417 13.425-8.417 22.883 0 9.454 2.804 17.084 8.417 22.884 5.608 5.8 12.762 8.7 21.462 8.7s15.888-2.9 21.563-8.7Zm-49.171 22.316c-8.2-4.412-14.596-10.558-19.2-18.437-4.604-7.88-6.9-16.8-6.9-26.763 0-9.958 2.296-18.846 6.9-26.666 4.604-7.817 11-13.93 19.2-18.346 8.192-4.413 17.4-6.617 27.608-6.617 10.338 0 19.604 2.204 27.804 6.617 8.196 4.416 14.592 10.529 19.196 18.346 4.6 7.82 6.9 16.708 6.9 26.666 0 9.963-2.3 18.884-6.9 26.763-4.604 7.879-11 14.025-19.196 18.437-8.2 4.413-17.466 6.621-27.804 6.621-10.208 0-19.416-2.208-27.608-6.62ZM451.8 864.409v22.504c-2.016-.379-3.845-.566-5.483-.566-9.204 0-16.392 2.679-21.562 8.037-5.167 5.358-7.75 13.083-7.75 23.167v48.983h-23.642V865.542h22.504v14.75c6.808-10.587 18.788-15.883 35.933-15.883ZM631.471 875.472c7.438 7.375 11.159 18.437 11.159 33.191v57.871h-23.642v-54.846c0-8.825-1.958-15.475-5.863-19.954-3.908-4.475-9.52-6.712-16.833-6.712-7.942 0-14.308 2.616-19.1 7.85-4.792 5.233-7.187 12.7-7.187 22.408v51.254h-23.642v-54.846c0-8.825-1.954-15.475-5.863-19.954-3.908-4.475-9.516-6.712-16.829-6.712-8.07 0-14.466 2.583-19.196 7.754-4.729 5.17-7.091 12.67-7.091 22.504v51.254h-23.642V865.542h22.504v12.859c3.784-4.538 8.513-8.004 14.184-10.4 5.675-2.392 11.979-3.592 18.912-3.592 7.567 0 14.275 1.417 20.142 4.254 5.866 2.838 10.5 7.03 13.9 12.575 4.162-5.296 9.52-9.425 16.079-12.387 6.554-2.959 13.804-4.442 21.75-4.442 12.733 0 22.817 3.688 30.258 11.063ZM725.938 946.58c4.6-2.708 7.846-6.588 9.738-11.63v-11.724H711.28c-13.621 0-20.425 4.475-20.425 13.425 0 4.287 1.7 7.691 5.104 10.212 3.404 2.525 8.133 3.784 14.187 3.784 5.921 0 11.188-1.355 15.792-4.067Zm21.558-71.488c7.88 7.125 11.821 17.875 11.821 32.246v59.196h-22.316v-12.292c-2.905 4.413-7.034 7.784-12.388 10.117-5.362 2.33-11.82 3.5-19.387 3.5s-14.184-1.296-19.859-3.88c-5.675-2.582-10.054-6.174-13.141-10.778-3.092-4.6-4.634-9.8-4.634-15.604 0-9.075 3.371-16.359 10.117-21.842 6.746-5.488 17.367-8.23 31.867-8.23h26.1v-1.512c0-7.058-2.113-12.483-6.334-16.262-4.229-3.784-10.5-5.675-18.82-5.675-5.671 0-11.25.883-16.738 2.65-5.483 1.762-10.117 4.225-13.9 7.375l-9.267-17.213c5.296-4.033 11.663-7.12 19.1-9.266 7.438-2.142 15.321-3.213 23.642-3.213 14.875 0 26.254 3.563 34.137 10.683ZM852.172 961.047c-2.775 2.27-6.146 3.975-10.117 5.108-3.971 1.133-8.163 1.704-12.575 1.704-11.096 0-19.671-2.9-25.721-8.7-6.054-5.8-9.08-14.25-9.08-25.346V885.21h-16.64v-18.912h16.64v-23.071h23.638v23.07h27.046v18.913h-27.046v48.038c0 4.916 1.2 8.67 3.596 11.254 2.396 2.583 5.863 3.875 10.4 3.875 5.296 0 9.709-1.384 13.242-4.159l6.617 16.83ZM873.547 865.542h23.637v100.992h-23.637V865.542Zm1.133-20.708c-2.9-2.712-4.35-6.083-4.35-10.117 0-4.037 1.45-7.408 4.35-10.12 2.9-2.709 6.492-4.067 10.779-4.067 4.288 0 7.88 1.296 10.78 3.875 2.9 2.587 4.35 5.837 4.35 9.742 0 4.162-1.417 7.658-4.255 10.495-2.837 2.838-6.462 4.255-10.875 4.255-4.287 0-7.88-1.35-10.78-4.063ZM997.042 938.922c5.671-5.8 8.509-13.43 8.509-22.884 0-9.458-2.838-17.083-8.509-22.883-5.675-5.8-12.862-8.7-21.562-8.7-8.7 0-15.858 2.9-21.467 8.7-5.612 5.8-8.416 13.425-8.416 22.883 0 9.454 2.804 17.084 8.416 22.884 5.609 5.8 12.767 8.7 21.467 8.7s15.887-2.9 21.562-8.7Zm-49.175 22.316c-8.195-4.412-14.595-10.558-19.195-18.437-4.605-7.88-6.905-16.8-6.905-26.763 0-9.958 2.3-18.846 6.905-26.666 4.6-7.817 11-13.93 19.195-18.346 8.196-4.413 17.4-6.617 27.613-6.617 10.337 0 19.604 2.204 27.8 6.617 8.196 4.416 14.592 10.529 19.196 18.346 4.604 7.82 6.904 16.708 6.904 26.666 0 9.963-2.3 18.884-6.904 26.763-4.604 7.879-11 14.025-19.196 18.437-8.196 4.413-17.463 6.621-27.8 6.621-10.213 0-19.417-2.208-27.613-6.62ZM1141.905 875.563c7.688 7.442 11.538 18.475 11.538 33.1v57.871H1129.8v-54.846c0-8.825-2.08-15.475-6.242-19.954-4.158-4.475-10.087-6.712-17.775-6.712-8.7 0-15.575 2.616-20.616 7.85-5.046 5.233-7.563 12.766-7.563 22.595v51.067h-23.642V865.542h22.5v13.05c3.913-4.662 8.83-8.195 14.759-10.591 5.92-2.392 12.604-3.592 20.046-3.592 12.733 0 22.945 3.72 30.637 11.154ZM1295.093 960.48c-2.525 2.27-5.646 4.004-9.359 5.204-3.725 1.196-7.604 1.796-11.633 1.796-9.333 0-16.52-2.52-21.562-7.567-5.046-5.037-7.567-12.162-7.567-21.37V878.4h-17.775v-11.346h17.775v-21.75h13.429v21.75h30.263V878.4H1258.4v59.383c0 5.93 1.483 10.438 4.446 13.525 2.958 3.092 7.217 4.633 12.762 4.633 2.775 0 5.455-.441 8.042-1.325 2.583-.879 4.825-2.141 6.713-3.779l4.729 9.642ZM1332.255 887.005c-6.496 6.12-10.187 14.092-11.066 23.925h70.541c-.879-9.833-4.57-17.804-11.058-23.925-6.496-6.113-14.6-9.171-24.304-9.171-9.584 0-17.625 3.058-24.113 9.17Zm72.146 33.95h-83.212c.758 10.337 4.729 18.696 11.916 25.058 7.184 6.367 16.267 9.55 27.234 9.55 6.175 0 11.854-1.1 17.02-3.308 5.167-2.204 9.642-5.454 13.43-9.742l7.566 8.7c-4.42 5.296-9.933 9.334-16.554 12.104-6.617 2.775-13.9 4.163-21.842 4.163-10.212 0-19.262-2.175-27.141-6.525-7.875-4.35-14.025-10.37-18.434-18.063-4.416-7.687-6.62-16.387-6.62-26.1 0-9.704 2.108-18.404 6.333-26.095 4.225-7.692 10.025-13.68 17.4-17.967 7.38-4.288 15.667-6.433 24.87-6.433 9.2 0 17.46 2.145 24.776 6.433 7.308 4.287 13.05 10.246 17.212 17.87 4.159 7.63 6.238 16.36 6.238 26.192l-.192 4.163ZM1448.755 961.047c-7.758-4.284-13.846-10.305-18.254-18.059-4.412-7.754-6.617-16.483-6.617-26.196 0-9.704 2.205-18.404 6.617-26.095 4.408-7.692 10.496-13.68 18.254-17.967 7.75-4.288 16.542-6.433 26.384-6.433 8.566 0 16.225 1.675 22.97 5.012 6.75 3.346 12.076 8.23 15.984 14.658l-10.025 6.809c-3.28-4.917-7.438-8.604-12.48-11.063-5.041-2.458-10.524-3.687-16.45-3.687-7.191 0-13.653 1.604-19.391 4.82-5.738 3.217-10.208 7.788-13.425 13.713-3.217 5.925-4.82 12.67-4.82 20.233 0 7.696 1.603 14.471 4.82 20.334 3.217 5.862 7.687 10.4 13.425 13.616 5.738 3.213 12.2 4.821 19.392 4.821 5.925 0 11.408-1.196 16.45-3.591 5.041-2.392 9.2-6.05 12.479-10.971l10.025 6.808c-3.908 6.433-9.267 11.317-16.075 14.658-6.808 3.342-14.438 5.013-22.88 5.013-9.841 0-18.633-2.142-26.383-6.433ZM1621.23 877.176c7.375 7.25 11.063 17.808 11.063 31.675v57.683h-13.43v-56.358c0-10.338-2.583-18.221-7.75-23.642-5.174-5.42-12.545-8.133-22.128-8.133-10.717 0-19.192 3.187-25.438 9.55-6.242 6.37-9.362 15.166-9.362 26.383v52.2h-13.425v-140.33h13.425v58.25c3.654-5.795 8.7-10.274 15.129-13.428 6.433-3.15 13.808-4.73 22.129-4.73 12.483 0 22.412 3.63 29.787 10.88ZM1751.156 877.176c7.375 7.25 11.062 17.808 11.062 31.675v57.683h-13.43v-56.358c0-10.338-2.582-18.221-7.75-23.642-5.174-5.42-12.55-8.133-22.124-8.133-10.721 0-19.2 3.187-25.442 9.55-6.241 6.37-9.358 15.166-9.358 26.383v52.2h-13.43v-99.48h12.859v18.347c3.654-6.05 8.73-10.746 15.23-14.092 6.487-3.337 14.02-5.012 22.595-5.012 12.488 0 22.413 3.629 29.788 10.879ZM1860.651 950.742c5.613-3.216 9.996-7.783 13.142-13.712 3.154-5.925 4.73-12.67 4.73-20.238 0-7.562-1.576-14.308-4.73-20.233-3.146-5.925-7.529-10.496-13.142-13.712-5.608-3.217-11.945-4.821-19-4.821-7.066 0-13.404 1.604-19.012 4.82-5.613 3.217-10.02 7.788-13.242 13.713-3.212 5.925-4.816 12.67-4.816 20.233 0 7.567 1.604 14.313 4.816 20.238 3.221 5.93 7.63 10.496 13.242 13.712 5.608 3.213 11.946 4.821 19.012 4.821 7.055 0 13.392-1.608 19-4.82Zm-44.912 10.213c-7.692-4.35-13.746-10.37-18.158-18.063-4.413-7.687-6.617-16.387-6.617-26.1 0-9.704 2.204-18.404 6.617-26.095 4.412-7.692 10.466-13.68 18.158-17.967 7.692-4.288 16.325-6.433 25.912-6.433 9.575 0 18.213 2.145 25.905 6.433 7.687 4.287 13.708 10.275 18.062 17.967 4.346 7.691 6.525 16.391 6.525 26.095 0 9.713-2.179 18.413-6.525 26.1-4.354 7.692-10.375 13.713-18.062 18.063-7.692 4.35-16.33 6.525-25.905 6.525-9.587 0-18.22-2.175-25.912-6.525ZM1921.46 826.205h13.429v140.33h-13.43zM2033.89 950.742c5.612-3.216 9.99-7.783 13.145-13.712 3.15-5.925 4.725-12.67 4.725-20.238 0-7.562-1.575-14.308-4.725-20.233-3.154-5.925-7.533-10.496-13.146-13.712-5.608-3.217-11.946-4.821-19.004-4.821-7.067 0-13.4 1.604-19.013 4.82-5.604 3.217-10.016 7.788-13.233 13.713-3.217 5.925-4.825 12.67-4.825 20.233 0 7.567 1.608 14.313 4.825 20.238 3.217 5.93 7.63 10.496 13.233 13.712 5.613 3.213 11.946 4.821 19.013 4.821 7.058 0 13.396-1.608 19.004-4.82Zm-44.918 10.213c-7.691-4.35-13.745-10.37-18.154-18.063-4.412-7.687-6.616-16.387-6.616-26.1 0-9.704 2.204-18.404 6.616-26.095 4.409-7.692 10.463-13.68 18.154-17.967 7.692-4.288 16.325-6.433 25.913-6.433 9.58 0 18.217 2.145 25.912 6.433 7.684 4.287 13.709 10.275 18.059 17.967 4.346 7.691 6.525 16.391 6.525 26.095 0 9.713-2.18 18.413-6.525 26.1-4.35 7.692-10.375 13.713-18.059 18.063-7.695 4.35-16.333 6.525-25.912 6.525-9.588 0-18.22-2.175-25.913-6.525ZM2155.402 946.2c5.796-3.087 10.3-7.403 13.525-12.953 3.212-5.546 4.816-11.85 4.816-18.913 0-7.058-1.604-13.333-4.816-18.817-3.225-5.483-7.696-9.766-13.434-12.862-5.741-3.088-12.262-4.63-19.575-4.63-7.183 0-13.645 1.513-19.383 4.538-5.737 3.025-10.212 7.313-13.425 12.859-3.217 5.55-4.825 11.854-4.825 18.912 0 7.063 1.608 13.367 4.825 18.913 3.213 5.55 7.688 9.866 13.425 12.954 5.738 3.091 12.2 4.637 19.383 4.637 7.184 0 13.684-1.546 19.484-4.637Zm31.396-79.145v87.375c0 16.892-4.134 29.408-12.392 37.542-8.258 8.129-20.704 12.2-37.35 12.2-9.204 0-17.938-1.359-26.192-4.071-8.258-2.709-14.975-6.463-20.141-11.25l6.808-10.213c4.787 4.284 10.62 7.625 17.492 10.021 6.87 2.396 14.091 3.596 21.654 3.596 12.608 0 21.875-2.933 27.8-8.796 5.925-5.862 8.887-14.97 8.887-27.33v-12.67c-4.158 6.308-9.612 11.096-16.358 14.375-6.746 3.28-14.213 4.917-22.413 4.917-9.325 0-17.804-2.05-25.429-6.146-7.633-4.096-13.62-9.833-17.97-17.208-4.35-7.38-6.526-15.73-6.526-25.063 0-9.33 2.175-17.65 6.525-24.962 4.35-7.313 10.309-12.984 17.871-17.021 7.571-4.034 16.08-6.054 25.53-6.054 8.45 0 16.083 1.704 22.883 5.108 6.812 3.404 12.296 8.32 16.458 14.75v-19.1h12.863ZM2309.91 867.055l-49.737 111.392c-4.038 9.329-8.7 15.95-13.996 19.858-5.292 3.908-11.663 5.867-19.1 5.867-4.796 0-9.267-.759-13.43-2.271-4.158-1.517-7.754-3.784-10.779-6.809l6.242-10.025c5.042 5.042 11.092 7.567 18.154 7.567 4.538 0 8.417-1.262 11.63-3.783 3.22-2.525 6.212-6.809 8.987-12.863l4.35-9.646-44.442-99.287h13.992l37.446 84.537 37.446-84.537h13.237ZM549.084.82v114.863H317.496c-41.087 0-73.77 9.805-98.05 29.417-24.283 19.604-39.846 41.408-46.692 65.363-6.858 23.975-11.829 46.079-14.941 66.3-3.121 20.241-4.671 40.316-4.671 60.233v22.413c0 8.725.308 18.208.937 28.479.613 10.275 1.854 22.737 3.721 37.354 1.867 14.633 6.05 30.35 12.575 47.158 6.525 16.809 15.688 32.38 27.488 46.692 15.525 16.192 32.291 26.313 50.296 30.346 18.008 4.058 41.308 6.07 69.875 6.07h231.05v116.726H312.696c-44.68 0-82.675-3.88-114-11.671-31.338-7.775-62.83-23.492-94.463-47.158-37.845-32.363-64.691-71.275-80.512-116.725C7.904 451.242 0 402.059 0 349.138v-40.154c0-24.28 2.475-47.934 7.467-70.971 4.975-23.025 11.208-44.825 18.675-65.367 7.47-20.546 16.183-38.596 26.15-54.158 9.95-15.559 24.587-32.996 43.891-52.3 19.288-19.288 42.63-33.455 70.034-42.484 27.387-9.02 53.067-15.091 77.042-18.212A561.976 561.976 0 0 1 315.629.82h233.455Z"/>
    <path fill="var(--svg-hover-color,#1776bb)" d="M826.421 568.58c4.98 2.5 11.35 4.366 19.146 5.604 7.775 1.258 15.409 1.87 22.875 1.87 26.767 0 51.042-7.779 72.834-23.345 21.796-15.554 36.258-34.554 43.425-56.963 7.15-22.412 10.741-45.129 10.741-68.17 0-32.988-6.07-61.776-18.208-86.376-12.137-24.587-31.596-42.491-58.362-53.696-17.434-6.216-33.313-9.337-47.63-9.337-16.195 0-33 3.43-50.425 10.27-16.804 8.1-30.812 18.372-42.02 30.817-11.205 12.459-19.767 27.709-25.676 45.759-5.929 18.062-8.875 38.908-8.875 62.562 0 31.75 6.684 60.392 20.08 85.913 13.379 25.533 34.083 43.892 62.095 55.092Zm231.588 44.825c-23.662 21.8-47.946 37.208-72.833 46.225-24.913 9.033-45.763 15.087-62.575 18.208-16.796 3.108-34.242 4.67-52.288 4.67-34.246 0-68.492-6.07-102.72-18.207-34.247-12.138-62.726-29.096-85.442-50.896-22.738-21.784-39.08-45.596-49.03-71.438-9.966-25.825-16.5-46.996-19.608-63.496-3.12-16.487-4.67-34.087-4.67-52.762 0-35.488 4.816-65.513 14.474-90.113 9.646-24.587 18.68-43.42 27.08-56.5 8.404-13.07 21.483-28.475 39.22-46.22 17.742-17.742 42.954-32.684 75.642-44.822 32.683-12.141 67.7-18.208 105.054-18.208 35.492 0 69.567 5.762 102.25 17.275 32.692 11.525 58.209 26.146 76.571 43.888 18.363 17.741 31.904 33.312 40.625 46.691 8.713 13.392 17.738 32.067 27.084 56.03 9.337 23.974 14.008 54.629 14.008 91.979 0 35.487-6.07 69.566-18.208 102.25-12.146 32.687-30.35 61.166-54.634 85.446ZM1537.051 672.234h-333.375V570.45h273.617c46.062 0 69.096-16.491 69.096-49.495 0-31.746-23.034-47.621-69.096-47.621h-112.996c-16.2 0-28.95-.309-38.288-.934-9.341-.616-22.729-2.337-40.15-5.137-17.437-2.804-33.312-9.017-47.629-18.675-14.325-9.646-25.212-23.958-32.679-42.954-7.47-18.984-11.213-41.863-11.213-68.638 0-104.587 57.9-156.88 173.692-156.88h278.284V281.9h-252.688c-39.458 0-61.367 10.9-65.746 32.688v15.875c0 27.4 20.546 41.083 61.634 41.083h118.596c23.645 0 45.283 2.658 64.895 7.942 19.609 5.296 36.888 13.7 51.825 25.212 14.942 11.525 26.617 26.142 35.021 43.888 8.405 17.742 12.609 38.137 12.609 61.167 0 28.016-4.054 51.679-12.138 70.966-8.104 19.304-15.875 33.78-23.346 43.421-7.475 9.659-19 20.08-34.55 31.284-15.575 11.208-37.358 16.808-65.375 16.808Z"/>
    <path fill="var(--svg-hover-color,#1b508b)" d="M1777.968 672.234V.82h141.009v271.746h258.662V.82h140.075v671.413H2177.64V391.159h-258.662v281.075h-141.009Z"/>
</svg>
