<svg xmlns="http://www.w3.org/2000/svg" xml:space="preserve" width="116" height="64" style="fill-rule:evenodd;clip-rule:evenodd;stroke-linejoin:round;stroke-miterlimit:2" viewBox="0 0 278 154"><path fill="var(--svg-hover-color,#007b84)" d="M170.601 104.479c-2.092-.838-4.264-1.589-7.105-1.589-6.351 0-10.615 4.68-10.615 12.371 0 9.362 3.928 13.54 10.367 13.54 2.755 0 4.678-.752 7.017-1.757l2.677 6.939c-3.511 1.589-6.939 2.425-11.117 2.425-11.452 0-17.469-8.026-17.469-20.227 0-14.458 9.363-20.981 19.308-20.981 3.674 0 6.519.588 9.611 1.757zm19.332 31.928c-4.347 0-8.443-.752-11.87-2.26l2.342-7.188c2.926 1.255 5.853 2.343 9.112 2.343 4.095 0 6.518-1.418 6.518-4.43 0-2.423-1.338-3.343-3.679-4.43l-6.77-3.009c-3.091-1.339-7.439-3.845-7.439-10.531 0-7.771 6.688-11.703 14.292-11.703 4.515 0 7.606.755 11.116 2.257l-2.671 7.022c-2.678-1.168-5.268-2.174-8.36-2.174-3.844 0-6.184 1.252-6.184 4.015 0 2.59 2.173 3.51 3.676 4.179l7.021 3.09c5.098 2.257 7.523 5.348 7.523 9.866 0 7.438-5.936 12.953-14.627 12.953m45.716-31.928c-2.088-.838-4.265-1.589-7.105-1.589-6.352 0-10.609 4.68-10.609 12.371 0 9.362 3.923 13.54 10.36 13.54 2.756 0 4.677-.752 7.02-1.757l2.674 6.939c-3.513 1.589-6.938 2.425-11.117 2.425-11.45 0-17.465-8.026-17.465-20.227 0-14.458 9.358-20.981 19.304-20.981 3.68 0 6.519.588 9.613 1.757zm24.586-1.754c-3.007 0-5.181 1.503-6.6 2.59v22.482c1.168.503 2.756.921 5.016.921 6.6 0 10.109-5.183 10.109-12.958 0-8.019-1.672-13.035-8.525-13.035m-2.005 33.182c-1.839 0-3.427-.251-4.595-.589v16.633l-8.445 1.253v-47.387l-1.251-9.193 8.274-1.174.501 4.014h.083c1.838-1.588 5.433-4.264 10.362-4.264 9.698 0 14.128 7.356 14.128 18.723 0 13.207-6.352 21.984-19.057 21.984" style="fill-rule:nonzero"/><path fill="var(--svg-hover-color,#00b8de)" d="M48.956 25.045C36.042 46.058 16.029 45.984 4.795 43.894 12 25.183 27.309 9.774 47.858 3.231a68 68 0 0 1 35.484-1.606C72.068 3.446 58.648 9.28 48.956 25.045" style="fill-rule:nonzero"/><path fill="var(--svg-hover-color,#007b84)" d="M101.869 8.416c-19.827-1.808-31.339 3.418-38.78 10.417.302.119.605.237.905.367l43.73 19.133c9.806 4.29 14.276 15.714 9.986 25.521l-19.128 43.732c-4.294 9.805-15.717 14.275-25.522 9.986L29.327 98.441c-9.804-4.293-14.273-15.716-9.987-25.521l10.173-23.251c-7.896 2.593-16.705 3.105-26.046 1.368l-1.233-.225A68.5 68.5 0 0 0 0 68.216c0 37.821 30.659 68.482 68.481 68.482s68.482-30.661 68.482-68.482c0-25.699-14.156-48.085-35.094-59.8" style="fill-rule:nonzero"/></svg>