<svg xmlns="http://www.w3.org/2000/svg" width="49" height="64" fill="none" viewBox="0 0 136 178"><path fill="var(--svg-hover-color,#35a58e)" d="M101.457 58.176V20.49a2.2 2.2 0 0 0-1.097-1.898L68.69.294a2.2 2.2 0 0 0-2.196 0L34.82 18.588a2.2 2.2 0 0 0-1.097 1.899v37.689l32.771-18.938a2.2 2.2 0 0 1 2.195 0z"/><path fill="var(--svg-hover-color,#3a70ca)" d="m67.592 116.77 32.629 18.839a2.19 2.19 0 0 0 2.195 0l31.674-18.294a2.2 2.2 0 0 0 1.097-1.899V78.829a2.2 2.2 0 0 0-1.097-1.9l-32.625-18.794V95.93a2.2 2.2 0 0 1-1.098 1.899z"/><path fill="var(--svg-hover-color,#eb4544)" d="m67.592 116.77-32.629 18.839a2.19 2.19 0 0 1-2.195 0l-31.67-18.294A2.19 2.19 0 0 1 0 115.416V78.829a2.2 2.2 0 0 1 1.098-1.9l32.625-18.794V95.93a2.2 2.2 0 0 0 1.097 1.899z"/><path fill="var(--svg-hover-color,#0b1324)" d="M59.74 67.825h-5.59v-2.433h6.563v-3.41H50.381v15.29h3.768v-6.034h5.591zM65.562 61.982l-5.039 15.29h3.85l1.053-3.502h4.497l1.053 3.502h3.934l-4.973-15.29zm3.413 8.499h-2.623l1.302-4.482zM88.1 71.059a3.6 3.6 0 0 0-.882-1.156 3.4 3.4 0 0 0-1.153-.652c.351-.134.668-.344.93-.615.289-.306.51-.67.65-1.068a4.5 4.5 0 0 0 .238-1.533 4.03 4.03 0 0 0-1.097-2.927 4.17 4.17 0 0 0-3.059-1.097h-7.442V77.3h8.09c.566 0 1.126-.125 1.639-.366.492-.231.933-.56 1.295-.966.369-.42.656-.905.845-1.43a4.9 4.9 0 0 0 .304-1.735 3.96 3.96 0 0 0-.359-1.745m-8.05.135h3.41c.295-.02.585.078.809.27a1 1 0 0 1 .281.776v.732a1 1 0 0 1-.281.776c-.224.193-.514.29-.809.27h-3.41zm3.973-4.237a.96.96 0 0 1-1.064 1.065h-2.902v-2.77h2.902a.96.96 0 0 1 1.064 1.069zM53.52 94.457q-2.655 0-4.17-1.796t-1.515-5.214a10.4 10.4 0 0 1 .387-3.008 6.1 6.1 0 0 1 1.127-2.195 4.73 4.73 0 0 1 1.797-1.35 6 6 0 0 1 2.378-.457 5.37 5.37 0 0 1 2.96.768 5.1 5.1 0 0 1 1.873 2.28l-1.83 1.01a3.37 3.37 0 0 0-1.075-1.545 3 3 0 0 0-1.91-.57 3.05 3.05 0 0 0-2.466 1.071q-.892 1.07-.892 2.96v2.064q0 1.888.892 2.96a3.406 3.406 0 0 0 4.442.446c.517-.428.91-.988 1.134-1.62l1.767 1.068a5.47 5.47 0 0 1-1.902 2.297 5.26 5.26 0 0 1-2.997.83M59.679 94.222v-1.785h1.83v-9.974h-1.83v-1.785h5.898v1.785h-1.863v9.974h1.863v1.785zM72.77 82.62v11.602h-2.196V82.62H66.55v-1.94h10.263v1.94zM82.228 94.222v-5.335l-4.662-8.206h2.503l3.293 6.033h.058l3.293-6.033h2.408l-4.702 8.17v5.374h-2.195zM22.432 164.372h-8.346v8.029h-2.984v-18.434h2.984v7.764h8.346v-7.764h2.984v18.434H22.43zM40.334 172.401q-1.136 0-1.743-.634-.607-.66-.74-1.664h-.132q-.396 1.295-1.452 1.955t-2.562.66q-2.139 0-3.301-1.109-1.136-1.11-1.136-2.985 0-2.06 1.48-3.09 1.505-1.03 4.383-1.03h2.483v-1.162q0-1.267-.687-1.954-.686-.687-2.139-.687-1.215 0-1.98.529-.767.528-1.295 1.346l-1.717-1.558q.686-1.161 1.928-1.901 1.241-.766 3.249-.766 2.667 0 4.093 1.241t1.427 3.566v6.893h1.452v2.35zm-5.81-1.875q1.347 0 2.218-.581.872-.608.872-1.611v-1.981h-2.43q-2.984 0-2.984 1.849v.475q0 .924.607 1.4.634.449 1.717.449M45.295 172.401v-13.733h2.878v2.271h.132a6.7 6.7 0 0 1 .502-1.004q.318-.474.74-.818.448-.37 1.03-.555.607-.211 1.4-.211 1.4 0 2.482.687 1.083.686 1.585 2.112h.079q.37-1.162 1.426-1.98t2.72-.819q2.06 0 3.196 1.4 1.135 1.373 1.135 3.935v8.715h-2.878v-8.372q0-1.584-.608-2.377-.607-.819-1.928-.819-.554 0-1.056.159a2.7 2.7 0 0 0-.898.422 2.3 2.3 0 0 0-.607.74 2.2 2.2 0 0 0-.238 1.03v9.217h-2.879v-8.372q0-3.195-2.509-3.196-.528 0-1.056.159a2.7 2.7 0 0 0-.898.422 2.16 2.16 0 0 0-.634.74 2.2 2.2 0 0 0-.238 1.03v9.217zM69.112 152.858h2.879v8.081h.132q.45-1.24 1.453-1.901 1.029-.687 2.403-.687 2.615 0 4.04 1.901 1.427 1.875 1.427 5.282t-1.426 5.309q-1.427 1.875-4.041 1.875-1.374 0-2.403-.687-1.005-.686-1.453-1.901h-.132v2.271h-2.879zm5.995 17.377q1.506 0 2.404-.95.897-.978.898-2.562v-2.377q0-1.585-.898-2.535-.898-.978-2.404-.978-1.32 0-2.218.661-.898.633-.898 1.69v4.701q0 1.056.898 1.717.898.633 2.218.633"/><path fill="#0b1324" d="M93.59 170.13h-.106q-.186.501-.502.977a3.1 3.1 0 0 1-.766.845q-.45.344-1.11.555-.633.211-1.478.211-2.14 0-3.328-1.373-1.162-1.374-1.162-3.935v-8.742h2.879v8.372q0 3.195 2.64 3.195.555 0 1.083-.132a3 3 0 0 0 .925-.449q.422-.29.66-.739.264-.45.264-1.056v-9.191h2.879v13.733h-2.879zM101.118 172.401v-13.733h2.879v2.641h.132q.291-1.056 1.215-1.849t2.562-.792h.765v2.773h-1.135q-1.717 0-2.641.554-.898.555-.898 1.638v8.768zM123.309 173.695q0 2.139-1.637 3.222T116.337 178q-1.69 0-2.879-.238-1.161-.211-1.927-.634-.74-.422-1.083-1.03-.344-.606-.344-1.399 0-1.135.608-1.77.633-.633 1.743-.871v-.291q-1.558-.502-1.558-2.113 0-1.056.713-1.611.712-.58 1.716-.818v-.106q-1.214-.58-1.875-1.611-.633-1.056-.634-2.456 0-2.113 1.4-3.407 1.427-1.294 4.067-1.294 1.453 0 2.483.422v-.369q0-.925.422-1.426.45-.53 1.374-.529h2.113v2.324h-2.8v.555a4.1 4.1 0 0 1 1.426 1.585q.502.95.502 2.139 0 2.087-1.426 3.38-1.427 1.268-4.067 1.268-1.004 0-1.796-.211-.528.184-.924.528a1.02 1.02 0 0 0-.397.845q0 .555.502.792.502.238 1.426.238h3.381q2.535 0 3.671 1.03 1.135 1.004 1.135 2.773m-2.693.317q0-.713-.555-1.136-.529-.422-1.954-.422h-4.649q-.95.555-.95 1.584 0 .846.66 1.347.687.53 2.298.529h1.796q3.354 0 3.354-1.902m-4.305-8.398q1.267 0 1.954-.555.713-.58.713-1.769v-.529q0-1.188-.713-1.743-.687-.58-1.954-.581-1.268 0-1.981.581-.687.555-.687 1.743v.529q0 1.188.687 1.769.713.555 1.981.555"/></svg>