<svg xmlns="http://www.w3.org/2000/svg" xml:space="preserve" width="175" height="41" style="fill-rule:evenodd;clip-rule:evenodd;stroke-linejoin:round;stroke-miterlimit:2" viewBox="0 0 153 36"><path d="M0 0h34.933v35.7H0z" style="fill:var(--svg-hover-color,#65aac2)"/><path d="M39.488.171h7.983V12.7h8.754V.171h8.137l.001 35.7h-8.138V21.279h-8.754v14.417h-7.983z" style="fill:var(--svg-hover-color,#a5a5a5);fill-rule:nonzero"/><path d="M68.579.171h8.138v35.7h-8.138z" style="fill:var(--svg-hover-color,#a5a5a5)"/><path d="M79.175.171h7.679l2.763 19.908L93.608.171h7.679l3.992 19.908L108.042.171h7.675l-5.68 35.7h-7.829L97.6 13.387l-4.604 22.484h-7.834z" style="fill:var(--svg-hover-color,#65aac2);fill-rule:nonzero"/><path d="M115.563.171h7.679l2.762 19.908L129.996.171h7.679l3.992 19.908L144.429.171h7.679l-5.683 35.7h-7.829l-4.609-22.484-4.604 22.484h-7.829l-5.992-35.7Z" style="fill:var(--svg-hover-color,#65aac2);fill-rule:nonzero"/></svg>