<?xml version="1.0" encoding="UTF-8" standalone="no"?><!DOCTYPE svg PUBLIC "-//W3C//DTD SVG 1.1//EN" "http://www.w3.org/Graphics/SVG/1.1/DTD/svg11.dtd"><svg width="100%" height="100%" viewBox="0 0 153 36" version="1.1" xmlns="http://www.w3.org/2000/svg" xmlns:xlink="http://www.w3.org/1999/xlink" xml:space="preserve" xmlns:serif="http://www.serif.com/" style="fill-rule:evenodd;clip-rule:evenodd;stroke-linejoin:round;stroke-miterlimit:2;"><g id="Artboard1"><g><rect x="-0" y="0" width="34.933" height="35.7" style="fill:var(--svg-hover-color,#65aac2);"/><path d="M39.488,0.171l7.983,-0l-0,12.529l8.754,0l0,-12.529l8.137,-0l0.001,35.7l-8.138,-0l0,-14.592l-8.754,0l-0,14.417l-7.983,-0l-0,-35.525Z" style="fill:var(--svg-hover-color,#a5a5a5);fill-rule:nonzero;"/><rect x="68.579" y="0.171" width="8.138" height="35.7" style="fill:var(--svg-hover-color,#a5a5a5);"/><path d="M79.175,0.171l7.679,-0l2.763,19.908l3.991,-19.908l7.679,-0l3.992,19.908l2.763,-19.908l7.675,-0l-5.68,35.7l-7.829,-0l-4.608,-22.484l-4.604,22.484l-7.834,-0l-5.987,-35.7Z" style="fill:var(--svg-hover-color,#65aac2);fill-rule:nonzero;"/><path d="M115.563,0.171l7.679,-0l2.762,19.908l3.992,-19.908l7.679,-0l3.992,19.908l2.762,-19.908l7.679,-0l-5.683,35.7l-7.829,-0l-4.609,-22.484l-4.604,22.484l-7.829,-0l-5.992,-35.7Z" style="fill:var(--svg-hover-color,#65aac2);fill-rule:nonzero;"/></g></g></svg>