<svg xmlns="http://www.w3.org/2000/svg" xml:space="preserve" width="89" height="64" style="fill-rule:evenodd;clip-rule:evenodd;stroke-linejoin:round;stroke-miterlimit:2" viewBox="0 0 591 424"><path d="M9.842 390.917h3.041v17.325c0 1.275.113 2.925.45 3.712.488 1.129 1.875 2.517 5.025 2.517 2.138 0 3.746-.567 4.538-1.617.862-1.158.971-2.287.971-4.012v-17.925h3.037v18.3c0 3.112-.412 4.579-1.95 5.887-1.575 1.35-3.637 1.992-6.75 1.992-3.975 0-6.225-1.163-7.612-3.717-.675-1.237-.75-2.883-.75-4.012zM32.125 398.3l2.85-.783s.675 1.387.675 2.925c1.95-1.95 3.904-2.888 5.888-2.888 2.025 0 3.825 1.088 4.579 2.738.296.675.446 1.425.446 2.17v14.175H43.6V404c0-1.988-.15-2.475-.675-3.113-.412-.483-1.2-.783-2.062-.783-1.496 0-3.825 1.2-5.175 2.625v13.913h-2.85v-14.4c0-2.663-.713-3.942-.713-3.942M51.596 398.042l3.037-.488v19.088h-3.037zm1.575-8.138a2.27 2.27 0 0 1 2.287 2.288 2.267 2.267 0 0 1-2.287 2.287c-1.275 0-2.288-1.008-2.288-2.25 0-1.275 1.013-2.325 2.288-2.325M58.112 398.113l3.001-.634 4.35 12.863c.525 1.537.9 3.187.9 3.187h.079s.296-1.462.9-3.15l4.27-12.412h3.113l-7.013 18.858h-2.887zM84.571 399.767c1.425 0 2.733.637 3.375 1.65.562.904.825 2.141.862 4.162h-8.55c.146-3.862 1.65-5.812 4.313-5.812m1.196 14.846c-1.871 0-3.596-.671-4.646-2.288-.633-.971-.863-2.325-.863-4.083v-.45h11.663v-.413c0-4.462-.525-6.225-2.142-7.879-1.275-1.308-3.037-2.021-5.062-2.021-2.246 0-4.084.821-5.584 2.588-1.579 1.871-2.254 3.9-2.254 7.046 0 6.187 3.117 9.937 8.292 9.937 2.396 0 4.646-.821 6.296-2.325l-1.125-1.875c-1.313 1.204-2.771 1.763-4.575 1.763M96.083 398.263l2.921-.784s.717 1.463.604 3.038c1.35-1.913 3.338-3.113 5.25-3.113.488 0 1.013.188 1.013.188l-1.2 3.191a2.4 2.4 0 0 0-.825-.15c-1.125 0-2.25.488-3.113 1.35-.862.863-1.087 1.425-1.087 2.963v11.7h-2.925v-14.4c-.004-2.746-.638-3.984-.638-3.984ZM120.046 398.754l-1.092 2.175c-1.65-.787-3.037-1.35-4.687-1.35-2.138 0-3.525 1.238-3.525 3.075 0 1.425.712 2.288 2.7 2.696l2.475.525c3.375.713 4.987 2.438 4.987 5.213 0 3.637-2.854 6.112-7.05 6.112-2.362 0-4.95-.712-6.862-1.871l1.129-2.175c1.912 1.163 3.862 1.763 5.925 1.763 2.287 0 3.787-1.238 3.787-3.221 0-1.688-.941-2.629-3.075-3.075l-2.325-.488c-3.075-.637-4.725-2.55-4.725-5.137 0-3.375 2.734-5.738 6.638-5.738 1.946-.008 4.125.596 5.7 1.496M125.217 398.042l3.037-.488v19.088h-3.037zm1.575-8.138a2.274 2.274 0 0 1 2.291 2.288 2.27 2.27 0 0 1-2.291 2.287c-1.275 0-2.288-1.008-2.288-2.25 0-1.275 1.013-2.325 2.288-2.325M142.683 397.967l-.904 2.208h-3.9v12.042c0 2.062.563 2.775 2.4 2.775.821 0 1.309-.113 1.834-.379l.416 1.875c-.941.487-1.992.754-3.3.754-.975 0-1.725-.192-2.437-.525-1.313-.638-1.804-1.838-1.804-3.717v-12.825h-2.438v-2.208h2.438c0-1.804.3-4.729.3-4.729l3.075-.675s-.375 2.924-.375 5.404zM155.367 412.029c-.863 1.763-2.63 2.921-4.542 2.921-2.137 0-3.221-1.2-3.221-3.408 0-2.854 1.688-4.463 6.413-4.463.525 0 .97.038 1.462.075zm-8.813-18.675c0 1.088.863 1.988 1.95 1.988 1.088 0 1.913-.9 1.913-1.988 0-1.05-.863-1.912-1.95-1.912a1.92 1.92 0 0 0-1.913 1.912m7.721 0c0 1.088.9 1.988 1.992 1.988 1.05 0 1.912-.9 1.912-1.988 0-1.05-.9-1.912-1.95-1.912-1.092 0-1.954.862-1.954 1.912m-7.8 8.734c1.204-1.088 3.867-2.209 5.967-2.209 1.158 0 1.912.334 2.512 1.009.525.604.604 1.279.604 2.925v1.312s-.525-.037-1.312-.037c-6.263 0-9.9 2.475-9.9 6.708 0 2.517 1.387 5.325 6 5.325 2.137 0 3.596-.713 5.4-2.517.337 1.313 1.275 2.329 2.546 2.738l1.5-2.1c-1.388-.75-1.575-1.538-1.5-4.575l.15-6.154c.037-1.684 0-3.113-.413-4.121-.787-1.913-2.587-2.925-5.175-2.925-2.696 0-5.362.862-7.837 2.512zM172.2 397.967l-.9 2.208h-3.9v12.042c0 2.062.563 2.775 2.4 2.775.821 0 1.308-.113 1.833-.379l.417 1.875c-.942.487-1.992.754-3.3.754-.975 0-1.725-.192-2.442-.525-1.308-.638-1.8-1.838-1.8-3.717v-12.825h-2.437v-2.208h2.437c0-1.804.3-4.729.3-4.729l3.075-.675s-.379 2.924-.379 5.404zM194.854 411.879s-.337.784-1.129 1.346c-1.2.862-2.063 1.2-3.6 1.2-1.721 0-2.883-.633-3.746-2.171-.604-1.087-.75-2.7-.75-4.875 0-2.625.296-3.975 1.196-5.4.787-1.279 2.025-1.954 3.492-1.954 2.208 0 3.596.637 4.537 1.954zm.034-22.616v7.841c0 1.346.037 2.883.037 2.883-1.125-1.495-2.962-2.358-5.063-2.358-1.35 0-2.4.338-3.6 1.159-2.545 1.762-3.862 4.687-3.862 8.662 0 5.967 2.775 9.454 7.612 9.454 2.171 0 3.6-.637 4.951-2.175.041.975.416 1.913.416 1.913h3c-.412-1.088-.562-2.813-.562-6.038v-20.85zM210.075 399.767c1.425 0 2.733.637 3.375 1.65.563.904.825 2.141.863 4.162h-8.551c.15-3.862 1.65-5.812 4.313-5.812m1.2 14.846c-1.875 0-3.6-.671-4.65-2.288-.633-.971-.862-2.325-.862-4.083v-.45h11.662v-.413c0-4.462-.525-6.225-2.137-7.879-1.28-1.308-3.038-2.021-5.063-2.021-2.25 0-4.088.821-5.588 2.588-1.575 1.871-2.25 3.9-2.25 7.046 0 6.187 3.113 9.937 8.288 9.937 2.4 0 4.646-.821 6.296-2.325l-1.125-1.875c-1.313 1.204-2.767 1.763-4.571 1.763M221.588 398.263l2.924-.784s.713 1.463.6 3.038c1.35-1.913 3.338-3.113 5.25-3.113.488 0 1.013.188 1.013.188l-1.2 3.191a2.4 2.4 0 0 0-.821-.15c-1.129 0-2.25.488-3.112 1.35s-1.092 1.425-1.092 2.963v11.7h-2.921v-14.4c-.004-2.746-.642-3.984-.642-3.984ZM249.108 393.504c1.313 0 2.1.038 2.817.225 1.763.45 2.921 2.025 2.921 4.05a5 5 0 0 1-.413 1.992c-.75 1.725-1.725 2.212-4.5 2.212h-4.462v-8.475h3.637zm-6.608 23.138h6.65c3.825 0 4.796-.225 6.183-.75 2.517-.975 4.013-3.488 4.013-6.305 0-1.87-.633-3.97-2.325-5.25-.863-.675-1.8-1.05-3.379-1.35 2.925-.937 4.612-2.962 4.612-5.624 0-2.625-1.762-4.988-4.387-5.888-1.313-.446-2.55-.563-7.65-.563H242.5zm7.508-12.117c1.28 0 2.292.113 3.005.263 1.833.375 3.112 2.287 3.112 4.537 0 3.075-1.387 4.8-5.175 4.8h-5.475v-9.604h4.533zM263.446 398.113l2.887-.563v13.425c0 1.767.263 2.55 1.125 3.154.604.413 1.463.633 2.288.633 1.837 0 3.75-1.345 4.762-3.375V398.15l2.888-.488v13.613c0 2.362.337 3.3 1.275 4.162l-1.871 1.992c-1.242-1.012-1.762-1.767-2.025-3.004-1.425 1.912-3.375 2.854-5.925 2.854-2.363 0-4.125-1.012-4.913-2.667-.337-.712-.487-1.683-.487-2.775v-13.724zM282.871 398.3l2.85-.783s.675 1.387.675 2.925c1.95-1.95 3.9-2.888 5.887-2.888 2.021 0 3.825 1.088 4.575 2.738.3.675.45 1.425.45 2.17v14.175h-2.962V404c0-1.988-.15-2.475-.675-3.113-.417-.483-1.2-.783-2.063-.783-1.5 0-3.825 1.2-5.175 2.625v13.913h-2.85v-14.4c0-2.663-.712-3.942-.712-3.942M314.071 411.879s-.338.784-1.129 1.346c-1.2.862-2.059 1.2-3.596 1.2-1.725 0-2.888-.633-3.75-2.171-.6-1.087-.75-2.7-.75-4.875 0-2.625.296-3.975 1.2-5.4.783-1.279 2.021-1.954 3.487-1.954 2.209 0 3.596.637 4.538 1.954zm.037-22.616v7.841c0 1.346.038 2.883.038 2.883-1.125-1.495-2.963-2.358-5.063-2.358-1.35 0-2.4.338-3.6 1.159-2.546 1.762-3.862 4.687-3.862 8.662 0 5.967 2.775 9.454 7.612 9.454 2.175 0 3.6-.637 4.95-2.175.038.975.413 1.913.413 1.913h3c-.413-1.088-.563-2.813-.563-6.038v-20.85zM329.292 399.767c1.425 0 2.733.637 3.375 1.65.562.904.825 2.141.862 4.162h-8.546c.15-3.862 1.646-5.812 4.309-5.812m1.195 14.846c-1.87 0-3.595-.671-4.641-2.288-.638-.971-.863-2.325-.863-4.083v-.45h11.659v-.413c0-4.462-.525-6.225-2.138-7.879-1.279-1.308-3.037-2.021-5.067-2.021-2.25 0-4.079.821-5.583 2.588-1.575 1.871-2.25 3.9-2.25 7.046 0 6.187 3.113 9.937 8.283 9.937 2.4 0 4.65-.821 6.3-2.325l-1.125-1.875c-1.308 1.204-2.77 1.763-4.575 1.763M353.317 398.754l-1.088 2.175c-1.65-.787-3.037-1.35-4.687-1.35-2.138 0-3.525 1.238-3.525 3.075 0 1.425.712 2.288 2.696 2.696l2.479.525c3.375.713 4.983 2.438 4.983 5.213 0 3.637-2.85 6.112-7.046 6.112-2.362 0-4.95-.712-6.862-1.871l1.129-2.175c1.912 1.163 3.862 1.763 5.925 1.763 2.287 0 3.787-1.238 3.787-3.221 0-1.688-.941-2.629-3.075-3.075l-2.325-.488c-3.075-.637-4.729-2.55-4.729-5.137 0-3.375 2.738-5.738 6.642-5.738 1.946-.008 4.121.596 5.696 1.496M356.204 398.113l2.925-.634 3 12.338c.413 1.725.675 3.112.675 3.112h.113s.262-1.35.633-2.7l3.342-12.258h3.187l3.263 12.412c.262 1.013.75 2.738.75 2.738h.075s.379-1.838.566-2.588l2.963-12.562h3.071l-5.288 18.825h-2.887l-3.713-13.125c-.337-1.238-.525-2.063-.525-2.063h-.075s-.229 1.313-.417 1.913l-3.745 13.279h-2.738zM390.329 399.767c1.425 0 2.734.637 3.375 1.65.563.904.821 2.141.863 4.162h-8.55c.15-3.862 1.646-5.812 4.312-5.812m1.196 14.846c-1.871 0-3.596-.671-4.646-2.288-.637-.971-.862-2.325-.862-4.083v-.45h11.658v-.413c0-4.462-.521-6.225-2.133-7.879-1.279-1.308-3.038-2.021-5.067-2.021-2.25 0-4.083.821-5.587 2.588-1.575 1.871-2.25 3.9-2.25 7.046 0 6.187 3.112 9.937 8.287 9.937 2.4 0 4.646-.821 6.3-2.325l-1.125-1.875c-1.317 1.204-2.775 1.763-4.575 1.763M401.988 389.788l2.92-.563s.488 1.575.488 4.429v4.35c0 1.2-.108 2.546-.108 2.546 1.683-1.575 3.825-2.962 6.22-2.962 2.25 0 4.275 1.237 4.8 2.962.225.754.3 1.35.3 2.7v13.387h-2.887v-12.899c0-1.388-.188-2.251-.713-2.775-.445-.451-1.237-.755-2.171-.755-1.804 0-3.825 1.163-5.441 3.154v13.275h-2.921v-23.024c0-2.438-.488-3.825-.488-3.825ZM421.558 398.263l2.925-.784s.713 1.463.605 3.038c1.345-1.913 3.337-3.113 5.25-3.113.487 0 1.012.188 1.012.188l-1.2 3.191a2.4 2.4 0 0 0-.825-.15c-1.129 0-2.25.488-3.112 1.35s-1.088 1.425-1.088 2.963v11.7H422.2v-14.4c-.004-2.746-.642-3.984-.642-3.984ZM442.483 390.917h3v10.762h10.838v-10.762h3.075v25.725h-3.075v-12.45h-10.838v12.45h-3zM475.183 412.029c-.862 1.763-2.625 2.921-4.537 2.921-2.138 0-3.225-1.2-3.225-3.408 0-2.854 1.687-4.463 6.412-4.463.525 0 .975.038 1.467.075zm-8.887-9.941c1.2-1.088 3.862-2.209 5.962-2.209 1.163 0 1.913.334 2.517 1.009.525.604.6 1.279.6 2.925v1.312s-.525-.037-1.312-.037c-6.263 0-9.9 2.474-9.9 6.708 0 2.517 1.387 5.325 6 5.325 2.137 0 3.6-.713 5.4-2.517.337 1.313 1.275 2.329 2.55 2.738l1.495-2.1c-1.387-.75-1.575-1.538-1.495-4.575l.15-6.154c.037-1.684 0-3.113-.417-4.121-.783-1.913-2.588-2.925-5.175-2.925-2.696 0-5.358.862-7.838 2.512zM483.358 398.192l2.85-.675s.675 1.462.675 2.775c1.238-1.388 3.529-2.813 5.442-2.813 1.833 0 3.675 1.125 4.35 3.113 1.8-1.913 4.083-3.113 5.996-3.113 2.775 0 4.687 2.1 4.687 5.063v14.1h-3v-13.8c0-1.804-.825-2.738-2.4-2.738-1.687 0-3 1.088-4.95 2.884v13.649h-2.962v-13.275c0-1.129-.113-1.875-.529-2.399-.446-.526-1.05-.755-1.913-.755-1.425 0-2.812.717-4.762 2.479v13.95h-2.813v-14.47c.004-2.7-.671-3.975-.671-3.975M515.904 402.654c1.013-1.387 2.854-2.441 4.683-2.441 1.467 0 2.817.604 3.534 1.616.783 1.088 1.083 2.546 1.083 5.025 0 3.15-.633 4.984-1.308 5.996-.675.975-2.1 1.65-3.375 1.65-1.763 0-3.638-.975-4.613-2.25v-9.596zm-2.883-9.041v18.375c0 2.516-.15 3.75-.563 4.65h2.921c.379-.75.45-1.238.525-2.025 1.05 1.387 3.192 2.479 5.138 2.479 4.458 0 7.421-4.054 7.421-10.05 0-5.85-2.775-9.488-7.234-9.488-1.987 0-3.525.713-5.362 2.517 0 0 .079-1.129.079-2.063v-4.35c0-2.854-.488-4.429-.488-4.429l-2.925.563c0-.004.488 1.383.488 3.821M532.854 398.113l2.888-.563v13.425c0 1.767.262 2.55 1.125 3.154.604.413 1.466.633 2.287.633 1.838 0 3.75-1.345 4.767-3.375V398.15l2.883-.488v13.613c0 2.362.338 3.3 1.279 4.162l-1.875 1.992c-1.237-1.012-1.762-1.767-2.025-3.004-1.425 1.912-3.375 2.854-5.925 2.854-2.358 0-4.125-1.012-4.912-2.667-.338-.712-.488-1.683-.488-2.775v-13.724zM552.35 398.263l2.925-.784s.712 1.463.604 3.038c1.346-1.913 3.338-3.113 5.25-3.113.488 0 1.013.188 1.013.188l-1.2 3.191a2.4 2.4 0 0 0-.825-.15c-1.125 0-2.25.488-3.113 1.35-.862.863-1.087 1.425-1.087 2.963v11.7h-2.925v-14.4c0-2.746-.642-3.984-.642-3.984ZM573.983 403.742c0 2.512-1.125 3.745-3.375 3.745-2.362 0-3.6-1.237-3.6-3.637 0-2.583 1.2-3.783 3.529-3.783 2.471 0 3.446 1.125 3.446 3.675m2.325-5.104c-2.287 0-2.854-1.05-5.7-1.05-4.087 0-6.9 2.55-6.9 6.304 0 2.475 1.688 4.608 4.2 5.4-2.546.783-3.375 1.683-3.375 3.187 0 1.688 1.313 2.7 3.525 2.7.605 0 2.142-.041 2.888-.041 1.837 0 2.962.191 3.675.675.675.45 1.012 1.237 1.012 2.25 0 2.329-1.65 3.262-4.537 3.262-1.5 0-2.888-.337-3.788-.862-.675-.413-1.087-1.2-1.087-2.171 0-.604.262-1.279.525-1.688l-3.075.263c-.263.754-.375 1.312-.375 1.991 0 2.663 2.25 4.763 8.1 4.763 4.537 0 7.421-1.833 7.421-5.888 0-1.612-.6-2.92-2.063-3.933-1.125-.787-2.325-1.05-4.496-1.05h-3.004c-.937 0-1.496-.337-1.496-.904 0-.633.863-1.275 3.375-2.171 1.35 0 2.55-.225 3.488-.825 1.725-1.087 2.775-3.037 2.775-5.133 0-1.2-.375-2.25-1.125-3.192.337.15.783.229 1.275.229 1.125 0 1.987-.3 3.15-1.129l-1.8-1.8c-.896.592-1.613.813-2.588.813M15.554 276.283v-33.87c0-1.409-.508-2.45-1.521-3.109-.483-.35-1.387-.683-2.708-.991-1.012-.221-1.521-.505-1.521-.863 0-.487.354-.725 1.059-.725q1.255.001 3.666.146c1.613.096 2.809.146 3.6.146.709 0 1.742-.05 3.109-.146 1.362-.096 2.379-.146 3.037-.146q1.258.001 1.258.658c0 .309-.42.58-1.254.788-1.054.308-2.387.642-2.829 1-.833.7-1.25 1.783-1.25 3.237V256.7c0 .788.329 1.188.988 1.188h25.333c.35 0 .529-.634.529-1.921v-13.559c0-1.325-.421-2.32-1.254-2.979-.433-.308-1.838-.658-3.025-1.058q-1.252-.393-1.254-.929c0-.488.375-.725 1.129-.725q1.187.001 3.762.146 2.577.144 3.109.145c.925 0 1.858-.05 2.808-.145q1.425-.145 1.95-.146c1.233 0 1.85.35 1.85 1.058 0 .267-.375.504-1.125.725q-1.527.402-2.183.929c-.755.659-1.125 1.65-1.125 2.979v35.059c0 1.416.525 2.475 1.583 3.183.483.308 1.438.658 2.846 1.058 1.058.309 1.592.659 1.592 1.059 0 .529-.246.787-.73.787q-.793-.001-2.875-.146-2.081-.144-3.337-.145c-1.671 0-3.271.05-4.788.145q-2.28.145-2.541.146c-1.063 0-1.588-.283-1.588-.854q.001-.602 1.184-1.067c1.137-.391 2.479-.725 2.829-.983.783-.667 1.183-1.596 1.183-2.783v-17.15q-.07-.4-.596-.4H20.992q-.788 0-.788 1.125v16.487q.001 1.918 1.646 2.85c.354.221 1.933.546 3.558.992q1.645.461 1.646 1.254c0 .358-.354.529-1.058.529q-.068-.001-3.567-.146t-5.617-.146q-2.91.001-4.495.146-1.588.145-1.188.146c-.483 0-.729-.325-.729-.992 0-.437.442-.787 1.325-1.058 1.188-.3 2.021-.683 2.513-1.125.874-.833 1.316-2.2 1.316-4.096M74.742 249.388v10.562c0 .983.087 1.554.258 1.7q.25.23 1.9.229h6.121q2.606-.001 3.8-1.196c.487-.454.867-1.187 1.129-2.17.225-.796.488-1.205.792-1.205q.62-.002.621 1.084c0 .683-.021 1.65-.059 2.912a110 110 0 0 0-.058 2.809c0 .495.021 1.229.058 2.212s.059 1.742.059 2.263c0 .495-.213.741-.621.741q-.626.001-.909-1.304-.398-1.806-.791-2.375c-.567-.862-1.534-1.304-2.892-1.304h-8.388c-.529 0-.854.196-.962.571-.042.154-.058.571-.058 1.245v10.434c0 2.008.129 3.212.396 3.629.454.725 1.758 1.083 3.908 1.083 3.858 0 7.104-.512 9.75-1.537q2.724-1.027 4.479-2.784 1.587-1.537 1.529-1.537.45.001.45.683-.001 2.393-2.833 5.517-1.243 1.366-2.55 1.708-.738.22-3 .221c-1.171 0-3.329-.058-6.467-.187-2.721-.084-4.871-.096-6.458-.067q-.682 0-3.458.129a62 62 0 0 1-3.459.121q-.847 0-.846-.563c.038-.3.375-.608 1.013-.912q.729-.281 1.471-.563c.675-.341 1.129-.929 1.354-1.766.15-.604.225-1.659.225-3.175v-25.879c0-1.742-.129-2.946-.396-3.63q-.627-1.818-2.654-2.1c-1.129-.3-1.696-.604-1.696-.904q0-.682 1.988-.683c4.266 0 7.979.05 11.133.129q4.736.123 4.908.121c.334 0 1.613-.042 3.821-.121 2.213-.083 3.638-.129 4.279-.129.379 0 .567.425.567 1.254 0 4.508-.379 6.754-1.129 6.754-.492 0-.779-.504-.85-1.529q-.118-1.917-.513-2.492c-.604-.829-2.116-1.333-4.533-1.52-.492-.042-2.192-.059-5.1-.059-2.767 0-4.338.121-4.738.367-.391.25-.591 1.325-.591 3.212ZM111.625 249.021v27.571c0 2.008.129 3.212.396 3.629.454.725 1.758 1.083 3.908 1.083 3.858 0 7.104-.512 9.754-1.537q2.72-1.027 4.475-2.784 1.59-1.537 1.529-1.537.456.001.455.683 0 2.392-2.838 5.517-1.245 1.366-2.546 1.708c-.491.146-1.491.221-3.008.221-1.171 0-3.325-.058-6.458-.188a137 137 0 0 0-6.467-.066q-.682-.001-3.458.129a62 62 0 0 1-3.455.121c-.57 0-.85-.188-.85-.563.038-.3.375-.608 1.017-.912l1.467-.563q1.017-.511 1.354-1.766c.15-.605.229-1.659.229-3.175v-28.759c0-1.129-.792-1.979-2.371-2.521-1.583-.545-2.371-.937-2.371-1.162 0-.488.38-.742 1.13-.742.262 0 1.02.05 2.266.129a52 52 0 0 0 7.088 0c1.129-.083 1.737-.129 1.812-.129q1.08.001 1.079.796.001.449-1.079.742-1.363.392-1.987.904c-.717.679-1.071 1.737-1.071 3.171M176.938 250.217l.766 28.141c.038 1.367.454 2.329 1.254 2.896q.457.342 2.113.733 1.142.294 1.142 1.025 0 .563-1.363.563-.394-.001-2.208-.121a44 44 0 0 0-3.117-.129q-.91 0-2.608.129c-1.129.083-1.929.121-2.379.121-.417 0-.621-.171-.621-.504q-.002-.625.908-1.025c.908-.375 1.492-.7 1.758-.958q.907-.855.85-2.671l-.6-22.013c-.037-1.475-.25-2.204-.62-2.204q-.626-.001-1.475 1.692l-11.725 23.925q-1.417 2.832-1.759 2.833c-.229 0-.608-.546-1.129-1.646l-12.067-25.275q-.285-.625-.679-.625c-.229 0-.358.284-.4.846l-.662 19.913q-.112 3.291 1.187 4.77c.496.53 1.342.946 2.554 1.246.905.267 1.359.625 1.359 1.084 0 .416-.471.616-1.417.616q-.23 0-2.125-.121c-1.271-.087-2.221-.129-2.867-.129q-1.7 0-3.175.129c-.983.084-1.566.121-1.758.121-.379 0-.567-.221-.567-.675q.001-.68.959-.966c.866-.263 1.475-.563 1.816-.905.717-.716 1.13-1.929 1.246-3.629.3-3.937.604-7.887.904-11.866.3-3.817.45-6.959.45-9.417 0-3.9-.47-6.771-1.412-8.625-.571-1.171-1.417-1.979-2.546-2.433q-1.418-.513-1.417-1.025 0-.625.963-.625c.342 0 .85.05 1.529.129q1.024.123 1.592.121c.337 0 .85-.042 1.529-.121s1.192-.129 1.533-.129c.338 0 .588.179.734.545.15.359.304.709.454 1.042l13.483 28.808c.533 1.138.95 1.7 1.25 1.7.15 0 .737-1.016 1.758-3.058l13.488-27.108q.956-1.93 1.475-1.929c.187 0 .658.05 1.412.129a26 26 0 0 0 1.25.121c.45 0 .954-.042 1.5-.121.55-.084.954-.129 1.221-.129.375 0 .567.229.567.683 0 .417-.379.725-1.129.912-1.021.23-1.742.563-2.159 1.017q-1.07 1.24-1.021 4.192ZM197.658 248.054v20.363c0 4.346 1.305 7.666 3.9 9.971 2.375 2.158 5.584 3.237 9.617 3.237q13.052-.001 13.054-13.721v-18.367c0-1.658-.45-2.841-1.35-3.516q-.624-.512-2.537-.904-1.35-.345-1.35-1.138c0-.375.187-.571.566-.571.759 0 1.871.05 3.346.129q2.212.12 3.288.121.568 0 1.587-.121c.679-.079 1.188-.129 1.534-.129.487 0 .733.213.733.625 0 .384-.279.7-.85.959q-1.189.576-1.646 1.195c-.567.759-.85 1.888-.85 3.4v17.588c0 11.183-5.267 16.779-15.796 16.779q-10.199 0-14.441-5.275-3.288-4.03-3.288-11.792v-19.116q-.001-1.42-1.196-2.042c-.15-.112-.896-.358-2.221-.742-.8-.187-1.2-.52-1.2-1.016 0-.375.417-.571 1.25-.571.488 0 1.217.05 2.18.129q1.443.12 2.237.121.91-.001 2.721-.121c1.208-.079 2.096-.129 2.667-.129 1.208 0 1.816.196 1.816.571 0 .383-.321.658-.954.854-.938.262-1.55.504-1.85.733-.646.5-.967 1.329-.967 2.496M251.363 278.646v-29.525q-.001-2.613-.571-2.613h-9.259q-2.447.001-3.296.796-.511.575-1.362 3.2-.396 1.308-.954 1.309c-.371 0-.563-.23-.563-.684l.621-5.508.167-1.358c.154-.571.433-.855.854-.855 1.246 0 3.567.05 6.971.13 3.396.083 6.441.12 9.125.12 4.196 0 8.104-.041 11.733-.12 3.625-.084 5.25-.13 4.871-.13.642 0 1.071.113 1.279.342q.312.345.367 1.308l.283 4.542c.042.829-.171 1.246-.621 1.246-.525 0-.829-.375-.904-1.138-.112-1.025-.304-1.708-.567-2.058q-.85-1.137-3.337-1.137h-8.088q-1.867 0-2.066.262c-.129.171-.196 1.008-.196 2.521v28.954c0 1.358.392 2.346 1.179 2.954.375.263 1.108.529 2.192.788.787.195 1.183.495 1.183.912 0 .454-.171.675-.512.675q-.624-.001-2.18-.121-1.56-.13-2.408-.129-2.831.002-4.762.067-1.362.063-3.005.187-.68 0-.679-.733c0-.342.379-.658 1.138-.967 1.133-.375 1.875-.675 2.216-.904.771-.579 1.15-1.35 1.15-2.333ZM295.779 280.842l-1.421-7.317q-.338-1.757.63-1.758c.337 0 .583.162.737.504l.346 1.358c.487 1.888 1.583 3.621 3.279 5.208 2.304 2.188 5.167 3.288 8.604 3.288q4.349 0 7.354-2.271c2.184-1.629 3.28-3.85 3.28-6.687q0-4.47-5.938-6.634c-3.7-1.246-7.387-2.491-11.087-3.733-3.959-1.971-5.942-5.046-5.942-9.238 0-3.4 1.292-6.087 3.854-8.05 2.308-1.741 5.213-2.612 8.725-2.612q3.001 0 5.321.512 1.533.344 2.892 1.025c.754.342 1.183.513 1.304.513q.224-.001.566-.308.339-.318.621-.317c.375 0 .609.267.679.796l.85 7.708c.08.571-.133.854-.62.854-.421 0-.813-.571-1.188-1.7q-1.244-3.575-4.1-5.475-2.856-1.895-6.7-1.896c-2.492 0-4.587.571-6.279 1.7-1.963 1.359-2.946 3.255-2.946 5.671 0 2.871 1.988 5.029 5.942 6.463 3.7 1.287 7.387 2.554 11.087 3.8 3.954 2.116 5.938 5.387 5.938 9.808 0 3.029-1.096 5.592-3.284 7.717-2.837 2.791-7.141 4.191-12.925 4.191-1.966 0-4.066-.399-6.291-1.187-2.079-.721-3.175-1.362-3.288-1.933M327.254 264.225c0-5.967 1.929-11.021 5.784-15.138s8.733-6.183 14.625-6.183c3.137 0 5.912.383 8.329 1.138a21 21 0 0 1 4.6 2.1c1.25.758 2.02 1.137 2.325 1.137q.224-.001.654-.283c.279-.188.517-.284.704-.284.304 0 .492.3.575.913.075.417.146 1.646.221 3.679q.056.791.175 2.159c.033.758.054 1.287.054 1.587 0 .758-.192 1.129-.567 1.129-.262 0-.529-.262-.791-.787a8 8 0 0 1-.509-1.084c-1.891-3.254-3.895-5.633-6.012-7.145q-3.63-2.613-8.842-2.613c-5.366 0-9.483 1.667-12.354 4.988-2.687 3.141-4.029 7.445-4.029 12.925q.001 7.993 4.196 13.55c3.096 4.125 7.212 6.175 12.354 6.175 3.967 0 7.521-1.059 10.662-3.167q3.796-2.549 4.646-5.104c.15-.488.417-.742.796-.742.446 0 .617.213.508.625l-1.304 5.671q-.225.911-3.625 2.329c-3.441 1.442-7.85 2.158-13.212 2.158-5.859 0-10.65-1.829-14.371-5.5q-5.593-5.494-5.592-14.233M376.417 277.342v-29.054c0-1.205-.434-2.1-1.305-2.671-.42-.3-1.191-.588-2.325-.846-.87-.196-1.304-.438-1.304-.742q0-.625.909-.625c.72 0 1.766.05 3.15.129 1.375.084 2.404.121 3.087.121.604 0 1.488-.041 2.667-.121 1.167-.083 2.037-.129 2.604-.129.717 0 1.079.196 1.079.571 0 .267-.362.496-1.075.683-.904.263-1.541.546-1.921.846q-1.069.914-1.07 2.784v12.254c0 .683.279 1.016.845 1.016h20.713c.3 0 .45-.545.45-1.645v-11.63c0-1.137-.354-1.987-1.071-2.554-.375-.262-1.075-.562-2.092-.904-.716-.229-1.066-.496-1.066-.796 0-.416.316-.625.958-.625.683 0 1.758.05 3.225.129 1.475.084 2.362.121 2.667.121q1.188 0 2.408-.121c.808-.083 1.367-.129 1.671-.129 1.058 0 1.587.309 1.587.913 0 .229-.32.433-.962.625-.871.229-1.496.487-1.871.787-.642.571-.962 1.425-.962 2.554v30.071c0 1.213.45 2.117 1.358 2.725.416.263 1.233.571 2.441.904.909.267 1.359.571 1.359.913 0 .454-.209.675-.621.675-.45 0-1.275-.042-2.463-.121a41 41 0 0 0-2.866-.129c-1.438 0-2.809.041-4.104.129a72 72 0 0 1-2.18.121c-.912 0-1.358-.246-1.358-.734 0-.341.334-.641 1.017-.912.967-.342 1.612-.625 1.912-.846q1.013-.858 1.013-2.383v-14.704c-.042-.23-.208-.342-.508-.342h-20.83q-.675-.002-.675.958v14.146c0 1.1.471 1.904 1.413 2.442.3.187 1.15.471 2.541.846q1.413.398 1.413 1.083c0 .3-.3.446-.908.446q-.058-.001-3.059-.121a114 114 0 0 0-4.821-.129q-2.483-.002-3.854.129c-.904.083-1.246.121-1.016.121-.417 0-.621-.275-.621-.846 0-.375.375-.683 1.133-.904 1.017-.267 1.733-.596 2.154-.967q1.133-1.068 1.134-3.512M462.771 250.217l.762 28.141c.042 1.367.459 2.329 1.259 2.896q.456.342 2.112.733c.767.196 1.142.538 1.142 1.025q0 .563-1.363.563c-.262 0-1.004-.042-2.208-.121a44 44 0 0 0-3.117-.129q-.91 0-2.608.129c-1.133.083-1.929.121-2.379.121-.417 0-.621-.171-.621-.504 0-.417.296-.758.904-1.025.913-.375 1.496-.7 1.759-.958.608-.571.887-1.459.85-2.671l-.596-22.013c-.038-1.475-.25-2.204-.625-2.204q-.624-.001-1.471 1.692l-11.725 23.925c-.946 1.887-1.529 2.833-1.758 2.833s-.609-.546-1.134-1.646l-12.066-25.275q-.287-.625-.68-.625-.337.001-.4.846l-.658 19.913c-.079 2.195.321 3.783 1.188 4.77q.737.796 2.549 1.246c.909.267 1.363.625 1.363 1.084 0 .416-.475.616-1.421.616q-.225 0-2.125-.121c-1.271-.087-2.221-.129-2.862-.129q-1.703 0-3.18.129c-.979.084-1.566.121-1.758.121-.375 0-.566-.221-.566-.675q0-.68.958-.966 1.305-.393 1.817-.905c.716-.716 1.129-1.929 1.25-3.629.295-3.937.6-7.887.904-11.866.3-3.817.45-6.959.45-9.417 0-3.9-.471-6.771-1.417-8.625-.567-1.171-1.417-1.979-2.546-2.433q-1.418-.513-1.417-1.025 0-.625.963-.625c.342 0 .85.05 1.529.129q1.024.123 1.592.121.51-.001 1.533-.121c.679-.084 1.192-.129 1.529-.129.338 0 .588.179.734.545.154.359.308.709.454 1.042l13.487 28.808c.529 1.138.946 1.7 1.25 1.7.15 0 .734-1.016 1.754-3.058l13.488-27.108q.962-1.93 1.475-1.929c.192 0 .658.05 1.417.129q1.13.123 1.25.121c.45 0 .954-.042 1.5-.121.545-.079.954-.129 1.216-.129q.568.001.567.683c0 .417-.375.725-1.129.912-1.025.23-1.742.563-2.159 1.017q-1.067 1.24-1.016 4.192M481.313 277.342v-29.054c0-1.205-.4-2.1-1.2-2.671-.421-.3-1.155-.588-2.221-.846-.796-.196-1.196-.438-1.196-.742 0-.416.192-.625.567-.625.72 0 1.766.05 3.145.129 1.384.084 2.409.121 3.088.121q.911 0 2.666-.121c1.171-.083 2.042-.129 2.609-.129.717 0 1.079.196 1.079.571 0 .342-.358.604-1.071.796-.933.262-1.566.529-1.904.787q-1.068.857-1.067 2.725v30.471c0 1.1.434 1.913 1.292 2.442.338.187 1.142.454 2.421.787q1.295.4 1.296 1.025 0 .563-1.134.563-.511-.001-2.666-.121a60 60 0 0 0-3.517-.129q-2.038 0-3.712.129a104 104 0 0 1-1.73.121c-.791 0-1.187-.275-1.187-.846 0-.375.379-.683 1.133-.904 1.029-.267 1.754-.596 2.171-.967q1.137-1.068 1.138-3.512M508.725 245.596q1.02-.795 4.821-.796 8.335 0 13.621 5.225 5.557 5.406 5.558 14.6c0 6.096-1.612 10.646-4.817 13.629-2.725 2.538-6.362 3.808-10.895 3.808-4.125 0-7.038-.854-8.742-2.554-.229-.229-.338-1.612-.338-4.15v-26.979q-.007-2.21.792-2.783m-6.3 35.604q-.626.68-1.971 1.075-1.012.283-1.012.742-.001.562.566.562.165-.001 3.117-.121c1.967-.087 3.038-.129 3.229-.129.984 0 2.434.042 4.367.129 1.921.084 3.358.121 4.3.121 7.521 0 13.125-2.033 16.829-6.121 3.367-3.741 5.046-9.066 5.046-15.95q0-7.656-6.175-12.987c-3.971-3.4-8.538-5.113-13.708-5.113-1.705 0-3.888.05-6.55.129-2.663.08-4.584.121-5.75.121q-.85 0-2.525-.121c-1.113-.083-1.971-.129-2.575-.129-.525 0-.788.196-.788.571 0 .342.392.604 1.179.796 1.054.262 1.804.617 2.254 1.075.784.725 1.184 1.929 1.184 3.629v28.254c-.005 1.596-.346 2.742-1.017 3.467M556.525 277.796v-34.417q-.001-3.04-.658-3.041h-11.384q-2.851-.001-3.845.929c-.4.446-.93 1.683-1.592 3.729-.304 1.017-.679 1.529-1.113 1.529q-.657-.001-.658-.796l.729-6.421.2-1.587c.171-.667.504-1 .988-1q2.18-.001 8.129.154 5.944.145 10.646.146c4.887 0 9.45-.05 13.675-.146q6.35-.155 5.683-.154c.754 0 1.246.137 1.488.4q.36.401.429 1.521l.333 5.296c.042.975-.196 1.458-.729 1.458-.613 0-.967-.438-1.054-1.325-.129-1.204-.354-2-.659-2.4-.658-.888-1.958-1.325-3.895-1.325h-10.017q-2.179-.001-2.408.292c-.15.195-.234 1.179-.234 2.945v33.767c0 1.588.463 2.733 1.379 3.433.438.309 1.88.617 3.15.93.917.22 1.38.579 1.38 1.058q-.001.795-.596.796c-.488 0-1.334-.05-2.546-.146q-1.82-.145-2.808-.146-3.31 0-5.555.075c-1.058.05-2.22.121-3.5.221-.529 0-.791-.283-.791-.863 0-.391.441-.775 1.325-1.125 1.329-.437 2.783-.787 3.179-1.058.887-.667 1.329-1.571 1.329-2.729M95.088 315.871v20.354q.002 6.519 3.904 9.975c2.371 2.158 5.579 3.233 9.612 3.233q13.058-.001 13.059-13.72v-18.367c0-1.658-.45-2.838-1.35-3.517q-.625-.505-2.538-.904-1.35-.344-1.35-1.133c0-.379.192-.567.567-.567.758 0 1.87.042 3.345.121q2.212.13 3.288.129.568 0 1.588-.129a14 14 0 0 1 1.533-.121q.732 0 .733.621c0 .379-.279.696-.85.962-.792.38-1.337.775-1.646 1.192-.566.758-.85 1.888-.85 3.4v17.583q0 16.786-15.8 16.784-10.193 0-14.441-5.275c-2.188-2.688-3.288-6.617-3.288-11.796v-19.113c0-.945-.4-1.629-1.192-2.041q-.23-.17-2.225-.738-1.194-.282-1.195-1.021 0-.567 1.245-.566c.492 0 1.217.041 2.184.12.958.088 1.708.13 2.237.13q.904.001 2.721-.13c1.204-.083 2.096-.12 2.663-.12 1.208 0 1.816.187 1.816.566q.002.57-.954.85-1.405.394-1.854.738c-.646.5-.963 1.329-.963 2.5ZM140.404 343.338v-20.934q-.002-5.162-1.754-7.55c-.754-.946-1.858-1.608-3.329-1.987q-1.75-.456-1.75-1.079c0-.38.279-.567.85-.567.3 0 .746.042 1.329.121q.88.13 1.329.129c.3 0 .75-.042 1.329-.129.588-.084 1.013-.121 1.28-.121.191 0 .679.433 1.475 1.304l27.037 30.113c.383.416.608.62.683.62q.17-.001.171-.62v-23.7c0-2.159-.55-3.742-1.65-4.767q-.907-.851-3.008-1.358-1.645-.402-1.646-1.021 0-.568.621-.567.856.001 2.55.121 1.698.13 2.608.129 1.02 0 3.059-.129c1.358-.083 2.25-.121 2.666-.121q.568.001.567.508c0 .38-.279.68-.842.909-.783.379-1.321.7-1.625.962-.562.609-.837 1.509-.837 2.717v32.821c0 1.629-.175 2.437-.513 2.437-.491 0-1.212-.525-2.158-1.587l-24.4-27.421c-.642-.721-1.042-1.079-1.188-1.079q-.4-.001-.4 1.304v23.2q0 2.214 1.305 3.121c.454.341 1.245.608 2.375.791.87.113 1.304.363 1.304.738q-.001.74-.621.742c-.342 0-1.117-.046-2.329-.125a47 47 0 0 0-3.396-.13q-1.193.001-5.329.259-.738-.001-.738-.621 0-.681 1.3-1.025c1.092-.338 1.875-.808 2.367-1.417.875-1.021 1.308-2.683 1.308-4.991M188.621 345.15V316.1q-.001-1.813-1.196-2.671c-.421-.3-1.158-.587-2.221-.85-.796-.187-1.2-.433-1.2-.737 0-.417.192-.621.567-.621q1.082.001 3.15.121 2.069.13 3.087.129.906 0 2.667-.129a39 39 0 0 1 2.608-.121q1.075-.002 1.075.567c0 .341-.354.608-1.066.791q-1.403.396-1.904.792c-.713.571-1.071 1.475-1.071 2.725v30.471q0 1.644 1.296 2.437c.333.192 1.141.454 2.416.796.863.262 1.296.604 1.296 1.017q-.001.57-1.133.57c-.338 0-1.229-.045-2.667-.125a60 60 0 0 0-3.512-.129c-1.359 0-2.6.046-3.717.129-1.117.084-1.688.125-1.725.125q-1.193.001-1.192-.854c0-.375.379-.679 1.142-.904 1.025-.262 1.746-.592 2.167-.962q1.132-1.075 1.133-3.517M223.708 348.704l-13.991-33.112c-.529-1.288-1.438-2.159-2.717-2.613q-1.645-.564-1.646-.958.001-.793.796-.792.905.001 2.629.121 1.732.13 2.584.129.85.001 2.52-.129c1.117-.083 1.763-.121 1.95-.121.534 0 .796.188.796.567q0 .225-1.162.962-1.16.737-1.159 1.929-.002 1.02.509 2.209l9.921 23.362c.45 1.096.904 2.188 1.358 3.288.342.679.637 1.021.908 1.021q.396 0 1.017-1.592l9.862-24.325q1.026-2.551.796-3.858c0-.98-.608-1.617-1.816-1.896-1.209-.284-1.817-.6-1.817-.938q0-.737.85-.737c.417 0 1.033.041 1.867.121.825.087 1.45.129 1.862.129a29 29 0 0 0 2.883-.129c.867-.084 1.359-.121 1.475-.121q.958 0 .959.737c0 .263-.321.55-.963.85-.866.417-1.608 1.342-2.204 2.779l-14.108 33.405a36 36 0 0 1-.884 2.179c-.32.737-.645 1.104-.987 1.104-.379 0-.775-.45-1.188-1.358a236 236 0 0 1-.9-2.213M261.608 317.2v10.558q0 1.481.255 1.705c.17.154.8.229 1.9.229h6.12q2.613 0 3.8-1.2c.488-.454.871-1.179 1.134-2.171.225-.8.491-1.204.787-1.204q.625 0 .625 1.083-.001 1.017-.058 2.917-.058 1.899-.058 2.804 0 .738.058 2.212.057 1.472.058 2.267c0 .492-.212.738-.625.738q-.617 0-.904-1.305c-.262-1.208-.533-1.995-.792-2.375-.57-.866-1.529-1.3-2.891-1.3h-8.392c-.529 0-.854.188-.962.567q-.056.225-.055 1.25v10.429q-.002 3.005.396 3.629c.454.721 1.754 1.08 3.909 1.08q5.781-.001 9.75-1.534 2.723-1.025 4.479-2.787 1.586-1.533 1.529-1.534c.304 0 .45.23.45.684q-.001 2.386-2.833 5.516c-.83.913-1.68 1.475-2.55 1.705-.488.15-1.492.229-3.005.229-1.17 0-3.329-.067-6.462-.192-2.717-.079-4.875-.1-6.463-.067-.45 0-1.608.046-3.458.13a63 63 0 0 1-3.454.125c-.571 0-.85-.192-.85-.571q.055-.45 1.017-.909c.483-.187.975-.379 1.466-.566q1.013-.512 1.359-1.763c.145-.604.225-1.662.225-3.179v-25.875q-.002-2.612-.396-3.629-.626-1.819-2.659-2.104c-1.129-.3-1.691-.604-1.691-.904 0-.45.658-.675 1.983-.675 4.267 0 7.983.041 11.138.12q4.73.131 4.904.13c.337 0 1.616-.042 3.825-.13 2.212-.083 3.637-.12 4.279-.12q.568 0 .567 1.245c0 4.509-.38 6.759-1.13 6.759-.491 0-.779-.509-.85-1.529-.079-1.284-.245-2.109-.512-2.492q-.908-1.244-4.533-1.525-.74-.058-5.105-.058c-2.762 0-4.337.125-4.737.37q-.588.384-.588 3.217M300.275 313.35c.338-.15 1.133-.229 2.379-.229 3.096 0 5.588.679 7.475 2.046 2.225 1.591 3.342 3.995 3.342 7.216q0 4.602-3 6.646c-1.358.95-2.988 1.425-4.871 1.425h-4.079c-1.4-.079-2.096-.342-2.096-.796v-14.437q.006-1.477.85-1.871m15.404 13.587c1.354-1.779 2.033-3.741 2.033-5.9q-.002-6.863-6.341-9.02-2.442-.793-7.084-.792-1.417.001-4.591.121c-2.121.087-3.742.129-4.879.129q-1.708 0-2.521-.129c-.55-.084-.921-.121-1.113-.121q-1.13-.001-1.129.679.001.681 1.246.963c1.171.229 1.971.491 2.379.791.833.609 1.254 1.7 1.254 3.292v28.883q0 1.874-1.075 2.892c-.341.342-1.008.7-1.991 1.083-.717.3-1.08.621-1.08.963 0 .416.192.621.567.621.721 0 1.8-.046 3.238-.125 1.441-.088 2.516-.13 3.237-.13 1.925 0 3.546.046 4.846.13q1.957.125 1.671.125c.641 0 .962-.155.962-.455 0-.487-.512-.845-1.525-1.075-1.437-.341-2.375-.641-2.833-.908-1.021-.642-1.525-1.662-1.525-3.062v-11.955c0-.566.017-.908.058-1.016.15-.384.621-.571 1.417-.571q4.645-.002 5.321.283.682.284 2.208 2.717l6.292 9.921c1.25 1.962 2.4 3.396 3.458 4.304 1.475 1.213 3.154 1.817 5.046 1.817 2.454 0 3.675-.229 3.675-.684q0-.451-.846-.62-1.419-.344-2.375-.963c-1.254-.792-2.458-2.1-3.629-3.912l-9.467-14.355c2.034-.837 3.734-2.141 5.096-3.92ZM332.658 348.65l-1.416-7.317q-.344-1.757.625-1.758.512.001.737.508l.346 1.359q.733 2.832 3.279 5.208 3.456 3.283 8.6 3.283c2.904 0 5.354-.754 7.359-2.266 2.183-1.625 3.283-3.855 3.283-6.684 0-2.987-1.983-5.195-5.942-6.633q-5.543-1.874-11.087-3.742c-3.959-1.966-5.938-5.041-5.938-9.237 0-3.396 1.284-6.083 3.854-8.05q3.452-2.608 8.721-2.608c1.996 0 3.775.17 5.325.512 1.017.229 1.984.571 2.884 1.021q1.136.518 1.304.517c.15 0 .337-.1.566-.313q.339-.312.621-.313.564.001.679.796l.85 7.709q.111.85-.62.85-.623 0-1.184-1.7-1.249-3.571-4.104-5.471c-1.904-1.267-4.142-1.9-6.7-1.9-2.492 0-4.583.566-6.283 1.7-1.959 1.358-2.938 3.25-2.938 5.666 0 2.871 1.979 5.03 5.938 6.467 3.696 1.288 7.387 2.55 11.087 3.8 3.959 2.117 5.938 5.383 5.938 9.808q-.001 4.537-3.284 7.713c-2.837 2.8-7.141 4.196-12.925 4.196-1.966 0-4.062-.4-6.287-1.192q-3.118-1.074-3.288-1.929M373.129 345.15V316.1q-.001-1.813-1.196-2.671c-.421-.3-1.158-.587-2.221-.85q-1.199-.28-1.199-.737c0-.417.191-.621.566-.621.721 0 1.767.042 3.15.121q2.07.13 3.084.129.91 0 2.666-.129a39 39 0 0 1 2.609-.121c.716 0 1.079.187 1.079.567 0 .341-.359.608-1.067.791q-1.404.396-1.908.792c-.713.571-1.067 1.475-1.067 2.725v30.471q.002 1.644 1.292 2.437c.337.192 1.146.454 2.421.796.862.262 1.295.604 1.295 1.017q-.001.57-1.133.57c-.342 0-1.229-.045-2.667-.125a60 60 0 0 0-3.516-.129c-1.359 0-2.596.046-3.713.129a129 129 0 0 1-1.729.125q-1.187.001-1.187-.854c0-.375.379-.679 1.137-.904 1.025-.262 1.75-.592 2.167-.962q1.137-1.075 1.137-3.517M405.421 346.454v-29.521q-.001-2.612-.571-2.612h-9.262c-1.63 0-2.721.267-3.288.8-.346.379-.796 1.446-1.362 3.192q-.398 1.312-.959 1.312-.562-.001-.562-.683l.621-5.504.17-1.363c.15-.571.434-.85.855-.85 1.245 0 3.562.042 6.966.121q5.098.13 9.121.129c4.196 0 8.104-.042 11.733-.129 3.625-.083 5.255-.121 4.875-.121.642 0 1.071.108 1.275.338q.319.342.367 1.304l.283 4.546q.061 1.25-.616 1.25-.793 0-.904-1.142-.174-1.543-.571-2.054c-.567-.763-1.675-1.142-3.338-1.142h-8.087q-1.87.002-2.063.258-.2.257-.2 2.525v28.95q.001 2.043 1.183 2.955c.375.262 1.105.529 2.196.791.784.192 1.175.492 1.175.909q0 .682-.512.683c-.417 0-1.138-.046-2.179-.125-1.042-.088-1.842-.129-2.409-.129-1.887 0-3.475.025-4.758.066q-1.368.062-3.004.192c-.454 0-.684-.25-.684-.742 0-.337.384-.658 1.138-.962 1.137-.379 1.879-.679 2.221-.908.775-.571 1.15-1.35 1.15-2.334M483.342 346.454v-29.521q-.001-2.612-.571-2.612h-9.263q-2.445 0-3.295.8c-.342.379-.796 1.446-1.363 3.192q-.392 1.312-.954 1.312-.563-.001-.563-.683l.621-5.504.167-1.363c.154-.571.433-.85.85-.85 1.25 0 3.571.042 6.979.121 3.396.087 6.442.129 9.121.129q6.293 0 11.729-.129 5.444-.123 4.875-.121c.646 0 1.071.108 1.279.338.209.229.329.662.371 1.304l.279 4.546q.058 1.25-.616 1.25c-.53 0-.83-.38-.909-1.142q-.169-1.543-.562-2.054-.856-1.143-3.342-1.142h-8.087q-1.87.002-2.063.258-.198.257-.196 2.525v28.95q0 2.043 1.175 2.955c.375.262 1.109.529 2.192.791.787.192 1.183.492 1.183.909q-.001.682-.508.683c-.417 0-1.146-.046-2.183-.125a30 30 0 0 0-2.409-.129c-1.887 0-3.475.025-4.762.066a91 91 0 0 0-3.005.192c-.454 0-.679-.25-.679-.742q0-.506 1.138-.962c1.133-.379 1.875-.679 2.221-.908q1.15-.857 1.15-2.334M466.117 349.921q-2.214-.396-3.121-1.817c-.529-.833-1.054-1.892-1.584-3.179-.42-1.096-.833-2.192-1.249-3.288l-11.8-29.208c-.567-1.396-.959-2.096-1.192-2.096-.338 0-.717.45-1.129 1.363a477 477 0 0 0-3.121 6.687L429.367 347.3c-.571 1.212-1.442 2.042-2.609 2.5q-1.53.569-1.529.962c0 .417.171.621.509.621.487 0 1.237-.046 2.237-.125 1-.087 1.771-.129 2.3-.129s1.317.046 2.375.129q1.585.126 2.383.125.909-.001 1.017-.058.513-.117.513-.796c0-.379-.342-.621-1.021-.737-.979-.192-1.646-.4-1.988-.625-.679-.455-1.021-1.255-1.021-2.388q0-1.138.405-1.996l3.625-7.958q.567-1.195 2.666-1.196h12.467c1.096 0 1.925.725 2.5 2.167l1.812 4.662c1.171 2.996 1.759 4.792 1.759 5.404 0 .792-.571 1.392-1.7 1.792q-1.7.594-1.7 1.163t1.25.57c.529 0 1.304-.045 2.329-.125 1.021-.087 1.783-.129 2.271-.129q1.193.002 3.525.13 2.325.125 3.462.125.793 0 .792-.513c-.008-.408-.629-.729-1.879-.954m-15.271-16.75h-11.221q-.91-.001-.908-.508c0-.113.058-.28.171-.509l6.404-13.779q.224-.513.454-.512.226 0 .446.512l5.558 13.663q.17.451.171.62c.004.342-.358.513-1.075.513" style="fill:var(--svg-hover-color,#AAA097);fill-rule:nonzero"/><circle cx="441.083" cy="310.692" r="2.871" style="fill:var(--svg-hover-color,#AAA097)"/><circle cx="453.358" cy="310.692" r="2.871" style="fill:var(--svg-hover-color,#AAA097)"/><path d="M9.854 371.354h569.658v1.042H9.854z" style="fill:var(--svg-hover-color,#AAA097)"/><path d="M.838 14.554c39.658-4.496 95.025-1.937 155.175 8.671 60.166 10.604 113.066 27.138 148.791 44.929-24.208-21.562-80.004-43.346-146.979-55.158C90.842 1.188 30.954 2.571.838 14.554" style="fill:var(--svg-hover-color,#C3004A);fill-rule:nonzero"/><path d="M.838 132.788C15.267 114.471 39.1 92.596 68.267 72.112c29.166-20.487 57.825-35.491 79.95-42.837-18.967.996-51.004 15-83.475 37.813C32.258 89.9 8.217 115.292.838 132.787ZM452.242 145.721c11.546-20.775 31.508-47.034 57.62-72.209 26.117-25.174 53.142-44.216 74.334-54.983-19.05 3.834-49.179 22.838-78.254 50.863-29.075 28.021-49.167 57.429-53.7 76.329M307.425 183.288c9.179-22.667 26.65-51.896 49.733-81.521 23.1-29.621 47.184-53.692 66.929-68.13-18.37 7.171-46.058 31.371-71.762 64.35-25.708 32.98-42.425 65.738-44.9 85.3ZM158.029 147.938c11.821-15.788 32.258-36.667 56.713-53.988 24.45-17.321 48.025-27.617 66.833-33.538-16.296.392-44.479 9.859-71.692 29.146-27.229 19.284-46.083 43.134-51.854 58.38" style="fill:var(--svg-hover-color,#C3004A);fill-rule:nonzero"/><path d="M158.779 175.863c-6.675-18.525-10.85-45.142-10.85-74.713 0-29.583 4.179-56.192 10.85-74.717-10.041 13.346-16.975 41.788-16.975 74.7 0 32.934 6.934 61.38 16.975 74.73M446.983 146.6c-6.671-18.175-10.854-44.283-10.854-73.308 0-29.005 4.188-55.121 10.854-73.292-10.041 13.092-16.979 40.992-16.979 73.292 0 32.308 6.938 60.216 16.979 73.308M304.704 193.104c-6.675-17.846-10.858-43.475-10.858-71.975 0-28.492 4.187-55.312 10.858-73.158-10.046 12.858-16.983 41.433-16.983 73.158 0 31.721 6.937 59.117 16.983 71.975" style="fill:var(--svg-hover-color,#C3004A);fill-rule:nonzero"/><path d="M0 149.846c42.413-2.55 101.938 1.671 166.896 13.121 64.966 11.454 122.346 27.854 161.321 44.745-26.738-19.8-87.417-40.912-159.746-53.674C96.142 141.292 31.9 140.379 0 149.846M291.417 68.779c35.129-17.687 87.166-34.062 146.362-44.5 59.204-10.441 113.713-12.85 152.771-8.246-29.692-12.058-88.654-13.608-154.575-1.979-65.908 11.621-120.792 33.238-144.558 54.725" style="fill:var(--svg-hover-color,#C3004A);fill-rule:nonzero"/><path d="M297.425 203.025c34.458-16.808 85.425-32.533 143.342-42.746 57.929-10.208 111.2-12.875 149.321-8.854-28.913-11.075-86.509-12.075-151.001-.696-64.487 11.367-118.275 32.013-141.662 52.296" style="fill:var(--svg-hover-color,#C3004A);fill-rule:nonzero"/></svg>