<?xml version="1.0" encoding="UTF-8" standalone="no"?><!DOCTYPE svg PUBLIC "-//W3C//DTD SVG 1.1//EN" "http://www.w3.org/Graphics/SVG/1.1/DTD/svg11.dtd"><svg width="100%" height="100%" viewBox="0 0 591 424" version="1.1" xmlns="http://www.w3.org/2000/svg" xmlns:xlink="http://www.w3.org/1999/xlink" xml:space="preserve" xmlns:serif="http://www.serif.com/" style="fill-rule:evenodd;clip-rule:evenodd;stroke-linejoin:round;stroke-miterlimit:2;"><g><g><path d="M9.842,390.917l3.041,-0l0,17.325c0,1.275 0.113,2.925 0.45,3.712c0.488,1.129 1.875,2.517 5.025,2.517c2.138,-0 3.746,-0.567 4.538,-1.617c0.862,-1.158 0.971,-2.287 0.971,-4.012l-0,-17.925l3.037,-0l0,18.3c0,3.112 -0.412,4.579 -1.95,5.887c-1.575,1.35 -3.637,1.992 -6.75,1.992c-3.975,-0 -6.225,-1.163 -7.612,-3.717c-0.675,-1.237 -0.75,-2.883 -0.75,-4.012l-0,-18.45Z" style="fill:var(--svg-hover-color,#AAA097);fill-rule:nonzero;"/><path d="M32.125,398.3l2.85,-0.783c0,-0 0.675,1.387 0.675,2.925c1.95,-1.95 3.904,-2.888 5.888,-2.888c2.025,0 3.825,1.088 4.579,2.738c0.296,0.675 0.446,1.425 0.446,2.17l-0,14.175l-2.963,0l0,-12.637c0,-1.988 -0.15,-2.475 -0.675,-3.113c-0.412,-0.483 -1.2,-0.783 -2.062,-0.783c-1.496,0 -3.825,1.2 -5.175,2.625l-0,13.913l-2.85,-0l-0,-14.4c-0,-2.663 -0.713,-3.942 -0.713,-3.942Z" style="fill:var(--svg-hover-color,#AAA097);fill-rule:nonzero;"/><path d="M51.596,398.042l3.037,-0.488l0,19.088l-3.037,-0l-0,-18.6Zm1.575,-8.138c1.279,0 2.287,1.013 2.287,2.288c0,1.279 -1.008,2.287 -2.287,2.287c-1.275,0 -2.288,-1.008 -2.288,-2.25c0,-1.275 1.013,-2.325 2.288,-2.325Z" style="fill:var(--svg-hover-color,#AAA097);fill-rule:nonzero;"/><path d="M58.112,398.113l3.001,-0.634l4.35,12.863c0.525,1.537 0.9,3.187 0.9,3.187l0.079,0c-0,0 0.296,-1.462 0.9,-3.15l4.27,-12.412l3.113,-0l-7.013,18.858l-2.887,-0l-6.712,-18.713Z" style="fill:var(--svg-hover-color,#AAA097);fill-rule:nonzero;"/><path d="M84.571,399.767c1.425,-0 2.733,0.637 3.375,1.65c0.562,0.904 0.825,2.141 0.862,4.162l-8.55,0c0.146,-3.862 1.65,-5.812 4.313,-5.812Zm1.196,14.846c-1.871,-0 -3.596,-0.671 -4.646,-2.288c-0.633,-0.971 -0.863,-2.325 -0.863,-4.083l0,-0.45l11.663,-0l-0,-0.413c-0,-4.462 -0.525,-6.225 -2.142,-7.879c-1.275,-1.308 -3.037,-2.021 -5.062,-2.021c-2.246,0 -4.084,0.821 -5.584,2.588c-1.579,1.871 -2.254,3.9 -2.254,7.046c0,6.187 3.117,9.937 8.292,9.937c2.396,0 4.646,-0.821 6.296,-2.325l-1.125,-1.875c-1.313,1.204 -2.771,1.763 -4.575,1.763Z" style="fill:var(--svg-hover-color,#AAA097);fill-rule:nonzero;"/><path d="M96.083,398.263l2.921,-0.784c0,0 0.717,1.463 0.604,3.038c1.35,-1.913 3.338,-3.113 5.25,-3.113c0.488,0 1.013,0.188 1.013,0.188l-1.2,3.191c-0.188,-0.079 -0.525,-0.15 -0.825,-0.15c-1.125,0 -2.25,0.488 -3.113,1.35c-0.862,0.863 -1.087,1.425 -1.087,2.963l-0,11.7l-2.925,-0l-0,-14.4c-0.004,-2.746 -0.638,-3.984 -0.638,-3.984Z" style="fill:var(--svg-hover-color,#AAA097);fill-rule:nonzero;"/><path d="M120.046,398.754l-1.092,2.175c-1.65,-0.787 -3.037,-1.35 -4.687,-1.35c-2.138,0 -3.525,1.238 -3.525,3.075c-0,1.425 0.712,2.288 2.7,2.696l2.475,0.525c3.375,0.713 4.987,2.438 4.987,5.213c0,3.637 -2.854,6.112 -7.05,6.112c-2.362,0 -4.95,-0.712 -6.862,-1.871l1.129,-2.175c1.912,1.163 3.862,1.763 5.925,1.763c2.287,-0 3.787,-1.238 3.787,-3.221c0,-1.688 -0.941,-2.629 -3.075,-3.075l-2.325,-0.488c-3.075,-0.637 -4.725,-2.55 -4.725,-5.137c0,-3.375 2.734,-5.738 6.638,-5.738c1.946,-0.008 4.125,0.596 5.7,1.496Z" style="fill:var(--svg-hover-color,#AAA097);fill-rule:nonzero;"/><path d="M125.217,398.042l3.037,-0.488l0,19.088l-3.037,-0l-0,-18.6Zm1.575,-8.138c1.279,0 2.291,1.013 2.291,2.288c0,1.279 -1.012,2.287 -2.291,2.287c-1.275,0 -2.288,-1.008 -2.288,-2.25c0,-1.275 1.013,-2.325 2.288,-2.325Z" style="fill:var(--svg-hover-color,#AAA097);fill-rule:nonzero;"/><path d="M142.683,397.967l-0.904,2.208l-3.9,0l0,12.042c0,2.062 0.563,2.775 2.4,2.775c0.821,-0 1.309,-0.113 1.834,-0.379l0.416,1.875c-0.941,0.487 -1.992,0.754 -3.3,0.754c-0.975,-0 -1.725,-0.192 -2.437,-0.525c-1.313,-0.638 -1.804,-1.838 -1.804,-3.717l-0,-12.825l-2.438,0l0,-2.208l2.438,-0c-0,-1.804 0.3,-4.729 0.3,-4.729l3.075,-0.675c-0,-0 -0.375,2.924 -0.375,5.404l4.695,-0Z" style="fill:var(--svg-hover-color,#AAA097);fill-rule:nonzero;"/><path d="M155.367,412.029c-0.863,1.763 -2.63,2.921 -4.542,2.921c-2.137,0 -3.221,-1.2 -3.221,-3.408c0,-2.854 1.688,-4.463 6.413,-4.463c0.525,0 0.97,0.038 1.462,0.075l-0.112,4.875Zm-8.813,-18.675c0,1.088 0.863,1.988 1.95,1.988c1.088,-0 1.913,-0.9 1.913,-1.988c-0,-1.05 -0.863,-1.912 -1.95,-1.912c-1.05,-0 -1.913,0.862 -1.913,1.912Zm7.721,0c0,1.088 0.9,1.988 1.992,1.988c1.05,-0 1.912,-0.9 1.912,-1.988c0,-1.05 -0.9,-1.912 -1.95,-1.912c-1.092,-0 -1.954,0.862 -1.954,1.912Zm-7.8,8.734c1.204,-1.088 3.867,-2.209 5.967,-2.209c1.158,0 1.912,0.334 2.512,1.009c0.525,0.604 0.604,1.279 0.604,2.925l0,1.312c0,0 -0.525,-0.037 -1.312,-0.037c-6.263,-0 -9.9,2.475 -9.9,6.708c-0,2.517 1.387,5.325 6,5.325c2.137,-0 3.596,-0.713 5.4,-2.517c0.337,1.313 1.275,2.329 2.546,2.738l1.5,-2.1c-1.388,-0.75 -1.575,-1.538 -1.5,-4.575l0.15,-6.154c0.037,-1.684 -0,-3.113 -0.413,-4.121c-0.787,-1.913 -2.587,-2.925 -5.175,-2.925c-2.696,-0 -5.362,0.862 -7.837,2.512l1.458,2.109Z" style="fill:var(--svg-hover-color,#AAA097);fill-rule:nonzero;"/><path d="M172.2,397.967l-0.9,2.208l-3.9,0l0,12.042c0,2.062 0.563,2.775 2.4,2.775c0.821,-0 1.308,-0.113 1.833,-0.379l0.417,1.875c-0.942,0.487 -1.992,0.754 -3.3,0.754c-0.975,-0 -1.725,-0.192 -2.442,-0.525c-1.308,-0.638 -1.8,-1.838 -1.8,-3.717l0,-12.825l-2.437,0l-0,-2.208l2.437,-0c0,-1.804 0.3,-4.729 0.3,-4.729l3.075,-0.675c0,-0 -0.379,2.924 -0.379,5.404l4.696,-0Z" style="fill:var(--svg-hover-color,#AAA097);fill-rule:nonzero;"/><path d="M194.854,411.879c0,0 -0.337,0.784 -1.129,1.346c-1.2,0.862 -2.063,1.2 -3.6,1.2c-1.721,0 -2.883,-0.633 -3.746,-2.171c-0.604,-1.087 -0.75,-2.7 -0.75,-4.875c0,-2.625 0.296,-3.975 1.196,-5.4c0.787,-1.279 2.025,-1.954 3.492,-1.954c2.208,-0 3.596,0.637 4.537,1.954l0,9.9Zm0.034,-22.616l-0,7.841c-0,1.346 0.037,2.883 0.037,2.883c-1.125,-1.495 -2.962,-2.358 -5.063,-2.358c-1.35,0 -2.4,0.338 -3.6,1.159c-2.545,1.762 -3.862,4.687 -3.862,8.662c0,5.967 2.775,9.454 7.612,9.454c2.171,0 3.6,-0.637 4.951,-2.175c0.041,0.975 0.416,1.913 0.416,1.913l3,-0c-0.412,-1.088 -0.562,-2.813 -0.562,-6.038l-0,-20.85l-2.929,-0.491Z" style="fill:var(--svg-hover-color,#AAA097);fill-rule:nonzero;"/><path d="M210.075,399.767c1.425,-0 2.733,0.637 3.375,1.65c0.563,0.904 0.825,2.141 0.863,4.162l-8.551,0c0.15,-3.862 1.65,-5.812 4.313,-5.812Zm1.2,14.846c-1.875,-0 -3.6,-0.671 -4.65,-2.288c-0.633,-0.971 -0.862,-2.325 -0.862,-4.083l-0,-0.45l11.662,-0l0,-0.413c0,-4.462 -0.525,-6.225 -2.137,-7.879c-1.28,-1.308 -3.038,-2.021 -5.063,-2.021c-2.25,0 -4.088,0.821 -5.588,2.588c-1.575,1.871 -2.25,3.9 -2.25,7.046c0,6.187 3.113,9.937 8.288,9.937c2.4,0 4.646,-0.821 6.296,-2.325l-1.125,-1.875c-1.313,1.204 -2.767,1.763 -4.571,1.763Z" style="fill:var(--svg-hover-color,#AAA097);fill-rule:nonzero;"/><path d="M221.588,398.263l2.924,-0.784c0,0 0.713,1.463 0.6,3.038c1.35,-1.913 3.338,-3.113 5.25,-3.113c0.488,0 1.013,0.188 1.013,0.188l-1.2,3.191c-0.188,-0.079 -0.525,-0.15 -0.821,-0.15c-1.129,0 -2.25,0.488 -3.112,1.35c-0.863,0.863 -1.092,1.425 -1.092,2.963l0,11.7l-2.921,-0l0,-14.4c-0.004,-2.746 -0.642,-3.984 -0.642,-3.984Z" style="fill:var(--svg-hover-color,#AAA097);fill-rule:nonzero;"/><path d="M249.108,393.504c1.313,0 2.1,0.038 2.817,0.225c1.763,0.45 2.921,2.025 2.921,4.05c-0,0.717 -0.15,1.388 -0.413,1.992c-0.75,1.725 -1.725,2.212 -4.5,2.212l-4.462,0l-0,-8.475l3.637,0l0,-0.004Zm-6.608,23.138l6.65,-0c3.825,-0 4.796,-0.225 6.183,-0.75c2.517,-0.975 4.013,-3.488 4.013,-6.305c-0,-1.87 -0.633,-3.97 -2.325,-5.25c-0.863,-0.675 -1.8,-1.05 -3.379,-1.35c2.925,-0.937 4.612,-2.962 4.612,-5.624c0,-2.625 -1.762,-4.988 -4.387,-5.888c-1.313,-0.446 -2.55,-0.563 -7.65,-0.563l-3.717,0l0,25.73Zm7.508,-12.117c1.28,0 2.292,0.113 3.005,0.263c1.833,0.375 3.112,2.287 3.112,4.537c0,3.075 -1.387,4.8 -5.175,4.8l-5.475,0l0,-9.604l4.533,-0l0,0.004Z" style="fill:var(--svg-hover-color,#AAA097);fill-rule:nonzero;"/><path d="M263.446,398.113l2.887,-0.563l0,13.425c0,1.767 0.263,2.55 1.125,3.154c0.604,0.413 1.463,0.633 2.288,0.633c1.837,0 3.75,-1.345 4.762,-3.375l0,-13.237l2.888,-0.488l-0,13.613c-0,2.362 0.337,3.3 1.275,4.162l-1.871,1.992c-1.242,-1.012 -1.762,-1.767 -2.025,-3.004c-1.425,1.912 -3.375,2.854 -5.925,2.854c-2.363,0 -4.125,-1.012 -4.913,-2.667c-0.337,-0.712 -0.487,-1.683 -0.487,-2.775l0,-13.724l-0.004,-0Z" style="fill:var(--svg-hover-color,#AAA097);fill-rule:nonzero;"/><path d="M282.871,398.3l2.85,-0.783c-0,-0 0.675,1.387 0.675,2.925c1.95,-1.95 3.9,-2.888 5.887,-2.888c2.021,0 3.825,1.088 4.575,2.738c0.3,0.675 0.45,1.425 0.45,2.17l0,14.175l-2.962,0l-0,-12.637c-0,-1.988 -0.15,-2.475 -0.675,-3.113c-0.417,-0.483 -1.2,-0.783 -2.063,-0.783c-1.5,0 -3.825,1.2 -5.175,2.625l0,13.913l-2.85,-0l0,-14.4c0,-2.663 -0.712,-3.942 -0.712,-3.942Z" style="fill:var(--svg-hover-color,#AAA097);fill-rule:nonzero;"/><path d="M314.071,411.879c-0,0 -0.338,0.784 -1.129,1.346c-1.2,0.862 -2.059,1.2 -3.596,1.2c-1.725,0 -2.888,-0.633 -3.75,-2.171c-0.6,-1.087 -0.75,-2.7 -0.75,-4.875c-0,-2.625 0.296,-3.975 1.2,-5.4c0.783,-1.279 2.021,-1.954 3.487,-1.954c2.209,-0 3.596,0.637 4.538,1.954l-0,9.9Zm0.037,-22.616l0,7.841c0,1.346 0.038,2.883 0.038,2.883c-1.125,-1.495 -2.963,-2.358 -5.063,-2.358c-1.35,0 -2.4,0.338 -3.6,1.159c-2.546,1.762 -3.862,4.687 -3.862,8.662c-0,5.967 2.775,9.454 7.612,9.454c2.175,0 3.6,-0.637 4.95,-2.175c0.038,0.975 0.413,1.913 0.413,1.913l3,-0c-0.413,-1.088 -0.563,-2.813 -0.563,-6.038l0,-20.85l-2.925,-0.491Z" style="fill:var(--svg-hover-color,#AAA097);fill-rule:nonzero;"/><path d="M329.292,399.767c1.425,-0 2.733,0.637 3.375,1.65c0.562,0.904 0.825,2.141 0.862,4.162l-8.546,0c0.15,-3.862 1.646,-5.812 4.309,-5.812Zm1.195,14.846c-1.87,-0 -3.595,-0.671 -4.641,-2.288c-0.638,-0.971 -0.863,-2.325 -0.863,-4.083l0,-0.45l11.659,-0l-0,-0.413c-0,-4.462 -0.525,-6.225 -2.138,-7.879c-1.279,-1.308 -3.037,-2.021 -5.067,-2.021c-2.25,0 -4.079,0.821 -5.583,2.588c-1.575,1.871 -2.25,3.9 -2.25,7.046c0,6.187 3.113,9.937 8.283,9.937c2.4,0 4.65,-0.821 6.3,-2.325l-1.125,-1.875c-1.308,1.204 -2.77,1.763 -4.575,1.763Z" style="fill:var(--svg-hover-color,#AAA097);fill-rule:nonzero;"/><path d="M353.317,398.754l-1.088,2.175c-1.65,-0.787 -3.037,-1.35 -4.687,-1.35c-2.138,0 -3.525,1.238 -3.525,3.075c-0,1.425 0.712,2.288 2.696,2.696l2.479,0.525c3.375,0.713 4.983,2.438 4.983,5.213c0,3.637 -2.85,6.112 -7.046,6.112c-2.362,0 -4.95,-0.712 -6.862,-1.871l1.129,-2.175c1.912,1.163 3.862,1.763 5.925,1.763c2.287,-0 3.787,-1.238 3.787,-3.221c0,-1.688 -0.941,-2.629 -3.075,-3.075l-2.325,-0.488c-3.075,-0.637 -4.729,-2.55 -4.729,-5.137c0,-3.375 2.738,-5.738 6.642,-5.738c1.946,-0.008 4.121,0.596 5.696,1.496Z" style="fill:var(--svg-hover-color,#AAA097);fill-rule:nonzero;"/><path d="M356.204,398.113l2.925,-0.634l3,12.338c0.413,1.725 0.675,3.112 0.675,3.112l0.113,0c-0,0 0.262,-1.35 0.633,-2.7l3.342,-12.258l3.187,-0l3.263,12.412c0.262,1.013 0.75,2.738 0.75,2.738l0.075,-0c-0,-0 0.379,-1.838 0.566,-2.588l2.963,-12.562l3.071,-0l-5.288,18.825l-2.887,-0l-3.713,-13.125c-0.337,-1.238 -0.525,-2.063 -0.525,-2.063l-0.075,0c0,0 -0.229,1.313 -0.417,1.913l-3.745,13.279l-2.738,0l-5.175,-18.688Z" style="fill:var(--svg-hover-color,#AAA097);fill-rule:nonzero;"/><path d="M390.329,399.767c1.425,-0 2.734,0.637 3.375,1.65c0.563,0.904 0.821,2.141 0.863,4.162l-8.55,0c0.15,-3.862 1.646,-5.812 4.312,-5.812Zm1.196,14.846c-1.871,-0 -3.596,-0.671 -4.646,-2.288c-0.637,-0.971 -0.862,-2.325 -0.862,-4.083l-0,-0.45l11.658,-0l0,-0.413c0,-4.462 -0.521,-6.225 -2.133,-7.879c-1.279,-1.308 -3.038,-2.021 -5.067,-2.021c-2.25,0 -4.083,0.821 -5.587,2.588c-1.575,1.871 -2.25,3.9 -2.25,7.046c-0,6.187 3.112,9.937 8.287,9.937c2.4,0 4.646,-0.821 6.3,-2.325l-1.125,-1.875c-1.317,1.204 -2.775,1.763 -4.575,1.763Z" style="fill:var(--svg-hover-color,#AAA097);fill-rule:nonzero;"/><path d="M401.988,389.788l2.92,-0.563c0,0 0.488,1.575 0.488,4.429l-0,4.35c-0,1.2 -0.108,2.546 -0.108,2.546c1.683,-1.575 3.825,-2.962 6.22,-2.962c2.25,-0 4.275,1.237 4.8,2.962c0.225,0.754 0.3,1.35 0.3,2.7l0,13.387l-2.887,0l-0,-12.899c-0,-1.388 -0.188,-2.251 -0.713,-2.775c-0.445,-0.451 -1.237,-0.755 -2.171,-0.755c-1.804,0 -3.825,1.163 -5.441,3.154l-0,13.275l-2.921,0l0,-23.024c-0,-2.438 -0.488,-3.825 -0.488,-3.825Z" style="fill:var(--svg-hover-color,#AAA097);fill-rule:nonzero;"/><path d="M421.558,398.263l2.925,-0.784c0,0 0.713,1.463 0.605,3.038c1.345,-1.913 3.337,-3.113 5.25,-3.113c0.487,0 1.012,0.188 1.012,0.188l-1.2,3.191c-0.188,-0.079 -0.525,-0.15 -0.825,-0.15c-1.129,0 -2.25,0.488 -3.112,1.35c-0.863,0.863 -1.088,1.425 -1.088,2.963l0,11.7l-2.925,-0l0,-14.4c-0.004,-2.746 -0.642,-3.984 -0.642,-3.984Z" style="fill:var(--svg-hover-color,#AAA097);fill-rule:nonzero;"/><path d="M442.483,390.917l3,-0l0,10.762l10.838,0l-0,-10.762l3.075,-0l-0,25.725l-3.075,-0l-0,-12.45l-10.838,-0l0,12.45l-3,-0l0,-25.725Z" style="fill:var(--svg-hover-color,#AAA097);fill-rule:nonzero;"/><path d="M475.183,412.029c-0.862,1.763 -2.625,2.921 -4.537,2.921c-2.138,0 -3.225,-1.2 -3.225,-3.408c-0,-2.854 1.687,-4.463 6.412,-4.463c0.525,0 0.975,0.038 1.467,0.075l-0.117,4.875Zm-8.887,-9.941c1.2,-1.088 3.862,-2.209 5.962,-2.209c1.163,0 1.913,0.334 2.517,1.009c0.525,0.604 0.6,1.279 0.6,2.925l0,1.312c0,0 -0.525,-0.037 -1.312,-0.037c-6.263,-0 -9.9,2.474 -9.9,6.708c-0,2.517 1.387,5.325 6,5.325c2.137,-0 3.6,-0.713 5.4,-2.517c0.337,1.313 1.275,2.329 2.55,2.738l1.495,-2.1c-1.387,-0.75 -1.575,-1.538 -1.495,-4.575l0.15,-6.154c0.037,-1.684 -0,-3.113 -0.417,-4.121c-0.783,-1.913 -2.588,-2.925 -5.175,-2.925c-2.696,-0 -5.358,0.862 -7.838,2.512l1.463,2.108Z" style="fill:var(--svg-hover-color,#AAA097);fill-rule:nonzero;"/><path d="M483.358,398.192l2.85,-0.675c0,-0 0.675,1.462 0.675,2.775c1.238,-1.388 3.529,-2.813 5.442,-2.813c1.833,0 3.675,1.125 4.35,3.113c1.8,-1.913 4.083,-3.113 5.996,-3.113c2.775,0 4.687,2.1 4.687,5.063l0,14.1l-3,-0l0,-13.8c0,-1.804 -0.825,-2.738 -2.4,-2.738c-1.687,0 -3,1.088 -4.95,2.884l0,13.649l-2.962,0l-0,-13.275c-0,-1.129 -0.113,-1.875 -0.529,-2.399c-0.446,-0.526 -1.05,-0.755 -1.913,-0.755c-1.425,0 -2.812,0.717 -4.762,2.479l-0,13.95l-2.813,0l0,-14.47c0.004,-2.7 -0.671,-3.975 -0.671,-3.975Z" style="fill:var(--svg-hover-color,#AAA097);fill-rule:nonzero;"/><path d="M515.904,402.654c1.013,-1.387 2.854,-2.441 4.683,-2.441c1.467,-0 2.817,0.604 3.534,1.616c0.783,1.088 1.083,2.546 1.083,5.025c0,3.15 -0.633,4.984 -1.308,5.996c-0.675,0.975 -2.1,1.65 -3.375,1.65c-1.763,0 -3.638,-0.975 -4.613,-2.25l0,-9.596l-0.004,0Zm-2.883,-9.041l-0,18.375c-0,2.516 -0.15,3.75 -0.563,4.65l2.921,-0c0.379,-0.75 0.45,-1.238 0.525,-2.025c1.05,1.387 3.192,2.479 5.138,2.479c4.458,-0 7.421,-4.054 7.421,-10.05c-0,-5.85 -2.775,-9.488 -7.234,-9.488c-1.987,0 -3.525,0.713 -5.362,2.517c-0,-0 0.079,-1.129 0.079,-2.063l-0,-4.35c-0,-2.854 -0.488,-4.429 -0.488,-4.429l-2.925,0.563c0,-0.004 0.488,1.383 0.488,3.821Z" style="fill:var(--svg-hover-color,#AAA097);fill-rule:nonzero;"/><path d="M532.854,398.113l2.888,-0.563l-0,13.425c-0,1.767 0.262,2.55 1.125,3.154c0.604,0.413 1.466,0.633 2.287,0.633c1.838,0 3.75,-1.345 4.767,-3.375l-0,-13.237l2.883,-0.488l0,13.613c0,2.362 0.338,3.3 1.279,4.162l-1.875,1.992c-1.237,-1.012 -1.762,-1.767 -2.025,-3.004c-1.425,1.912 -3.375,2.854 -5.925,2.854c-2.358,0 -4.125,-1.012 -4.912,-2.667c-0.338,-0.712 -0.488,-1.683 -0.488,-2.775l0,-13.724l-0.004,-0Z" style="fill:var(--svg-hover-color,#AAA097);fill-rule:nonzero;"/><path d="M552.35,398.263l2.925,-0.784c0,0 0.712,1.463 0.604,3.038c1.346,-1.913 3.338,-3.113 5.25,-3.113c0.488,0 1.013,0.188 1.013,0.188l-1.2,3.191c-0.188,-0.079 -0.525,-0.15 -0.825,-0.15c-1.125,0 -2.25,0.488 -3.113,1.35c-0.862,0.863 -1.087,1.425 -1.087,2.963l-0,11.7l-2.925,-0l-0,-14.4c-0,-2.746 -0.642,-3.984 -0.642,-3.984Z" style="fill:var(--svg-hover-color,#AAA097);fill-rule:nonzero;"/><path d="M573.983,403.742c0,2.512 -1.125,3.745 -3.375,3.745c-2.362,0 -3.6,-1.237 -3.6,-3.637c0,-2.583 1.2,-3.783 3.529,-3.783c2.471,-0 3.446,1.125 3.446,3.675Zm2.325,-5.104c-2.287,-0 -2.854,-1.05 -5.7,-1.05c-4.087,-0 -6.9,2.55 -6.9,6.304c0,2.475 1.688,4.608 4.2,5.4c-2.546,0.783 -3.375,1.683 -3.375,3.187c0,1.688 1.313,2.7 3.525,2.7c0.605,0 2.142,-0.041 2.888,-0.041c1.837,-0 2.962,0.191 3.675,0.675c0.675,0.45 1.012,1.237 1.012,2.25c0,2.329 -1.65,3.262 -4.537,3.262c-1.5,0 -2.888,-0.337 -3.788,-0.862c-0.675,-0.413 -1.087,-1.2 -1.087,-2.171c-0,-0.604 0.262,-1.279 0.525,-1.688l-3.075,0.263c-0.263,0.754 -0.375,1.312 -0.375,1.991c-0,2.663 2.25,4.763 8.1,4.763c4.537,-0 7.421,-1.833 7.421,-5.888c-0,-1.612 -0.6,-2.92 -2.063,-3.933c-1.125,-0.787 -2.325,-1.05 -4.496,-1.05l-3.004,0c-0.937,0 -1.496,-0.337 -1.496,-0.904c0,-0.633 0.863,-1.275 3.375,-2.171c1.35,0 2.55,-0.225 3.488,-0.825c1.725,-1.087 2.775,-3.037 2.775,-5.133c-0,-1.2 -0.375,-2.25 -1.125,-3.192c0.337,0.15 0.783,0.229 1.275,0.229c1.125,0 1.987,-0.3 3.15,-1.129l-1.8,-1.8c-0.896,0.592 -1.613,0.813 -2.588,0.813Z" style="fill:var(--svg-hover-color,#AAA097);fill-rule:nonzero;"/></g><path d="M15.554,276.283l0,-33.87c0,-1.409 -0.508,-2.45 -1.521,-3.109c-0.483,-0.35 -1.387,-0.683 -2.708,-0.991c-1.012,-0.221 -1.521,-0.505 -1.521,-0.863c0,-0.487 0.354,-0.725 1.059,-0.725c0.837,0 2.058,0.05 3.666,0.146c1.613,0.096 2.809,0.146 3.6,0.146c0.709,-0 1.742,-0.05 3.109,-0.146c1.362,-0.096 2.379,-0.146 3.037,-0.146c0.838,0 1.258,0.221 1.258,0.658c0,0.309 -0.42,0.58 -1.254,0.788c-1.054,0.308 -2.387,0.642 -2.829,1c-0.833,0.7 -1.25,1.783 -1.25,3.237l0,14.292c0,0.788 0.329,1.188 0.988,1.188l25.333,-0c0.35,-0 0.529,-0.634 0.529,-1.921l0,-13.559c0,-1.325 -0.421,-2.32 -1.254,-2.979c-0.433,-0.308 -1.838,-0.658 -3.025,-1.058c-0.834,-0.263 -1.254,-0.571 -1.254,-0.929c-0,-0.488 0.375,-0.725 1.129,-0.725c0.791,-0 2.046,0.05 3.762,0.146c1.717,0.095 2.755,0.145 3.109,0.145c0.925,0 1.858,-0.05 2.808,-0.145c0.95,-0.096 1.6,-0.146 1.95,-0.146c1.233,-0 1.85,0.35 1.85,1.058c0,0.267 -0.375,0.504 -1.125,0.725c-1.017,0.267 -1.746,0.579 -2.183,0.929c-0.755,0.659 -1.125,1.65 -1.125,2.979l-0,35.059c-0,1.416 0.525,2.475 1.583,3.183c0.483,0.308 1.438,0.658 2.846,1.058c1.058,0.309 1.592,0.659 1.592,1.059c-0,0.529 -0.246,0.787 -0.73,0.787c-0.529,0 -1.487,-0.05 -2.875,-0.146c-1.387,-0.095 -2.5,-0.145 -3.337,-0.145c-1.671,-0 -3.271,0.05 -4.788,0.145c-1.52,0.096 -2.366,0.146 -2.541,0.146c-1.063,0 -1.588,-0.283 -1.588,-0.854c0,-0.4 0.396,-0.758 1.184,-1.067c1.137,-0.391 2.479,-0.725 2.829,-0.983c0.783,-0.667 1.183,-1.596 1.183,-2.783l0,-15.888c0,-1.016 0,-1.441 0,-1.262c-0.046,-0.267 -0.246,-0.4 -0.596,-0.4l-25.462,-0c-0.525,-0 -0.788,0.375 -0.788,1.125l0,16.487c0,1.279 0.55,2.229 1.646,2.85c0.354,0.221 1.933,0.546 3.558,0.992c1.096,0.308 1.646,0.725 1.646,1.254c0,0.358 -0.354,0.529 -1.058,0.529c-0.046,0 -1.234,-0.05 -3.567,-0.146c-2.333,-0.096 -4.204,-0.146 -5.617,-0.146c-1.941,0 -3.437,0.05 -4.495,0.146c-1.059,0.096 -1.455,0.146 -1.188,0.146c-0.483,0 -0.729,-0.325 -0.729,-0.992c-0,-0.437 0.442,-0.787 1.325,-1.058c1.188,-0.3 2.021,-0.683 2.513,-1.125c0.874,-0.833 1.316,-2.2 1.316,-4.096Z" style="fill:var(--svg-hover-color,#AAA097);fill-rule:nonzero;"/><path d="M74.742,249.388l-0,10.562c-0,0.983 0.087,1.554 0.258,1.7c0.167,0.154 0.8,0.229 1.9,0.229l6.121,0c1.737,0 3.004,-0.4 3.8,-1.196c0.487,-0.454 0.867,-1.187 1.129,-2.17c0.225,-0.796 0.488,-1.205 0.792,-1.205c0.412,0 0.621,0.359 0.621,1.084c-0,0.683 -0.021,1.65 -0.059,2.912c-0.037,1.271 -0.058,2.204 -0.058,2.809c-0,0.495 0.021,1.229 0.058,2.212c0.038,0.983 0.059,1.742 0.059,2.263c-0,0.495 -0.213,0.741 -0.621,0.741c-0.417,0 -0.721,-0.433 -0.909,-1.304c-0.266,-1.204 -0.529,-1.996 -0.791,-2.375c-0.567,-0.862 -1.534,-1.304 -2.892,-1.304l-8.388,-0c-0.529,-0 -0.854,0.196 -0.962,0.571c-0.042,0.154 -0.058,0.571 -0.058,1.245l-0,10.434c-0,2.008 0.129,3.212 0.396,3.629c0.454,0.725 1.758,1.083 3.908,1.083c3.858,0 7.104,-0.512 9.75,-1.537c1.817,-0.684 3.308,-1.613 4.479,-2.784c1.058,-1.025 1.567,-1.537 1.529,-1.537c0.3,-0 0.45,0.229 0.45,0.683c0,1.596 -0.946,3.434 -2.833,5.517c-0.829,0.912 -1.679,1.479 -2.55,1.708c-0.492,0.146 -1.492,0.221 -3,0.221c-1.171,0 -3.329,-0.058 -6.467,-0.187c-2.721,-0.084 -4.871,-0.096 -6.458,-0.067c-0.454,-0 -1.608,0.042 -3.458,0.129c-1.438,0.083 -2.592,0.121 -3.459,0.121c-0.566,-0 -0.846,-0.188 -0.846,-0.563c0.038,-0.3 0.375,-0.608 1.013,-0.912c0.487,-0.188 0.975,-0.375 1.471,-0.563c0.675,-0.341 1.129,-0.929 1.354,-1.766c0.15,-0.604 0.225,-1.659 0.225,-3.175l-0,-25.879c-0,-1.742 -0.129,-2.946 -0.396,-3.63c-0.417,-1.212 -1.304,-1.912 -2.654,-2.1c-1.129,-0.3 -1.696,-0.604 -1.696,-0.904c0,-0.454 0.663,-0.683 1.988,-0.683c4.266,-0 7.979,0.05 11.133,0.129c3.158,0.083 4.792,0.121 4.908,0.121c0.334,-0 1.613,-0.042 3.821,-0.121c2.213,-0.083 3.638,-0.129 4.279,-0.129c0.379,-0 0.567,0.425 0.567,1.254c-0,4.508 -0.379,6.754 -1.129,6.754c-0.492,0 -0.779,-0.504 -0.85,-1.529c-0.079,-1.279 -0.25,-2.108 -0.513,-2.492c-0.604,-0.829 -2.116,-1.333 -4.533,-1.52c-0.492,-0.042 -2.192,-0.059 -5.1,-0.059c-2.767,0 -4.338,0.121 -4.738,0.367c-0.391,0.25 -0.591,1.325 -0.591,3.212Z" style="fill:var(--svg-hover-color,#AAA097);fill-rule:nonzero;"/><path d="M111.625,249.021l0,27.571c0,2.008 0.129,3.212 0.396,3.629c0.454,0.725 1.758,1.083 3.908,1.083c3.858,0 7.104,-0.512 9.754,-1.537c1.813,-0.684 3.305,-1.613 4.475,-2.784c1.059,-1.025 1.571,-1.537 1.529,-1.537c0.305,-0 0.455,0.229 0.455,0.683c-0,1.596 -0.946,3.433 -2.838,5.517c-0.829,0.912 -1.679,1.479 -2.546,1.708c-0.491,0.146 -1.491,0.221 -3.008,0.221c-1.171,-0 -3.325,-0.058 -6.458,-0.188c-2.721,-0.083 -4.88,-0.095 -6.467,-0.066c-0.454,-0 -1.608,0.041 -3.458,0.129c-1.438,0.083 -2.588,0.121 -3.455,0.121c-0.57,-0 -0.85,-0.188 -0.85,-0.563c0.038,-0.3 0.375,-0.608 1.017,-0.912c0.488,-0.188 0.975,-0.375 1.467,-0.563c0.679,-0.341 1.129,-0.929 1.354,-1.766c0.15,-0.605 0.229,-1.659 0.229,-3.175l0,-28.759c0,-1.129 -0.792,-1.979 -2.371,-2.521c-1.583,-0.545 -2.371,-0.937 -2.371,-1.162c0,-0.488 0.38,-0.742 1.13,-0.742c0.262,0 1.02,0.05 2.266,0.129c1.25,0.084 2.4,0.121 3.459,0.121c1.287,0 2.495,-0.041 3.629,-0.121c1.129,-0.083 1.737,-0.129 1.812,-0.129c0.721,0 1.079,0.267 1.079,0.796c0,0.3 -0.358,0.546 -1.079,0.742c-0.908,0.262 -1.571,0.562 -1.987,0.904c-0.717,0.679 -1.071,1.737 -1.071,3.171Z" style="fill:var(--svg-hover-color,#AAA097);fill-rule:nonzero;"/><path d="M176.938,250.217l0.766,28.141c0.038,1.367 0.454,2.329 1.254,2.896c0.305,0.229 1.009,0.471 2.113,0.733c0.762,0.196 1.142,0.538 1.142,1.025c-0,0.375 -0.455,0.563 -1.363,0.563c-0.262,0 -1,-0.042 -2.208,-0.121c-1.209,-0.087 -2.246,-0.129 -3.117,-0.129c-0.608,0 -1.475,0.042 -2.608,0.129c-1.129,0.083 -1.929,0.121 -2.379,0.121c-0.417,0 -0.621,-0.171 -0.621,-0.504c-0,-0.417 0.3,-0.758 0.908,-1.025c0.908,-0.375 1.492,-0.7 1.758,-0.958c0.605,-0.571 0.888,-1.459 0.85,-2.671l-0.6,-22.013c-0.037,-1.475 -0.25,-2.204 -0.62,-2.204c-0.417,-0 -0.909,0.562 -1.475,1.692l-11.725,23.925c-0.946,1.887 -1.53,2.833 -1.759,2.833c-0.229,0 -0.608,-0.546 -1.129,-1.646l-12.067,-25.275c-0.191,-0.417 -0.416,-0.625 -0.679,-0.625c-0.229,0 -0.358,0.284 -0.4,0.846l-0.662,19.913c-0.075,2.195 0.321,3.783 1.187,4.77c0.496,0.53 1.342,0.946 2.554,1.246c0.905,0.267 1.359,0.625 1.359,1.084c-0,0.416 -0.471,0.616 -1.417,0.616c-0.154,0 -0.862,-0.041 -2.125,-0.121c-1.271,-0.087 -2.221,-0.129 -2.867,-0.129c-1.133,0 -2.191,0.042 -3.175,0.129c-0.983,0.084 -1.566,0.121 -1.758,0.121c-0.379,0 -0.567,-0.221 -0.567,-0.675c0,-0.454 0.321,-0.775 0.959,-0.966c0.866,-0.263 1.475,-0.563 1.816,-0.905c0.717,-0.716 1.13,-1.929 1.246,-3.629c0.3,-3.937 0.604,-7.887 0.904,-11.866c0.3,-3.817 0.45,-6.959 0.45,-9.417c0,-3.9 -0.47,-6.771 -1.412,-8.625c-0.571,-1.171 -1.417,-1.979 -2.546,-2.433c-0.946,-0.342 -1.417,-0.684 -1.417,-1.025c0,-0.417 0.321,-0.625 0.963,-0.625c0.342,-0 0.85,0.05 1.529,0.129c0.683,0.083 1.213,0.121 1.592,0.121c0.337,-0 0.85,-0.042 1.529,-0.121c0.679,-0.079 1.192,-0.129 1.533,-0.129c0.338,-0 0.588,0.179 0.734,0.545c0.15,0.359 0.304,0.709 0.454,1.042l13.483,28.808c0.533,1.138 0.95,1.7 1.25,1.7c0.15,0 0.737,-1.016 1.758,-3.058l13.488,-27.108c0.637,-1.288 1.129,-1.929 1.475,-1.929c0.187,-0 0.658,0.05 1.412,0.129c0.759,0.083 1.175,0.121 1.25,0.121c0.45,-0 0.954,-0.042 1.5,-0.121c0.55,-0.084 0.954,-0.129 1.221,-0.129c0.375,-0 0.567,0.229 0.567,0.683c-0,0.417 -0.379,0.725 -1.129,0.912c-1.021,0.23 -1.742,0.563 -2.159,1.017c-0.712,0.825 -1.054,2.225 -1.021,4.192Z" style="fill:var(--svg-hover-color,#AAA097);fill-rule:nonzero;"/><path d="M197.658,248.054l0,20.363c0,4.346 1.305,7.666 3.9,9.971c2.375,2.158 5.584,3.237 9.617,3.237c8.7,0 13.054,-4.575 13.054,-13.721l0,-18.367c0,-1.658 -0.45,-2.841 -1.35,-3.516c-0.416,-0.342 -1.262,-0.642 -2.537,-0.904c-0.9,-0.23 -1.35,-0.609 -1.35,-1.138c-0,-0.375 0.187,-0.571 0.566,-0.571c0.759,0 1.871,0.05 3.346,0.129c1.475,0.08 2.571,0.121 3.288,0.121c0.379,0 0.908,-0.041 1.587,-0.121c0.679,-0.079 1.188,-0.129 1.534,-0.129c0.487,0 0.733,0.213 0.733,0.625c-0,0.384 -0.279,0.7 -0.85,0.959c-0.792,0.383 -1.342,0.783 -1.646,1.195c-0.567,0.759 -0.85,1.888 -0.85,3.4l0,17.588c0,11.183 -5.267,16.779 -15.796,16.779c-6.8,0 -11.612,-1.758 -14.441,-5.275c-2.192,-2.687 -3.288,-6.617 -3.288,-11.792l0,-19.116c0,-0.946 -0.4,-1.629 -1.196,-2.042c-0.15,-0.112 -0.896,-0.358 -2.221,-0.742c-0.8,-0.187 -1.2,-0.52 -1.2,-1.016c0,-0.375 0.417,-0.571 1.25,-0.571c0.488,-0 1.217,0.05 2.18,0.129c0.962,0.079 1.708,0.121 2.237,0.121c0.608,-0 1.513,-0.042 2.721,-0.121c1.208,-0.079 2.096,-0.129 2.667,-0.129c1.208,-0 1.816,0.196 1.816,0.571c0,0.383 -0.321,0.658 -0.954,0.854c-0.938,0.262 -1.55,0.504 -1.85,0.733c-0.646,0.5 -0.967,1.329 -0.967,2.496Z" style="fill:var(--svg-hover-color,#AAA097);fill-rule:nonzero;"/><path d="M251.363,278.646l-0,-29.525c-0,-1.742 -0.192,-2.613 -0.571,-2.613l-9.259,0c-1.633,0 -2.729,0.267 -3.296,0.796c-0.341,0.384 -0.795,1.45 -1.362,3.2c-0.263,0.871 -0.583,1.309 -0.954,1.309c-0.371,-0 -0.563,-0.23 -0.563,-0.684l0.621,-5.508l0.167,-1.358c0.154,-0.571 0.433,-0.855 0.854,-0.855c1.246,0 3.567,0.05 6.971,0.13c3.396,0.083 6.441,0.12 9.125,0.12c4.196,0 8.104,-0.041 11.733,-0.12c3.625,-0.084 5.25,-0.13 4.871,-0.13c0.642,0 1.071,0.113 1.279,0.342c0.209,0.229 0.329,0.667 0.367,1.308l0.283,4.542c0.042,0.829 -0.171,1.246 -0.621,1.246c-0.525,-0 -0.829,-0.375 -0.904,-1.138c-0.112,-1.025 -0.304,-1.708 -0.567,-2.058c-0.566,-0.758 -1.679,-1.137 -3.337,-1.137l-8.088,-0c-1.245,-0 -1.933,0.087 -2.066,0.262c-0.129,0.171 -0.196,1.008 -0.196,2.521l-0,28.954c-0,1.358 0.392,2.346 1.179,2.954c0.375,0.263 1.108,0.529 2.192,0.788c0.787,0.195 1.183,0.495 1.183,0.912c0,0.454 -0.171,0.675 -0.512,0.675c-0.417,0 -1.142,-0.042 -2.18,-0.121c-1.041,-0.087 -1.841,-0.129 -2.408,-0.129c-1.887,0 -3.475,0.025 -4.762,0.067c-0.909,0.042 -1.909,0.104 -3.005,0.187c-0.454,0 -0.679,-0.245 -0.679,-0.733c0,-0.342 0.379,-0.658 1.138,-0.967c1.133,-0.375 1.875,-0.675 2.216,-0.904c0.771,-0.579 1.15,-1.35 1.15,-2.333Z" style="fill:var(--svg-hover-color,#AAA097);fill-rule:nonzero;"/><path d="M295.779,280.842l-1.421,-7.317c-0.225,-1.171 -0.016,-1.758 0.63,-1.758c0.337,-0 0.583,0.162 0.737,0.504l0.346,1.358c0.487,1.888 1.583,3.621 3.279,5.208c2.304,2.188 5.167,3.288 8.604,3.288c2.9,-0 5.35,-0.758 7.354,-2.271c2.184,-1.629 3.28,-3.85 3.28,-6.687c-0,-2.98 -1.98,-5.192 -5.938,-6.634c-3.7,-1.246 -7.387,-2.491 -11.087,-3.733c-3.959,-1.971 -5.942,-5.046 -5.942,-9.238c-0,-3.4 1.292,-6.087 3.854,-8.05c2.308,-1.741 5.213,-2.612 8.725,-2.612c2,-0 3.775,0.171 5.321,0.512c1.021,0.23 1.987,0.571 2.892,1.025c0.754,0.342 1.183,0.513 1.304,0.513c0.15,-0 0.337,-0.104 0.566,-0.308c0.225,-0.213 0.434,-0.317 0.621,-0.317c0.375,-0 0.609,0.267 0.679,0.796l0.85,7.708c0.08,0.571 -0.133,0.854 -0.62,0.854c-0.421,0 -0.813,-0.571 -1.188,-1.7c-0.829,-2.383 -2.196,-4.208 -4.1,-5.475c-1.904,-1.262 -4.137,-1.896 -6.7,-1.896c-2.492,0 -4.587,0.571 -6.279,1.7c-1.963,1.359 -2.946,3.255 -2.946,5.671c0,2.871 1.988,5.029 5.942,6.463c3.7,1.287 7.387,2.554 11.087,3.8c3.954,2.116 5.938,5.387 5.938,9.808c-0,3.029 -1.096,5.592 -3.284,7.717c-2.837,2.791 -7.141,4.191 -12.925,4.191c-1.966,0 -4.066,-0.399 -6.291,-1.187c-2.079,-0.721 -3.175,-1.362 -3.288,-1.933Z" style="fill:var(--svg-hover-color,#AAA097);fill-rule:nonzero;"/><path d="M327.254,264.225c0,-5.967 1.929,-11.021 5.784,-15.138c3.854,-4.116 8.733,-6.183 14.625,-6.183c3.137,0 5.912,0.383 8.329,1.138c1.558,0.487 3.091,1.187 4.6,2.1c1.25,0.758 2.02,1.137 2.325,1.137c0.15,0 0.366,-0.096 0.654,-0.283c0.279,-0.188 0.517,-0.284 0.704,-0.284c0.304,0 0.492,0.3 0.575,0.913c0.075,0.417 0.146,1.646 0.221,3.679c0.037,0.529 0.096,1.246 0.175,2.159c0.033,0.758 0.054,1.287 0.054,1.587c0,0.758 -0.192,1.129 -0.567,1.129c-0.262,0 -0.529,-0.262 -0.791,-0.787c-0.192,-0.342 -0.363,-0.7 -0.509,-1.084c-1.891,-3.254 -3.895,-5.633 -6.012,-7.145c-2.421,-1.742 -5.367,-2.613 -8.842,-2.613c-5.366,0 -9.483,1.667 -12.354,4.988c-2.687,3.141 -4.029,7.445 -4.029,12.925c-0,5.329 1.4,9.845 4.196,13.55c3.096,4.125 7.212,6.175 12.354,6.175c3.967,-0 7.521,-1.059 10.662,-3.167c2.53,-1.7 4.08,-3.4 4.646,-5.104c0.15,-0.488 0.417,-0.742 0.796,-0.742c0.446,0 0.617,0.213 0.508,0.625l-1.304,5.671c-0.15,0.608 -1.358,1.383 -3.625,2.329c-3.441,1.442 -7.85,2.158 -13.212,2.158c-5.859,0 -10.65,-1.829 -14.371,-5.5c-3.729,-3.662 -5.592,-8.408 -5.592,-14.233Z" style="fill:var(--svg-hover-color,#AAA097);fill-rule:nonzero;"/><path d="M376.417,277.342l-0,-29.054c-0,-1.205 -0.434,-2.1 -1.305,-2.671c-0.42,-0.3 -1.191,-0.588 -2.325,-0.846c-0.87,-0.196 -1.304,-0.438 -1.304,-0.742c0,-0.416 0.304,-0.625 0.909,-0.625c0.72,0 1.766,0.05 3.15,0.129c1.375,0.084 2.404,0.121 3.087,0.121c0.604,0 1.488,-0.041 2.667,-0.121c1.167,-0.083 2.037,-0.129 2.604,-0.129c0.717,0 1.079,0.196 1.079,0.571c0,0.267 -0.362,0.496 -1.075,0.683c-0.904,0.263 -1.541,0.546 -1.921,0.846c-0.712,0.609 -1.07,1.538 -1.07,2.784l-0,12.254c-0,0.683 0.279,1.016 0.845,1.016l20.713,0c0.3,0 0.45,-0.545 0.45,-1.645l-0,-11.63c-0,-1.137 -0.354,-1.987 -1.071,-2.554c-0.375,-0.262 -1.075,-0.562 -2.092,-0.904c-0.716,-0.229 -1.066,-0.496 -1.066,-0.796c-0,-0.416 0.316,-0.625 0.958,-0.625c0.683,0 1.758,0.05 3.225,0.129c1.475,0.084 2.362,0.121 2.667,0.121c0.791,0 1.595,-0.041 2.408,-0.121c0.808,-0.083 1.367,-0.129 1.671,-0.129c1.058,0 1.587,0.309 1.587,0.913c0,0.229 -0.32,0.433 -0.962,0.625c-0.871,0.229 -1.496,0.487 -1.871,0.787c-0.642,0.571 -0.962,1.425 -0.962,2.554l-0,30.071c-0,1.213 0.45,2.117 1.358,2.725c0.416,0.263 1.233,0.571 2.441,0.904c0.909,0.267 1.359,0.571 1.359,0.913c-0,0.454 -0.209,0.675 -0.621,0.675c-0.45,-0 -1.275,-0.042 -2.463,-0.121c-1.191,-0.088 -2.149,-0.129 -2.866,-0.129c-1.438,-0 -2.809,0.041 -4.104,0.129c-1.305,0.083 -2.034,0.121 -2.18,0.121c-0.912,-0 -1.358,-0.246 -1.358,-0.734c0,-0.341 0.334,-0.641 1.017,-0.912c0.967,-0.342 1.612,-0.625 1.912,-0.846c0.675,-0.571 1.013,-1.367 1.013,-2.383l-0,-13.629c-0,-0.871 -0,-1.23 -0,-1.075c-0.042,-0.23 -0.208,-0.342 -0.508,-0.342l-20.83,-0c-0.45,-0 -0.675,0.317 -0.675,0.958l0,14.146c0,1.1 0.471,1.904 1.413,2.442c0.3,0.187 1.15,0.471 2.541,0.846c0.942,0.266 1.413,0.625 1.413,1.083c-0,0.3 -0.3,0.446 -0.908,0.446c-0.038,-0 -1.059,-0.042 -3.059,-0.121c-2.004,-0.088 -3.608,-0.129 -4.821,-0.129c-1.654,-0 -2.941,0.041 -3.854,0.129c-0.904,0.083 -1.246,0.121 -1.016,0.121c-0.417,-0 -0.621,-0.275 -0.621,-0.846c-0,-0.375 0.375,-0.683 1.133,-0.904c1.017,-0.267 1.733,-0.596 2.154,-0.967c0.755,-0.712 1.134,-1.883 1.134,-3.512Z" style="fill:var(--svg-hover-color,#AAA097);fill-rule:nonzero;"/><path d="M462.771,250.217l0.762,28.141c0.042,1.367 0.459,2.329 1.259,2.896c0.304,0.229 1.008,0.471 2.112,0.733c0.767,0.196 1.142,0.538 1.142,1.025c-0,0.375 -0.454,0.563 -1.363,0.563c-0.262,0 -1.004,-0.042 -2.208,-0.121c-1.208,-0.087 -2.25,-0.129 -3.117,-0.129c-0.608,0 -1.475,0.042 -2.608,0.129c-1.133,0.083 -1.929,0.121 -2.379,0.121c-0.417,0 -0.621,-0.171 -0.621,-0.504c0,-0.417 0.296,-0.758 0.904,-1.025c0.913,-0.375 1.496,-0.7 1.759,-0.958c0.608,-0.571 0.887,-1.459 0.85,-2.671l-0.596,-22.013c-0.038,-1.475 -0.25,-2.204 -0.625,-2.204c-0.417,-0 -0.905,0.562 -1.471,1.692l-11.725,23.925c-0.946,1.887 -1.529,2.833 -1.758,2.833c-0.23,0 -0.609,-0.546 -1.134,-1.646l-12.066,-25.275c-0.192,-0.417 -0.417,-0.625 -0.68,-0.625c-0.225,0 -0.358,0.284 -0.4,0.846l-0.658,19.913c-0.079,2.195 0.321,3.783 1.188,4.77c0.491,0.53 1.341,0.946 2.549,1.246c0.909,0.267 1.363,0.625 1.363,1.084c0,0.416 -0.475,0.616 -1.421,0.616c-0.15,0 -0.858,-0.041 -2.125,-0.121c-1.271,-0.087 -2.221,-0.129 -2.862,-0.129c-1.134,0 -2.196,0.042 -3.18,0.129c-0.979,0.084 -1.566,0.121 -1.758,0.121c-0.375,0 -0.566,-0.221 -0.566,-0.675c-0,-0.454 0.32,-0.775 0.958,-0.966c0.871,-0.263 1.475,-0.563 1.817,-0.905c0.716,-0.716 1.129,-1.929 1.25,-3.629c0.295,-3.937 0.6,-7.887 0.904,-11.866c0.3,-3.817 0.45,-6.959 0.45,-9.417c-0,-3.9 -0.471,-6.771 -1.417,-8.625c-0.567,-1.171 -1.417,-1.979 -2.546,-2.433c-0.946,-0.342 -1.417,-0.684 -1.417,-1.025c0,-0.417 0.321,-0.625 0.963,-0.625c0.342,-0 0.85,0.05 1.529,0.129c0.683,0.083 1.213,0.121 1.592,0.121c0.341,-0 0.85,-0.042 1.533,-0.121c0.679,-0.084 1.192,-0.129 1.529,-0.129c0.338,-0 0.588,0.179 0.734,0.545c0.154,0.359 0.308,0.709 0.454,1.042l13.487,28.808c0.529,1.138 0.946,1.7 1.25,1.7c0.15,0 0.734,-1.016 1.754,-3.058l13.488,-27.108c0.642,-1.288 1.133,-1.929 1.475,-1.929c0.192,-0 0.658,0.05 1.417,0.129c0.754,0.083 1.17,0.121 1.25,0.121c0.45,-0 0.954,-0.042 1.5,-0.121c0.545,-0.079 0.954,-0.129 1.216,-0.129c0.379,-0 0.567,0.229 0.567,0.683c-0,0.417 -0.375,0.725 -1.129,0.912c-1.025,0.23 -1.742,0.563 -2.159,1.017c-0.712,0.825 -1.05,2.225 -1.016,4.192Z" style="fill:var(--svg-hover-color,#AAA097);fill-rule:nonzero;"/><path d="M481.313,277.342l-0,-29.054c-0,-1.205 -0.4,-2.1 -1.2,-2.671c-0.421,-0.3 -1.155,-0.588 -2.221,-0.846c-0.796,-0.196 -1.196,-0.438 -1.196,-0.742c-0,-0.416 0.192,-0.625 0.567,-0.625c0.72,0 1.766,0.05 3.145,0.129c1.384,0.084 2.409,0.121 3.088,0.121c0.608,0 1.496,-0.041 2.666,-0.121c1.171,-0.083 2.042,-0.129 2.609,-0.129c0.717,0 1.079,0.196 1.079,0.571c0,0.342 -0.358,0.604 -1.071,0.796c-0.933,0.262 -1.566,0.529 -1.904,0.787c-0.712,0.571 -1.067,1.48 -1.067,2.725l0,30.471c0,1.1 0.434,1.913 1.292,2.442c0.338,0.187 1.142,0.454 2.421,0.787c0.862,0.267 1.296,0.609 1.296,1.025c-0,0.375 -0.379,0.563 -1.134,0.563c-0.341,-0 -1.229,-0.042 -2.666,-0.121c-1.438,-0.087 -2.604,-0.129 -3.517,-0.129c-1.358,-0 -2.596,0.042 -3.712,0.129c-1.117,0.083 -1.692,0.121 -1.73,0.121c-0.791,-0 -1.187,-0.275 -1.187,-0.846c-0,-0.375 0.379,-0.683 1.133,-0.904c1.029,-0.267 1.754,-0.596 2.171,-0.967c0.758,-0.712 1.138,-1.883 1.138,-3.512Z" style="fill:var(--svg-hover-color,#AAA097);fill-rule:nonzero;"/><path d="M508.725,245.596c0.679,-0.529 2.288,-0.796 4.821,-0.796c5.558,0 10.096,1.742 13.621,5.225c3.704,3.604 5.558,8.471 5.558,14.6c0,6.096 -1.612,10.646 -4.817,13.629c-2.725,2.538 -6.362,3.808 -10.895,3.808c-4.125,0 -7.038,-0.854 -8.742,-2.554c-0.229,-0.229 -0.338,-1.612 -0.338,-4.15l0,-26.979c-0.004,-1.475 0.259,-2.4 0.792,-2.783Zm-6.3,35.604c-0.417,0.454 -1.075,0.812 -1.971,1.075c-0.675,0.187 -1.012,0.437 -1.012,0.742c-0,0.375 0.187,0.562 0.566,0.562c0.109,0 1.15,-0.042 3.117,-0.121c1.967,-0.087 3.038,-0.129 3.229,-0.129c0.984,0 2.434,0.042 4.367,0.129c1.921,0.084 3.358,0.121 4.3,0.121c7.521,0 13.125,-2.033 16.829,-6.121c3.367,-3.741 5.046,-9.066 5.046,-15.95c-0,-5.104 -2.058,-9.433 -6.175,-12.987c-3.971,-3.4 -8.538,-5.113 -13.708,-5.113c-1.705,0 -3.888,0.05 -6.55,0.129c-2.663,0.08 -4.584,0.121 -5.75,0.121c-0.567,0 -1.409,-0.041 -2.525,-0.121c-1.113,-0.083 -1.971,-0.129 -2.575,-0.129c-0.525,0 -0.788,0.196 -0.788,0.571c0,0.342 0.392,0.604 1.179,0.796c1.054,0.262 1.804,0.617 2.254,1.075c0.784,0.725 1.184,1.929 1.184,3.629l-0,28.254c-0.005,1.596 -0.346,2.742 -1.017,3.467Z" style="fill:var(--svg-hover-color,#AAA097);fill-rule:nonzero;"/><path d="M556.525,277.796l0,-34.417c0,-2.025 -0.221,-3.041 -0.658,-3.041l-11.384,-0c-1.9,-0 -3.183,0.308 -3.845,0.929c-0.4,0.446 -0.93,1.683 -1.592,3.729c-0.304,1.017 -0.679,1.529 -1.113,1.529c-0.437,0 -0.658,-0.267 -0.658,-0.796l0.729,-6.421l0.2,-1.587c0.171,-0.667 0.504,-1 0.988,-1c1.454,-0 4.162,0.05 8.129,0.154c3.962,0.096 7.512,0.146 10.646,0.146c4.887,-0 9.45,-0.05 13.675,-0.146c4.233,-0.104 6.129,-0.154 5.683,-0.154c0.754,-0 1.246,0.137 1.488,0.4c0.241,0.267 0.383,0.775 0.429,1.521l0.333,5.296c0.042,0.975 -0.196,1.458 -0.729,1.458c-0.613,-0 -0.967,-0.438 -1.054,-1.325c-0.129,-1.204 -0.354,-2 -0.659,-2.4c-0.658,-0.888 -1.958,-1.325 -3.895,-1.325l-10.017,-0c-1.454,-0 -2.254,0.096 -2.408,0.292c-0.15,0.195 -0.234,1.179 -0.234,2.945l0,33.767c0,1.588 0.463,2.733 1.379,3.433c0.438,0.309 1.88,0.617 3.15,0.93c0.917,0.22 1.38,0.579 1.38,1.058c-0,0.529 -0.2,0.796 -0.596,0.796c-0.488,-0 -1.334,-0.05 -2.546,-0.146c-1.213,-0.096 -2.15,-0.146 -2.808,-0.146c-2.205,0 -4.059,0.025 -5.555,0.075c-1.058,0.05 -2.22,0.121 -3.5,0.221c-0.529,-0 -0.791,-0.283 -0.791,-0.863c-0,-0.391 0.441,-0.775 1.325,-1.125c1.329,-0.437 2.783,-0.787 3.179,-1.058c0.887,-0.667 1.329,-1.571 1.329,-2.729Z" style="fill:var(--svg-hover-color,#AAA097);fill-rule:nonzero;"/><g><path d="M95.088,315.871l-0,20.354c-0,4.346 1.304,7.671 3.904,9.975c2.371,2.158 5.579,3.233 9.612,3.233c8.704,0 13.059,-4.575 13.059,-13.72l-0,-18.367c-0,-1.658 -0.45,-2.838 -1.35,-3.517c-0.417,-0.337 -1.263,-0.637 -2.538,-0.904c-0.9,-0.229 -1.35,-0.608 -1.35,-1.133c-0,-0.379 0.192,-0.567 0.567,-0.567c0.758,0 1.87,0.042 3.345,0.121c1.475,0.087 2.571,0.129 3.288,0.129c0.379,0 0.908,-0.042 1.588,-0.129c0.679,-0.083 1.191,-0.121 1.533,-0.121c0.487,0 0.733,0.208 0.733,0.621c0,0.379 -0.279,0.696 -0.85,0.962c-0.792,0.38 -1.337,0.775 -1.646,1.192c-0.566,0.758 -0.85,1.888 -0.85,3.4l0,17.583c0,11.192 -5.266,16.784 -15.8,16.784c-6.796,-0 -11.608,-1.759 -14.441,-5.275c-2.188,-2.688 -3.288,-6.617 -3.288,-11.796l0,-19.113c0,-0.945 -0.4,-1.629 -1.192,-2.041c-0.154,-0.113 -0.895,-0.359 -2.225,-0.738c-0.795,-0.187 -1.195,-0.529 -1.195,-1.021c-0,-0.379 0.416,-0.566 1.245,-0.566c0.492,-0 1.217,0.041 2.184,0.12c0.958,0.088 1.708,0.13 2.237,0.13c0.604,-0 1.509,-0.042 2.721,-0.13c1.204,-0.083 2.096,-0.12 2.663,-0.12c1.208,-0 1.816,0.187 1.816,0.566c0,0.38 -0.316,0.663 -0.954,0.85c-0.937,0.263 -1.554,0.509 -1.854,0.738c-0.646,0.5 -0.963,1.329 -0.963,2.5Z" style="fill:var(--svg-hover-color,#AAA097);fill-rule:nonzero;"/><path d="M140.404,343.338l0,-20.934c0,-3.441 -0.587,-5.958 -1.754,-7.55c-0.754,-0.946 -1.858,-1.608 -3.329,-1.987c-1.167,-0.304 -1.75,-0.663 -1.75,-1.079c-0,-0.38 0.279,-0.567 0.85,-0.567c0.3,-0 0.746,0.042 1.329,0.121c0.588,0.087 1.029,0.129 1.329,0.129c0.3,-0 0.75,-0.042 1.329,-0.129c0.588,-0.084 1.013,-0.121 1.28,-0.121c0.191,-0 0.679,0.433 1.475,1.304l27.037,30.113c0.383,0.416 0.608,0.62 0.683,0.62c0.113,0 0.171,-0.208 0.171,-0.62l0,-23.7c0,-2.159 -0.55,-3.742 -1.65,-4.767c-0.604,-0.567 -1.608,-1.021 -3.008,-1.358c-1.096,-0.267 -1.646,-0.609 -1.646,-1.021c0,-0.379 0.208,-0.567 0.621,-0.567c0.571,0 1.421,0.042 2.55,0.121c1.133,0.087 2,0.129 2.608,0.129c0.679,0 1.7,-0.042 3.059,-0.129c1.358,-0.083 2.25,-0.121 2.666,-0.121c0.379,0 0.567,0.171 0.567,0.508c-0,0.38 -0.279,0.68 -0.842,0.909c-0.783,0.379 -1.321,0.7 -1.625,0.962c-0.562,0.609 -0.837,1.509 -0.837,2.717l-0,32.821c-0,1.629 -0.175,2.437 -0.513,2.437c-0.491,0 -1.212,-0.525 -2.158,-1.587l-24.4,-27.421c-0.642,-0.721 -1.042,-1.079 -1.188,-1.079c-0.266,-0 -0.4,0.433 -0.4,1.304l0,23.2c0,1.475 0.434,2.517 1.305,3.121c0.454,0.341 1.245,0.608 2.375,0.791c0.87,0.113 1.304,0.363 1.304,0.738c-0,0.492 -0.209,0.742 -0.621,0.742c-0.342,-0 -1.117,-0.046 -2.329,-0.125c-1.209,-0.088 -2.346,-0.13 -3.396,-0.13c-0.796,0 -2.571,0.088 -5.329,0.259c-0.492,-0 -0.738,-0.209 -0.738,-0.621c0,-0.454 0.434,-0.796 1.3,-1.025c1.092,-0.338 1.875,-0.808 2.367,-1.417c0.875,-1.021 1.308,-2.683 1.308,-4.991Z" style="fill:var(--svg-hover-color,#AAA097);fill-rule:nonzero;"/><path d="M188.621,345.15l-0,-29.05c-0,-1.208 -0.4,-2.1 -1.196,-2.671c-0.421,-0.3 -1.158,-0.587 -2.221,-0.85c-0.796,-0.187 -1.2,-0.433 -1.2,-0.737c0,-0.417 0.192,-0.621 0.567,-0.621c0.721,-0 1.771,0.042 3.15,0.121c1.379,0.087 2.408,0.129 3.087,0.129c0.605,-0 1.492,-0.042 2.667,-0.129c1.167,-0.084 2.037,-0.121 2.608,-0.121c0.717,-0 1.075,0.187 1.075,0.567c0,0.341 -0.354,0.608 -1.066,0.791c-0.934,0.263 -1.571,0.529 -1.904,0.792c-0.713,0.571 -1.071,1.475 -1.071,2.725l-0,30.471c-0,1.096 0.433,1.908 1.296,2.437c0.333,0.192 1.141,0.454 2.416,0.796c0.863,0.262 1.296,0.604 1.296,1.017c0,0.379 -0.379,0.57 -1.133,0.57c-0.338,0 -1.229,-0.045 -2.667,-0.125c-1.433,-0.087 -2.604,-0.129 -3.512,-0.129c-1.359,0 -2.6,0.046 -3.717,0.129c-1.117,0.084 -1.688,0.125 -1.725,0.125c-0.796,0 -1.192,-0.283 -1.192,-0.854c0,-0.375 0.379,-0.679 1.142,-0.904c1.025,-0.262 1.746,-0.592 2.167,-0.962c0.754,-0.717 1.133,-1.888 1.133,-3.517Z" style="fill:var(--svg-hover-color,#AAA097);fill-rule:nonzero;"/><path d="M223.708,348.704l-13.991,-33.112c-0.529,-1.288 -1.438,-2.159 -2.717,-2.613c-1.096,-0.375 -1.646,-0.696 -1.646,-0.958c0,-0.529 0.267,-0.792 0.796,-0.792c0.604,0 1.479,0.042 2.629,0.121c1.154,0.088 2.017,0.129 2.584,0.129c0.566,0 1.408,-0.041 2.52,-0.129c1.117,-0.083 1.763,-0.121 1.95,-0.121c0.534,0 0.796,0.188 0.796,0.567c0,0.15 -0.387,0.471 -1.162,0.962c-0.775,0.492 -1.159,1.134 -1.159,1.929c0,0.68 0.167,1.417 0.509,2.209l9.921,23.362c0.45,1.096 0.904,2.188 1.358,3.288c0.342,0.679 0.637,1.021 0.908,1.021c0.263,-0 0.604,-0.53 1.017,-1.592l9.862,-24.325c0.684,-1.7 0.95,-2.988 0.796,-3.858c0,-0.98 -0.608,-1.617 -1.816,-1.896c-1.209,-0.284 -1.817,-0.6 -1.817,-0.938c-0,-0.491 0.283,-0.737 0.85,-0.737c0.417,-0 1.033,0.041 1.867,0.121c0.825,0.087 1.45,0.129 1.862,0.129c1.058,-0 2.017,-0.042 2.883,-0.129c0.867,-0.084 1.359,-0.121 1.475,-0.121c0.638,-0 0.959,0.246 0.959,0.737c-0,0.263 -0.321,0.55 -0.963,0.85c-0.866,0.417 -1.608,1.342 -2.204,2.779l-14.108,33.405c-0.263,0.716 -0.559,1.445 -0.884,2.179c-0.32,0.737 -0.645,1.104 -0.987,1.104c-0.379,-0 -0.775,-0.45 -1.188,-1.358c-0.295,-0.717 -0.595,-1.45 -0.9,-2.213Z" style="fill:var(--svg-hover-color,#AAA097);fill-rule:nonzero;"/><path d="M261.608,317.2l0,10.558c0,0.988 0.084,1.555 0.255,1.705c0.17,0.154 0.8,0.229 1.9,0.229l6.12,-0c1.742,-0 3.009,-0.4 3.8,-1.2c0.488,-0.454 0.871,-1.179 1.134,-2.171c0.225,-0.8 0.491,-1.204 0.787,-1.204c0.417,-0 0.625,0.362 0.625,1.083c0,0.679 -0.021,1.65 -0.058,2.917c-0.038,1.266 -0.058,2.2 -0.058,2.804c-0,0.492 0.02,1.229 0.058,2.212c0.037,0.98 0.058,1.738 0.058,2.267c0,0.492 -0.212,0.738 -0.625,0.738c-0.412,-0 -0.712,-0.434 -0.904,-1.305c-0.262,-1.208 -0.533,-1.995 -0.792,-2.375c-0.57,-0.866 -1.529,-1.3 -2.891,-1.3l-8.392,0c-0.529,0 -0.854,0.188 -0.962,0.567c-0.038,0.15 -0.055,0.567 -0.055,1.25l0,10.429c0,2.004 0.13,3.213 0.396,3.629c0.454,0.721 1.754,1.08 3.909,1.08c3.854,-0 7.104,-0.513 9.75,-1.534c1.816,-0.683 3.308,-1.612 4.479,-2.787c1.058,-1.021 1.566,-1.534 1.529,-1.534c0.304,0 0.45,0.23 0.45,0.684c-0,1.591 -0.946,3.429 -2.833,5.516c-0.83,0.913 -1.68,1.475 -2.55,1.705c-0.488,0.15 -1.492,0.229 -3.005,0.229c-1.17,-0 -3.329,-0.067 -6.462,-0.192c-2.717,-0.079 -4.875,-0.1 -6.463,-0.067c-0.45,0 -1.608,0.046 -3.458,0.13c-1.437,0.083 -2.587,0.125 -3.454,0.125c-0.571,-0 -0.85,-0.192 -0.85,-0.571c0.037,-0.3 0.375,-0.604 1.017,-0.909c0.483,-0.187 0.975,-0.379 1.466,-0.566c0.675,-0.342 1.129,-0.929 1.359,-1.763c0.145,-0.604 0.225,-1.662 0.225,-3.179l-0,-25.875c-0,-1.742 -0.134,-2.95 -0.396,-3.629c-0.417,-1.213 -1.304,-1.913 -2.659,-2.104c-1.129,-0.3 -1.691,-0.604 -1.691,-0.904c-0,-0.45 0.658,-0.675 1.983,-0.675c4.267,-0 7.983,0.041 11.138,0.12c3.154,0.088 4.787,0.13 4.904,0.13c0.337,-0 1.616,-0.042 3.825,-0.13c2.212,-0.083 3.637,-0.12 4.279,-0.12c0.379,-0 0.567,0.416 0.567,1.245c-0,4.509 -0.38,6.759 -1.13,6.759c-0.491,-0 -0.779,-0.509 -0.85,-1.529c-0.079,-1.284 -0.245,-2.109 -0.512,-2.492c-0.604,-0.829 -2.117,-1.338 -4.533,-1.525c-0.492,-0.038 -2.196,-0.058 -5.105,-0.058c-2.762,-0 -4.337,0.125 -4.737,0.37c-0.392,0.255 -0.588,1.329 -0.588,3.217Z" style="fill:var(--svg-hover-color,#AAA097);fill-rule:nonzero;"/><path d="M300.275,313.35c0.338,-0.15 1.133,-0.229 2.379,-0.229c3.096,-0 5.588,0.679 7.475,2.046c2.225,1.591 3.342,3.995 3.342,7.216c-0,3.067 -1,5.284 -3,6.646c-1.358,0.95 -2.988,1.425 -4.871,1.425c-2.796,0 -4.154,0 -4.079,0c-1.4,-0.079 -2.096,-0.342 -2.096,-0.796l0,-14.437c0.004,-0.984 0.287,-1.609 0.85,-1.871Zm15.404,13.587c1.354,-1.779 2.033,-3.741 2.033,-5.9c0,-4.575 -2.116,-7.583 -6.341,-9.02c-1.629,-0.53 -3.988,-0.792 -7.084,-0.792c-0.945,-0 -2.475,0.042 -4.591,0.121c-2.121,0.087 -3.742,0.129 -4.879,0.129c-1.138,-0 -1.98,-0.042 -2.521,-0.129c-0.55,-0.084 -0.921,-0.121 -1.113,-0.121c-0.754,-0 -1.129,0.225 -1.129,0.679c0,0.454 0.417,0.775 1.246,0.963c1.171,0.229 1.971,0.491 2.379,0.791c0.833,0.609 1.254,1.7 1.254,3.292l0,28.883c0,1.25 -0.358,2.213 -1.075,2.892c-0.341,0.342 -1.008,0.7 -1.991,1.083c-0.717,0.3 -1.08,0.621 -1.08,0.963c0,0.416 0.192,0.621 0.567,0.621c0.721,-0 1.8,-0.046 3.238,-0.125c1.441,-0.088 2.516,-0.13 3.237,-0.13c1.925,0 3.546,0.046 4.846,0.13c1.304,0.083 1.862,0.125 1.671,0.125c0.641,-0 0.962,-0.155 0.962,-0.455c0,-0.487 -0.512,-0.845 -1.525,-1.075c-1.437,-0.341 -2.375,-0.641 -2.833,-0.908c-1.021,-0.642 -1.525,-1.662 -1.525,-3.062l-0,-11.955c-0,-0.566 0.017,-0.908 0.058,-1.016c0.15,-0.384 0.621,-0.571 1.417,-0.571c3.096,0 4.871,0.092 5.321,0.283c0.454,0.188 1.191,1.096 2.208,2.717l6.292,9.921c1.25,1.962 2.4,3.396 3.458,4.304c1.475,1.213 3.154,1.817 5.046,1.817c2.454,-0 3.675,-0.229 3.675,-0.684c-0,-0.3 -0.283,-0.508 -0.846,-0.62c-0.946,-0.23 -1.737,-0.55 -2.375,-0.963c-1.254,-0.792 -2.458,-2.1 -3.629,-3.912l-9.467,-14.355c2.034,-0.837 3.734,-2.141 5.096,-3.92Z" style="fill:var(--svg-hover-color,#AAA097);fill-rule:nonzero;"/><path d="M332.658,348.65l-1.416,-7.317c-0.23,-1.171 -0.021,-1.758 0.625,-1.758c0.341,0 0.587,0.171 0.737,0.508l0.346,1.359c0.488,1.887 1.583,3.625 3.279,5.208c2.304,2.188 5.171,3.283 8.6,3.283c2.904,0 5.354,-0.754 7.359,-2.266c2.183,-1.625 3.283,-3.855 3.283,-6.684c-0,-2.987 -1.983,-5.195 -5.942,-6.633c-3.696,-1.25 -7.391,-2.496 -11.087,-3.742c-3.959,-1.966 -5.938,-5.041 -5.938,-9.237c0,-3.396 1.284,-6.083 3.854,-8.05c2.3,-1.738 5.209,-2.608 8.721,-2.608c1.996,-0 3.775,0.17 5.325,0.512c1.017,0.229 1.984,0.571 2.884,1.021c0.758,0.346 1.191,0.517 1.304,0.517c0.15,-0 0.337,-0.1 0.566,-0.313c0.225,-0.208 0.434,-0.313 0.621,-0.313c0.375,0 0.604,0.267 0.679,0.796l0.85,7.709c0.075,0.566 -0.133,0.85 -0.62,0.85c-0.417,-0 -0.809,-0.567 -1.184,-1.7c-0.833,-2.38 -2.2,-4.205 -4.104,-5.471c-1.904,-1.267 -4.142,-1.9 -6.7,-1.9c-2.492,-0 -4.583,0.566 -6.283,1.7c-1.959,1.358 -2.938,3.25 -2.938,5.666c0,2.871 1.979,5.03 5.938,6.467c3.696,1.288 7.387,2.55 11.087,3.8c3.959,2.117 5.938,5.383 5.938,9.808c-0,3.025 -1.096,5.596 -3.284,7.713c-2.837,2.8 -7.141,4.196 -12.925,4.196c-1.966,-0 -4.062,-0.4 -6.287,-1.192c-2.079,-0.717 -3.175,-1.358 -3.288,-1.929Z" style="fill:var(--svg-hover-color,#AAA097);fill-rule:nonzero;"/><path d="M373.129,345.15l0,-29.05c0,-1.208 -0.4,-2.1 -1.196,-2.671c-0.421,-0.3 -1.158,-0.587 -2.221,-0.85c-0.799,-0.187 -1.199,-0.433 -1.199,-0.737c-0,-0.417 0.191,-0.621 0.566,-0.621c0.721,-0 1.767,0.042 3.15,0.121c1.379,0.087 2.409,0.129 3.084,0.129c0.608,-0 1.495,-0.042 2.666,-0.129c1.171,-0.084 2.042,-0.121 2.609,-0.121c0.716,-0 1.079,0.187 1.079,0.567c-0,0.341 -0.359,0.608 -1.067,0.791c-0.937,0.263 -1.571,0.529 -1.908,0.792c-0.713,0.571 -1.067,1.475 -1.067,2.725l0,30.471c0,1.096 0.433,1.908 1.292,2.437c0.337,0.192 1.146,0.454 2.421,0.796c0.862,0.262 1.295,0.604 1.295,1.017c0,0.379 -0.379,0.57 -1.133,0.57c-0.342,0 -1.229,-0.045 -2.667,-0.125c-1.433,-0.087 -2.604,-0.129 -3.516,-0.129c-1.359,0 -2.596,0.046 -3.713,0.129c-1.116,0.084 -1.691,0.125 -1.729,0.125c-0.792,0 -1.187,-0.283 -1.187,-0.854c-0,-0.375 0.379,-0.679 1.137,-0.904c1.025,-0.262 1.75,-0.592 2.167,-0.962c0.758,-0.717 1.137,-1.888 1.137,-3.517Z" style="fill:var(--svg-hover-color,#AAA097);fill-rule:nonzero;"/><path d="M405.421,346.454l-0,-29.521c-0,-1.741 -0.192,-2.612 -0.571,-2.612l-9.262,-0c-1.63,-0 -2.721,0.267 -3.288,0.8c-0.346,0.379 -0.796,1.446 -1.362,3.192c-0.267,0.875 -0.584,1.312 -0.959,1.312c-0.375,0 -0.562,-0.229 -0.562,-0.683l0.621,-5.504l0.17,-1.363c0.15,-0.571 0.434,-0.85 0.855,-0.85c1.245,0 3.562,0.042 6.966,0.121c3.4,0.087 6.438,0.129 9.121,0.129c4.196,0 8.104,-0.042 11.733,-0.129c3.625,-0.083 5.255,-0.121 4.875,-0.121c0.642,0 1.071,0.108 1.275,0.338c0.213,0.229 0.334,0.662 0.367,1.304l0.283,4.546c0.042,0.833 -0.166,1.25 -0.616,1.25c-0.529,-0 -0.829,-0.38 -0.904,-1.142c-0.117,-1.029 -0.305,-1.713 -0.571,-2.054c-0.567,-0.763 -1.675,-1.142 -3.338,-1.142l-8.087,0c-1.246,0 -1.934,0.088 -2.063,0.258c-0.133,0.171 -0.2,1.013 -0.2,2.525l0,28.95c0,1.363 0.396,2.346 1.183,2.955c0.375,0.262 1.105,0.529 2.196,0.791c0.784,0.192 1.175,0.492 1.175,0.909c0,0.454 -0.171,0.683 -0.512,0.683c-0.417,-0 -1.138,-0.046 -2.179,-0.125c-1.042,-0.088 -1.842,-0.129 -2.409,-0.129c-1.887,-0 -3.475,0.025 -4.758,0.066c-0.913,0.042 -1.913,0.105 -3.004,0.192c-0.454,0 -0.684,-0.25 -0.684,-0.742c0,-0.337 0.384,-0.658 1.138,-0.962c1.137,-0.379 1.879,-0.679 2.221,-0.908c0.775,-0.571 1.15,-1.35 1.15,-2.334Z" style="fill:var(--svg-hover-color,#AAA097);fill-rule:nonzero;"/><path d="M483.342,346.454l-0,-29.521c-0,-1.741 -0.192,-2.612 -0.571,-2.612l-9.263,-0c-1.629,-0 -2.729,0.267 -3.295,0.8c-0.342,0.379 -0.796,1.446 -1.363,3.192c-0.262,0.875 -0.579,1.312 -0.954,1.312c-0.375,0 -0.563,-0.229 -0.563,-0.683l0.621,-5.504l0.167,-1.363c0.154,-0.571 0.433,-0.85 0.85,-0.85c1.25,0 3.571,0.042 6.979,0.121c3.396,0.087 6.442,0.129 9.121,0.129c4.196,0 8.104,-0.042 11.729,-0.129c3.629,-0.083 5.254,-0.121 4.875,-0.121c0.646,0 1.071,0.108 1.279,0.338c0.209,0.229 0.329,0.662 0.371,1.304l0.279,4.546c0.038,0.833 -0.166,1.25 -0.616,1.25c-0.53,-0 -0.83,-0.38 -0.909,-1.142c-0.112,-1.029 -0.3,-1.713 -0.562,-2.054c-0.571,-0.763 -1.684,-1.142 -3.342,-1.142l-8.087,0c-1.246,0 -1.934,0.088 -2.063,0.258c-0.133,0.171 -0.196,1.013 -0.196,2.525l0,28.95c0,1.363 0.392,2.346 1.175,2.955c0.375,0.262 1.109,0.529 2.192,0.791c0.787,0.192 1.183,0.492 1.183,0.909c0,0.454 -0.171,0.683 -0.508,0.683c-0.417,-0 -1.146,-0.046 -2.183,-0.125c-1.038,-0.088 -1.838,-0.129 -2.409,-0.129c-1.887,-0 -3.475,0.025 -4.762,0.066c-0.909,0.042 -1.909,0.105 -3.005,0.192c-0.454,0 -0.679,-0.25 -0.679,-0.742c0,-0.337 0.379,-0.658 1.138,-0.962c1.133,-0.379 1.875,-0.679 2.221,-0.908c0.766,-0.571 1.15,-1.35 1.15,-2.334Z" style="fill:var(--svg-hover-color,#AAA097);fill-rule:nonzero;"/><g><path d="M466.117,349.921c-1.475,-0.263 -2.517,-0.871 -3.121,-1.817c-0.529,-0.833 -1.054,-1.892 -1.584,-3.179c-0.42,-1.096 -0.833,-2.192 -1.249,-3.288l-11.8,-29.208c-0.567,-1.396 -0.959,-2.096 -1.192,-2.096c-0.338,0 -0.717,0.45 -1.129,1.363c-1.063,2.229 -2.1,4.458 -3.121,6.687l-13.554,28.917c-0.571,1.212 -1.442,2.042 -2.609,2.5c-1.02,0.379 -1.529,0.7 -1.529,0.962c0,0.417 0.171,0.621 0.509,0.621c0.487,0 1.237,-0.046 2.237,-0.125c1,-0.087 1.771,-0.129 2.3,-0.129c0.529,0 1.317,0.046 2.375,0.129c1.058,0.084 1.85,0.125 2.383,0.125c0.605,0 0.946,-0.021 1.017,-0.058c0.342,-0.079 0.513,-0.342 0.513,-0.796c-0,-0.379 -0.342,-0.621 -1.021,-0.737c-0.979,-0.192 -1.646,-0.4 -1.988,-0.625c-0.679,-0.455 -1.021,-1.255 -1.021,-2.388c0,-0.758 0.134,-1.425 0.405,-1.996l3.625,-7.958c0.379,-0.796 1.266,-1.196 2.666,-1.196l12.467,0c1.096,0 1.925,0.725 2.5,2.167l1.812,4.662c1.171,2.996 1.759,4.792 1.759,5.404c-0,0.792 -0.571,1.392 -1.7,1.792c-1.134,0.396 -1.7,0.784 -1.7,1.163c-0,0.379 0.416,0.57 1.25,0.57c0.529,0 1.304,-0.045 2.329,-0.125c1.021,-0.087 1.783,-0.129 2.271,-0.129c0.796,0 1.97,0.046 3.525,0.13c1.55,0.083 2.704,0.125 3.462,0.125c0.529,-0 0.792,-0.171 0.792,-0.513c-0.008,-0.408 -0.629,-0.729 -1.879,-0.954Zm-15.271,-16.75l-11.221,-0c-0.608,-0 -0.908,-0.171 -0.908,-0.508c-0,-0.113 0.058,-0.28 0.171,-0.509l6.404,-13.779c0.15,-0.342 0.3,-0.512 0.454,-0.512c0.15,-0 0.3,0.17 0.446,0.512l5.558,13.663c0.113,0.3 0.171,0.508 0.171,0.62c0.004,0.342 -0.358,0.513 -1.075,0.513Z" style="fill:var(--svg-hover-color,#AAA097);fill-rule:nonzero;"/><circle cx="441.083" cy="310.692" r="2.871" style="fill:var(--svg-hover-color,#AAA097);"/><circle cx="453.358" cy="310.692" r="2.871" style="fill:var(--svg-hover-color,#AAA097);"/></g></g><rect x="9.854" y="371.354" width="569.658" height="1.042" style="fill:var(--svg-hover-color,#AAA097);"/><g><path d="M0.838,14.554c39.658,-4.496 95.025,-1.937 155.175,8.671c60.166,10.604 113.066,27.138 148.791,44.929c-24.208,-21.562 -80.004,-43.346 -146.979,-55.158c-66.983,-11.808 -126.871,-10.425 -156.987,1.558Z" style="fill:var(--svg-hover-color,#C3004A);fill-rule:nonzero;"/><path d="M0.838,132.788c14.429,-18.317 38.262,-40.192 67.429,-60.676c29.166,-20.487 57.825,-35.491 79.95,-42.837c-18.967,0.996 -51.004,15 -83.475,37.813c-32.484,22.812 -56.525,48.204 -63.904,65.699Z" style="fill:var(--svg-hover-color,#C3004A);fill-rule:nonzero;"/><path d="M452.242,145.721c11.546,-20.775 31.508,-47.034 57.62,-72.209c26.117,-25.174 53.142,-44.216 74.334,-54.983c-19.05,3.834 -49.179,22.838 -78.254,50.863c-29.075,28.021 -49.167,57.429 -53.7,76.329Z" style="fill:var(--svg-hover-color,#C3004A);fill-rule:nonzero;"/><path d="M307.425,183.288c9.179,-22.667 26.65,-51.896 49.733,-81.521c23.1,-29.621 47.184,-53.692 66.929,-68.13c-18.37,7.171 -46.058,31.371 -71.762,64.35c-25.708,32.98 -42.425,65.738 -44.9,85.3Z" style="fill:var(--svg-hover-color,#C3004A);fill-rule:nonzero;"/><path d="M158.029,147.938c11.821,-15.788 32.258,-36.667 56.713,-53.988c24.45,-17.321 48.025,-27.617 66.833,-33.538c-16.296,0.392 -44.479,9.859 -71.692,29.146c-27.229,19.284 -46.083,43.134 -51.854,58.38Z" style="fill:var(--svg-hover-color,#C3004A);fill-rule:nonzero;"/><path d="M158.779,175.863c-6.675,-18.525 -10.85,-45.142 -10.85,-74.713c0,-29.583 4.179,-56.192 10.85,-74.717c-10.041,13.346 -16.975,41.788 -16.975,74.7c0,32.934 6.934,61.38 16.975,74.73Z" style="fill:var(--svg-hover-color,#C3004A);fill-rule:nonzero;"/><path d="M446.983,146.6c-6.671,-18.175 -10.854,-44.283 -10.854,-73.308c0,-29.005 4.188,-55.121 10.854,-73.292c-10.041,13.092 -16.979,40.992 -16.979,73.292c0,32.308 6.938,60.216 16.979,73.308Z" style="fill:var(--svg-hover-color,#C3004A);fill-rule:nonzero;"/><path d="M304.704,193.104c-6.675,-17.846 -10.858,-43.475 -10.858,-71.975c-0,-28.492 4.187,-55.312 10.858,-73.158c-10.046,12.858 -16.983,41.433 -16.983,73.158c-0,31.721 6.937,59.117 16.983,71.975Z" style="fill:var(--svg-hover-color,#C3004A);fill-rule:nonzero;"/><path d="M0,149.846c42.413,-2.55 101.938,1.671 166.896,13.121c64.966,11.454 122.346,27.854 161.321,44.745c-26.738,-19.8 -87.417,-40.912 -159.746,-53.674c-72.329,-12.746 -136.571,-13.659 -168.471,-4.192Z" style="fill:var(--svg-hover-color,#C3004A);fill-rule:nonzero;"/><path d="M291.417,68.779c35.129,-17.687 87.166,-34.062 146.362,-44.5c59.204,-10.441 113.713,-12.85 152.771,-8.246c-29.692,-12.058 -88.654,-13.608 -154.575,-1.979c-65.908,11.621 -120.792,33.238 -144.558,54.725Z" style="fill:var(--svg-hover-color,#C3004A);fill-rule:nonzero;"/><path d="M297.425,203.025c34.458,-16.808 85.425,-32.533 143.342,-42.746c57.929,-10.208 111.2,-12.875 149.321,-8.854c-28.913,-11.075 -86.509,-12.075 -151.001,-0.696c-64.487,11.367 -118.275,32.013 -141.662,52.296Z" style="fill:var(--svg-hover-color,#C3004A);fill-rule:nonzero;"/></g></g></svg>