<svg viewBox="0 0 234 63" class="kochstrasse-logo">
  <g transform="translate(-470.727 -727.477)">
  <path d="M685.285 779.413a7.854 7.854 0 01-4.855 1.343 7.719 7.719 0 01-.034-15.424 7.966 7.966 0 014.889 1.48v-2.582a10.891 10.891 0 00-4.923-1.067 9.9 9.9 0 104.923 18.763zm-194.307-51.894h-6.6l-7.824 10.439h-.068v-10.439h-5.761V753.1h5.761v-6.464l1.935-2.558 5.887 9.022h6.874l-8.92-14.069zm8.056 5.825a10.2 10.2 0 1010.336 10.128 10.05 10.05 0 00-10.336-10.128zm2.679 14.436a4.626 4.626 0 01-2.679.835 5.08 5.08 0 114.821-5.075 5.174 5.174 0 01-2.142 4.241zm12.341.6a4.39 4.39 0 01-3.581-1.74 11.282 11.282 0 01-2.777 5.016 10.091 10.091 0 006.185 2.1 10.232 10.232 0 0010.19-7.937h-5.858a4.39 4.39 0 01-4.159 2.559zm17.324-2.319v-18.584h-5.751v25.65h7.407l2.24-8.57zm124.981-12.184h1.622v-4.931h1.246v-1.424H655.1v1.424h1.254zm-118.634-.542l-2 7.217 5.171-1.614-6.41 14.19h8.955v-12.1c.001-4.484-2.129-7.169-5.716-7.695zm-23.81 5.271a4.425 4.425 0 014.3 2.7h5.823a10.194 10.194 0 00-10.26-8.076 10.007 10.007 0 00-6.17 2.115 11.231 11.231 0 012.857 5 4.2 4.2 0 013.45-1.745zm188.721 25.042L691.378 780h-.138v-16.355h-2.41v19.865l-3.925 5.577h2.895l17.731-25.442zM636.2 747.281c0-2.8-1.486-4.635-6.047-5.846-2.665-.691-3.6-1.21-3.6-2.248 0-.727.692-1.279 1.661-1.279.935 0 1.73.345 1.765 1.452h5.633c-.276-3.767-3.213-6.047-7.363-6.047-3.229 0-6.233 1.711-7.144 4.483a5.974 5.974 0 00-.049.159 5.558 5.558 0 00-.142.608c-.011.062-.025.124-.033.187a5.784 5.784 0 00-.063.817c0 2.248 1.279 4.151 6.116 5.638 2.873.9 3.53 1.453 3.53 2.525 0 .9-1 1.487-2.007 1.487a1.981 1.981 0 01-2.18-1.765h-2.372a7.39 7.39 0 01-1.383 4.2 8.147 8.147 0 005.865 2.158c4.361.001 7.813-2.52 7.813-6.529zm11.158 6.254a10.132 10.132 0 007.745-3.492v-5.6c-2.109 2.628-4.979 4.253-7.745 4.253a4.565 4.565 0 01-3.422-1.383l13-6.881A10.054 10.054 0 00637.2 743.2c0 5.874 4.041 10.334 10.161 10.334zm1.35-16.657a2.118 2.118 0 11-2.115 2.122 2.118 2.118 0 012.118-2.123zm-5.473 2.708a2.118 2.118 0 11-2.119 2.119 2.118 2.118 0 012.122-2.12zm16.124 23.578a6.779 6.779 0 00-5.784 2.892h-.069v-2.41H651.1v18.832h2.409V771.8c0-3.684 2.238-6.473 5.888-6.473 3.3 0 5.853 2.41 5.853 6.645v10.5h2.41v-10.5c-.001-5.229-3.099-8.809-8.298-8.809zm-65.729-9.406c2.525 0 4.808-1.037 5.638-2.731h.069v2.073h5.735v-19.185h-5.732v2.038h-.069a6.51 6.51 0 00-5.638-2.695c-5.5 0-9.609 4.563-9.609 10.231 0 5.811 3.938 10.267 9.609 10.267zm.83-15.144a4.872 4.872 0 014.877 4.877 4.792 4.792 0 11-4.877-4.877zm30.577 28.406h-.069a8.434 8.434 0 00-7.264-3.856 9.941 9.941 0 00-9.847 9.984 9.786 9.786 0 009.847 9.777 8.145 8.145 0 007.264-3.89h.069v1.791c0 3.994-2.548 6.885-6.817 6.885a7.253 7.253 0 01-7.058-4.751h-2.548c1.274 4.373 4.992 6.92 9.64 6.92 4.235 0 9.192-2.582 9.192-9.4v-16.835h-2.41zm-7.333 13.737a7.715 7.715 0 117.471-7.678 7.591 7.591 0 01-7.468 7.677zm-3.041-26.945c3.435 0 6.151-1.584 7.263-4 .021-.047.039-.1.059-.143a5.7 5.7 0 00.21-.568l.04-.139a5.831 5.831 0 00.144-.641l.016-.092a6.274 6.274 0 00.08-.946c0-3.012-1.751-4.705-6.046-5.845-2.438-.633-3.6-1.131-3.6-2.249 0-.741.7-1.279 1.662-1.279.785 0 1.728.252 1.765 1.452h3.132a6.868 6.868 0 011.1-3.578 7.492 7.492 0 00-5.96-2.469c-3.653 0-7.431 2.339-7.431 6.254 0 2.634 1.829 4.319 6.116 5.638 2.772.868 3.531 1.41 3.531 2.525 0 .919-1.043 1.488-2.008 1.488a1.987 1.987 0 01-2.18-1.764h-5.7c.408 3.86 3.474 6.355 7.809 6.355zm25.419 9.351a9.922 9.922 0 00-9.709 9.916 9.852 9.852 0 0016.388 7.367v-2.961c-2.238 2.376-4.166 3.271-6.645 3.271a7.236 7.236 0 01-4.68-1.756l13.048-11.155a9.915 9.915 0 00-8.4-4.682zm-6.06 14.219a7.574 7.574 0 01-1.2-4.407 7.415 7.415 0 017.23-7.643 7.669 7.669 0 015.405 2.238zm-31.291-10.432h-.069a8.486 8.486 0 00-7.333-3.787 9.884 9.884 0 100 19.762 8.668 8.668 0 007.333-3.753h.069v3.305h2.41v-18.832h-2.41zm-7.4 13.806a7.712 7.712 0 01-.034-15.424 7.714 7.714 0 01.034 15.424zm-30.994-46.841H561.5v5.451h2.835V753.1h5.734v-25.58h-5.734zm99.787-6.4v3.5h-.017l-2.4-3.5H660.1v6.355h1.623v-3.788h.018l2.654 3.788h1.347v-3.788h.018l2.464 3.788h1.864l-4.363-6.355zm-80.8 5.739c-2.213 0-3.8.657-4.806 2.7h-.069v-2.04h-5.39V753.1h5.741v-10.58c0-2.179 1.106-3.458 4.529-3.492zm-28.834 8.126c-2.665-.692-3.6-1.21-3.6-2.248 0-.726.691-1.28 1.661-1.28.935 0 1.73.346 1.765 1.453h5.633c-.276-3.767-3.213-6.047-7.363-6.047-3.872 0-7.431 2.453-7.431 6.254 0 2.248 1.279 4.151 6.116 5.637 2.873.9 3.53 1.453 3.53 2.525 0 .9-1 1.487-2.008 1.487a1.98 1.98 0 01-2.179-1.764h-5.7c.415 3.905 3.49 6.358 7.812 6.358 4.357 0 7.812-2.521 7.812-6.531-.001-2.8-1.487-4.633-6.048-5.844zm27.287 36.8a2.118 2.118 0 102.118 2.119 2.118 2.118 0 00-2.119-2.117z"></path></g>
</svg>