<svg xmlns="http://www.w3.org/2000/svg" viewBox="0 0 229.61 84.11"><path d="M196.77 19.62c-1.63 0-3.08.75-4.06 1.9l-23.21-5.21c-.34-4.37-3.99-7.82-8.45-7.82-4.69 0-8.49 3.8-8.49 8.49s3.8 8.49 8.49 8.49c.46 0 .91-.05 1.35-.12l9.64 19.48a6.97 6.97 0 0 0-1.85 4.72c0 3.85 3.12 6.97 6.97 6.97s6.97-3.12 6.97-6.97c0-1.29-.35-2.49-.96-3.52l12.59-15.76c.33.06.66.1 1.01.1 2.97 0 5.37-2.4 5.37-5.37s-2.4-5.37-5.37-5.37Zm-28.37 1.57 23.21 5.21c.07.26.14.51.25.75L179.28 42.9a7 7 0 0 0-2.76-.3l-9.64-19.48c.6-.57 1.11-1.22 1.53-1.94Z" style="fill:var(--svg-hover-color,#bfc0c2)"/><path d="M161.77 29.71c-.24.01-.48.04-.72.04-7.05 0-12.77-5.72-12.77-12.77S154 4.21 161.05 4.21s12.77 5.72 12.77 12.77c0 3.17-1.17 6.07-3.08 8.31l4.21 8.5h3.09c2.09 0 3.78-1.69 3.78-3.78V3.78c0-2.09-1.69-3.78-3.78-3.78h-33.97c-2.09 0-3.78 1.69-3.78 3.78v26.21c0 2.09 1.69 3.78 3.78 3.78h19.72l-2.02-4.07Z" style="fill:var(--svg-hover-color,#f47c20)"/><path d="M0 63.81h3.41v2.09c1.09-1.61 2.8-2.56 4.89-2.56 3.56 0 4.98 2.51 5.36 3.18 1.9-2.99 4.6-3.18 5.93-3.18 5.83 0 6.4 4.89 6.4 7.68v12.47h-3.41V71.54c0-2.23-.28-5.17-3.51-5.17-3.94 0-4.36 3.79-4.36 6.17V83.5h-3.42V71.83c0-1.38.05-5.45-3.56-5.45-3.89 0-4.32 4.03-4.32 6.4V83.5H0V63.82ZM32.25 73.72c0-5.98 4.41-10.39 10.43-10.39s10.43 4.41 10.43 10.39-4.46 10.34-10.43 10.34-10.43-4.36-10.43-10.34m3.51 0c0 4.84 3.41 7.3 6.92 7.3s6.92-2.51 6.92-7.3-3.32-7.35-6.92-7.35-6.92 2.56-6.92 7.35M63.84 66.94v16.55h-3.42v-26.8h3.42v7.11h3.41v3.13h-3.41ZM75.19 53.95c1.33 0 2.42 1.09 2.42 2.42s-1.09 2.42-2.42 2.42-2.42-1.09-2.42-2.42 1.09-2.42 2.42-2.42m1.71 9.86v19.68h-3.41V63.81zM84.11 73.72c0-5.98 4.41-10.39 10.43-10.39s10.43 4.41 10.43 10.39-4.46 10.34-10.43 10.34-10.43-4.36-10.43-10.34m3.51 0c0 4.84 3.41 7.3 6.92 7.3s6.92-2.51 6.92-7.3-3.32-7.35-6.92-7.35-6.92 2.56-6.92 7.35M112.2 63.81h3.41v2.28c.62-.81 2.37-2.75 5.64-2.75 2.32 0 4.46.95 5.64 2.7 1 1.47 1.14 3.08 1.14 5.26v12.19h-3.42V71.4c0-1.19-.09-2.56-.9-3.6-.66-.85-1.71-1.42-3.23-1.42-1.19 0-2.47.33-3.46 1.52-1.33 1.57-1.42 3.89-1.42 5.31V83.5h-3.41V63.82ZM153.94 78.47c-.57 1.09-1.42 2.28-2.42 3.18-1.8 1.61-4.03 2.42-6.54 2.42-4.74 0-9.72-2.99-9.72-10.29 0-5.88 3.6-10.43 9.53-10.43 3.84 0 6.26 1.9 7.45 3.6 1.23 1.76 1.95 4.79 1.85 7.4h-15.32c.05 4.08 2.85 6.69 6.26 6.69 1.61 0 2.89-.47 4.03-1.42.9-.76 1.61-1.75 2.04-2.7l2.85 1.56Zm-3.37-6.97c-.57-3.08-2.89-5.12-5.79-5.12s-5.26 2.18-5.79 5.12h11.57ZM163.8 66.94v16.55h-3.42v-26.8h3.42v7.11h3.41v3.13h-3.41Z" style="fill:var(--svg-hover-color,#4e535b)"/><path d="M195.37 77.45h-10.9l-2.79 6.16h-4.21l12.7-27.01 12.09 27.01h-4.21zm-1.57-3.67-3.79-8.65-3.94 8.65zM219.09 70.34h10.52v.19c0 4.36-1.3 7.92-3.79 10.33-2.64 2.56-5.78 3.25-8.68 3.25-3.71 0-6.35-1.07-8.68-3.48-2.49-2.56-3.79-5.97-3.79-9.64 0-3.98 1.61-7.42 3.71-9.53 2.18-2.22 5.66-3.83 9.6-3.83 2.3 0 4.67.5 6.66 1.61 2.1 1.19 3.4 2.68 4.13 3.83l-3.1 2.18c-.77-1.07-1.91-2.22-3.14-2.91-1.42-.84-2.95-1.11-4.51-1.11-3.33 0-5.47 1.38-6.73 2.64-1.68 1.68-2.72 4.4-2.72 7.15 0 2.56.96 5.13 2.64 6.92 1.76 1.87 3.94 2.56 6.39 2.56 2.22 0 4.06-.65 5.7-2.26 1.42-1.38 1.99-2.87 2.14-4.32h-6.35v-3.6Z" style="fill:var(--svg-hover-color,#bfc0c2)"/><circle cx="173.17" cy="72.45" r="2.34" style="fill:var(--svg-hover-color,#bfc0c2)"/></svg>