<?xml version="1.0" encoding="UTF-8" standalone="no"?><!DOCTYPE svg PUBLIC "-//W3C//DTD SVG 1.1//EN" "http://www.w3.org/Graphics/SVG/1.1/DTD/svg11.dtd"><svg width="100%" height="100%" viewBox="0 0 473 268" version="1.1" xmlns="http://www.w3.org/2000/svg" xmlns:xlink="http://www.w3.org/1999/xlink" xml:space="preserve" xmlns:serif="http://www.serif.com/" style="fill-rule:evenodd;clip-rule:evenodd;stroke-linejoin:round;stroke-miterlimit:2;"><g id="shape-owlogo"><path d="M79.167,22.083c-31.25,0 -56.667,25.834 -56.667,57.084c0,31.25 25.417,56.666 56.667,57.083c31.25,0 57.083,-25.417 57.083,-57.083c0,-31.667 -25.833,-57.084 -57.083,-57.084m-79.167,57.084c0,-43.334 35.417,-79.167 79.167,-79.167c43.75,0 78.75,35.417 78.75,79.167c-0,43.75 -35.417,78.75 -78.75,78.75c-43.75,-0 -79.167,-35 -79.167,-78.75" style="fill:var(--svg-hover-color,#003056);fill-rule:nonzero;"/><path d="M235.417,0l-0.417,0c-28.333,0 -40,21.667 -40,40c0,12.5 3.75,22.917 17.083,34.167c2.084,2.083 4.167,3.75 6.25,5l-20.416,17.083l-4.584,-17.083l-23.333,-0l9.583,32.916l-20.416,15.834l-0,27.916l28.75,-22.916c9.583,14.166 25.416,23.75 43.333,24.583l8.333,0c17.917,-1.25 33.75,-10.833 43.334,-24.583l28.75,22.916l-0,-27.916l-20.417,-15.834l9.583,-32.916l-23.333,-0l-4.583,17.083l-20.417,-17.083c2.083,-1.25 4.167,-2.917 6.25,-5c13.333,-11.25 17.083,-21.667 17.083,-34.167c-0.416,-17.917 -12.083,-40 -40.416,-40m-0,65.833c-0,0 -0.834,-0.416 -2.084,-1.666c-5,-3.75 -15.833,-13.334 -15.833,-23.75c0,-8.75 5.417,-18.334 17.917,-18.334c12.083,0 17.916,10 17.916,18.75c0,10.417 -10.833,20 -15.833,23.75c-1.25,0.834 -2.083,1.25 -2.083,1.25m-0,70.417c-12.917,0 -23.75,-7.5 -30,-17.917l30,-24.583l30,24.583c-6.25,10.417 -17.084,17.917 -30,17.917" style="fill:var(--svg-hover-color,#7c98ab);fill-rule:nonzero;"/><path d="M428.75,155.833l-44.167,-87.5l-43.75,87.5l-43.75,-153.333l25.417,0l23.75,87.5l38.333,-72.917l38.334,72.917l24.583,-87.5l25,0l-43.75,153.333Z" style="fill:var(--svg-hover-color,#003056);fill-rule:nonzero;"/><path d="M15.833,209.167l8.334,-0c3.75,-0 6.25,-0.834 6.25,-4.167c-0,-2.917 -1.667,-4.167 -5.834,-4.167l-8.333,0l0,8.334l-0.417,-0Zm0,13.75l-3.333,-0l0,-25l12.083,-0c7.5,-0 9.584,2.5 9.584,6.666c-0,2.917 -2.084,5.417 -5.834,5.834c3.334,0.416 4.167,1.666 5,5.833c0.417,2.5 0.834,5 1.25,6.667l-3.75,-0c-0.416,-1.667 -0.833,-5 -1.666,-7.917c-0.417,-1.667 -1.667,-2.917 -6.25,-2.917l-7.084,0l0,10.834Z" style="fill:var(--svg-hover-color,#7c98ab);fill-rule:nonzero;"/><path d="M47.083,198.333l18.75,0l0,2.5l-15,0l0,7.917l13.75,0l0,2.917l-13.75,-0l0,8.75l15.417,-0l0,2.5l-19.167,-0l0,-24.584Z" style="fill:var(--svg-hover-color,#7c98ab);fill-rule:nonzero;"/><path d="M103.333,216.25c-0.833,5.417 -5.833,7.5 -12.083,7.5c-8.75,0 -12.917,-6.25 -12.917,-12.917c0,-5.833 3.75,-12.916 14.167,-12.916c5.833,-0 10.417,2.916 10.833,7.083l-4.166,0c-0.417,-3.333 -3.75,-4.583 -7.084,-4.583c-5.833,-0 -10,3.333 -10,10.416c0,7.084 4.167,10.417 10,10.417c3.334,0 6.667,-1.667 7.5,-4.583l3.75,-0l0,-0.417Z" style="fill:var(--svg-hover-color,#7c98ab);fill-rule:nonzero;"/><path d="M135,211.667l-15.833,-0l-0,11.25l-3.75,-0l-0,-24.584l3.75,0l-0,10.417l15.833,0l0,-10.417l3.75,0l0,24.584l-3.75,-0l0,-11.25Z" style="fill:var(--svg-hover-color,#7c98ab);fill-rule:nonzero;"/><path d="M159.583,201.25l-10.416,0l-0,-2.917l24.583,0l0,2.917l-10.417,0l0,21.667l-3.75,-0l0,-21.667Z" style="fill:var(--svg-hover-color,#7c98ab);fill-rule:nonzero;"/><path d="M201.667,205c-0.417,-3.333 -3.75,-4.583 -7.917,-4.583c-3.75,-0 -6.667,1.666 -6.667,4.583c0,1.25 0.834,2.917 3.75,3.333l9.167,1.667c4.167,0.833 5.833,2.917 5.833,6.25c0,5 -4.583,7.917 -11.666,7.917c-7.084,-0 -11.25,-2.5 -11.667,-7.917l3.75,0c0,3.333 3.333,5.417 7.917,5.417c5,-0 7.916,-2.084 7.916,-4.584c0,-7.083 -19.166,-0.833 -19.166,-11.25c-0,-4.583 4.166,-7.5 10.833,-7.5c5,0 10.833,1.667 10.833,7.084l-2.916,-0l-0,-0.417Z" style="fill:var(--svg-hover-color,#7c98ab);fill-rule:nonzero;"/><path d="M236.25,213.75l-6.25,-12.5l-6.25,12.5l12.5,0Zm1.25,2.917l-15.417,-0l-3.333,6.666l-4.167,0l12.917,-25l4.167,0l12.916,25l-4.166,0l-2.917,-6.666Z" style="fill:var(--svg-hover-color,#7c98ab);fill-rule:nonzero;"/><path d="M275,198.333l3.75,0l0,24.584l-5,-0l-15.417,-21.25l0,21.25l-3.333,-0l0,-24.584l4.583,0l15.417,21.25l0,-21.25Z" style="fill:var(--svg-hover-color,#7c98ab);fill-rule:nonzero;"/><path d="M327.5,198.333l3.75,0l-8.75,24.584l-5,-0l-7.5,-21.667l-7.917,21.667l-4.583,-0l-8.75,-24.584l3.75,0l7.5,21.667l7.5,-21.667l5,0l7.5,21.667l7.5,-21.667Z" style="fill:var(--svg-hover-color,#7c98ab);fill-rule:nonzero;"/><path d="M359.167,213.75l-6.25,-12.5l-6.25,12.5l12.5,0Zm1.666,2.917l-15.416,-0l-3.334,6.666l-4.166,0l12.916,-25l4.167,0l12.917,25l-4.167,0l-2.917,-6.666Z" style="fill:var(--svg-hover-color,#7c98ab);fill-rule:nonzero;"/><path d="M378.75,198.333l3.75,0l0,22.084l14.167,-0l-0,2.5l-17.917,-0l0,-24.584Z" style="fill:var(--svg-hover-color,#7c98ab);fill-rule:nonzero;"/><path d="M414.583,201.25l-10.416,0l-0,-2.917l24.583,0l0,2.917l-10.417,0l0,21.667l-3.75,-0l0,-21.667Z" style="fill:var(--svg-hover-color,#7c98ab);fill-rule:nonzero;"/><path d="M456.667,205c-0.417,-3.333 -3.75,-4.583 -7.917,-4.583c-3.75,-0 -6.667,1.666 -6.667,4.583c0,1.25 0.834,2.917 3.75,3.333l9.167,1.667c4.167,0.833 5.833,2.917 5.833,6.25c0,5 -4.583,7.917 -11.666,7.917c-7.084,-0 -11.25,-2.5 -11.667,-7.917l3.75,0c0,3.333 3.333,5.417 7.917,5.417c5,-0 7.916,-2.084 7.916,-4.584c0,-7.083 -19.166,-0.833 -19.166,-11.25c-0,-4.583 4.166,-7.5 10.833,-7.5c5,0 10.833,1.667 10.833,7.084l-2.916,-0l-0,-0.417Z" style="fill:var(--svg-hover-color,#7c98ab);fill-rule:nonzero;"/><path d="M27.083,253.75l11.667,0l0,11.25c-4.167,1.667 -7.917,2.5 -12.083,2.5c-10,0 -14.584,-6.25 -14.584,-12.917c0,-6.25 3.75,-12.916 14.167,-12.916c7.083,-0 11.25,2.083 12.083,7.083l-3.75,0c-0.833,-3.333 -4.166,-4.167 -7.916,-4.167c-7.084,0 -10.834,4.584 -10.834,10.417c0,5.417 3.75,10.417 10.834,10.417c2.916,-0 5.833,-0.417 8.333,-1.667l0,-6.25l-7.917,0l0,-3.75Z" style="fill:var(--svg-hover-color,#7c98ab);fill-rule:nonzero;"/><path d="M47.083,242.083l18.334,0l-0,2.917l-15,0l-0,7.917l14.166,-0l0,2.5l-14.166,-0l-0,8.75l15.416,-0l0,2.916l-18.75,0l0,-25Z" style="fill:var(--svg-hover-color,#7c98ab);fill-rule:nonzero;"/><path d="M90.833,248.75c-0.416,-3.333 -3.75,-4.583 -7.916,-4.583c-3.75,-0 -6.667,1.666 -6.667,4.583c0,1.25 0.833,2.917 3.75,3.333l9.167,1.667c4.166,0.833 5.833,2.917 5.833,6.25c0,5 -4.583,7.917 -11.667,7.917c-7.083,-0 -11.25,-2.5 -11.666,-7.917l4.166,0c0,3.333 3.334,5.417 7.917,5.417c5,-0 7.917,-2.084 7.917,-4.584c-0,-7.083 -19.167,-0.833 -19.167,-11.25c0,-4.583 4.167,-7.5 10.833,-7.5c5,0 10.834,1.667 10.834,7.084l-3.334,-0l0,-0.417Z" style="fill:var(--svg-hover-color,#7c98ab);fill-rule:nonzero;"/><path d="M102.5,242.083l18.75,0l0,2.917l-15,0l0,7.917l14.167,-0l-0,2.5l-14.167,-0l0,8.75l15.417,-0l-0,2.916l-19.167,0l0,-25Z" style="fill:var(--svg-hover-color,#7c98ab);fill-rule:nonzero;"/><path d="M129.583,242.083l3.75,0l0,22.084l14.167,-0l0,2.916l-17.917,0l0,-25Z" style="fill:var(--svg-hover-color,#7c98ab);fill-rule:nonzero;"/><path d="M153.75,242.083l3.333,0l0,22.084l14.584,-0l-0,2.916l-17.917,0l0,-25Z" style="fill:var(--svg-hover-color,#7c98ab);fill-rule:nonzero;"/><path d="M194.583,248.75c-0.416,-3.333 -3.75,-4.583 -7.916,-4.583c-3.75,-0 -6.667,1.666 -6.667,4.583c0,1.25 0.833,2.917 3.75,3.333l9.167,1.667c4.166,0.833 5.833,2.917 5.833,6.25c0,5 -4.583,7.917 -11.667,7.917c-7.083,-0 -11.25,-2.5 -11.666,-7.917l3.75,0c-0,3.333 3.333,5.417 7.916,5.417c5,-0 7.917,-2.084 7.917,-4.584c0,-7.083 -19.167,-0.833 -19.167,-11.25c0,-4.583 4.167,-7.5 10.834,-7.5c5,0 10.833,1.667 10.833,7.084l-2.917,-0l0,-0.417Z" style="fill:var(--svg-hover-color,#7c98ab);fill-rule:nonzero;"/><path d="M230.833,260c-0.833,5.417 -5.833,7.5 -12.083,7.5c-8.75,0 -12.917,-6.25 -12.917,-12.917c0,-5.833 3.75,-12.916 14.167,-12.916c5.833,-0 10.417,2.916 10.833,7.083l-4.166,0c-0.417,-3.333 -3.75,-4.583 -7.084,-4.583c-5.833,-0 -10,3.333 -10,10.416c0,7.084 4.167,10.417 10,10.417c3.334,0 6.667,-1.667 7.5,-4.583l3.75,-0l0,-0.417Z" style="fill:var(--svg-hover-color,#7c98ab);fill-rule:nonzero;"/><path d="M257.5,255.417l-15.833,-0l-0,11.666l-3.75,0l-0,-25l3.75,0l-0,10.417l15.833,0l0,-10.417l3.75,0l0,25l-3.75,0l0,-11.666Z" style="fill:var(--svg-hover-color,#7c98ab);fill-rule:nonzero;"/><path d="M287.5,257.5l-6.25,-12.5l-6.25,12.5l12.5,0Zm1.25,2.917l-15.417,-0l-3.333,6.666l-4.167,0l12.917,-25l4.167,0l12.916,25l-4.166,0l-2.917,-6.666Z" style="fill:var(--svg-hover-color,#7c98ab);fill-rule:nonzero;"/><path d="M300.833,242.083l17.5,0l0,2.917l-13.75,0l0,7.917l13.334,-0l-0,2.916l-13.334,0l0,11.25l-3.75,0l0,-25Z" style="fill:var(--svg-hover-color,#7c98ab);fill-rule:nonzero;"/><path d="M332.5,245l-10.417,0l0,-2.917l24.584,0l-0,2.917l-10.417,0l0,22.083l-3.75,0l0,-22.083Z" style="fill:var(--svg-hover-color,#7c98ab);fill-rule:nonzero;"/><path d="M369.167,244.583l-0,22.5l-3.75,0l-0,-25l5.833,0l10.833,21.667l11.25,-21.667l5.417,0l0,25l-3.333,0l-0,-22.5l-11.25,22.5l-3.75,0l-11.25,-22.5Z" style="fill:var(--svg-hover-color,#7c98ab);fill-rule:nonzero;"/><path d="M410.417,264.167l8.75,-0c5,-0 6.25,-2.084 6.25,-4.167c-0,-2.917 -2.084,-4.583 -6.25,-4.583l-8.334,-0l0,8.75l-0.416,-0Zm-0,-11.667l9.166,0c2.917,0 5,-1.25 5,-3.75c0,-2.5 -1.25,-3.75 -5.833,-3.75l-7.917,0l0,7.5l-0.416,0Zm-3.334,-10.417l11.667,0c6.667,0 9.583,2.084 9.583,6.25c0,3.334 -1.666,5 -5,5.417c4.167,0.417 5.834,2.917 5.834,6.25c-0,3.75 -2.917,7.083 -9.584,7.083l-12.5,0l0,-25Z" style="fill:var(--svg-hover-color,#7c98ab);fill-rule:nonzero;"/><path d="M456.25,255.417l-16.25,-0l0,11.666l-3.333,0l-0,-25l3.333,0l0,10.417l16.25,0l0,-10.417l3.333,0l0,25l-3.333,0l0,-11.666Z" style="fill:var(--svg-hover-color,#7c98ab);fill-rule:nonzero;"/></g></svg>