<svg xmlns="http://www.w3.org/2000/svg" xml:space="preserve" width="113" height="64" style="fill-rule:evenodd;clip-rule:evenodd;stroke-linejoin:round;stroke-miterlimit:2" viewBox="0 0 473 268"><path d="M79.167 22.083c-31.25 0-56.667 25.834-56.667 57.084s25.417 56.666 56.667 57.083c31.25 0 57.083-25.417 57.083-57.083 0-31.667-25.833-57.084-57.083-57.084M0 79.167C0 35.833 35.417 0 79.167 0s78.75 35.417 78.75 79.167-35.417 78.75-78.75 78.75c-43.75 0-79.167-35-79.167-78.75" style="fill:var(--svg-hover-color,#003056);fill-rule:nonzero"/><path d="M235.417 0H235c-28.333 0-40 21.667-40 40 0 12.5 3.75 22.917 17.083 34.167q3.126 3.125 6.25 5L197.917 96.25l-4.584-17.083H170l9.583 32.916-20.416 15.834v27.916l28.75-22.916c9.583 14.166 25.416 23.75 43.333 24.583h8.333c17.917-1.25 33.75-10.833 43.334-24.583l28.75 22.916v-27.916l-20.417-15.834 9.583-32.916H277.5l-4.583 17.083L252.5 79.167q3.125-1.875 6.25-5C272.083 62.917 275.833 52.5 275.833 40c-.416-17.917-12.083-40-40.416-40m0 65.833s-.834-.416-2.084-1.666c-5-3.75-15.833-13.334-15.833-23.75 0-8.75 5.417-18.334 17.917-18.334 12.083 0 17.916 10 17.916 18.75 0 10.417-10.833 20-15.833 23.75-1.25.834-2.083 1.25-2.083 1.25m0 70.417c-12.917 0-23.75-7.5-30-17.917l30-24.583 30 24.583c-6.25 10.417-17.084 17.917-30 17.917" style="fill:var(--svg-hover-color,#7c98ab);fill-rule:nonzero"/><path d="m428.75 155.833-44.167-87.5-43.75 87.5L297.083 2.5H322.5L346.25 90l38.333-72.917L422.917 90 447.5 2.5h25z" style="fill:var(--svg-hover-color,#003056);fill-rule:nonzero"/><path d="M15.833 209.167h8.334c3.75 0 6.25-.834 6.25-4.167 0-2.917-1.667-4.167-5.834-4.167H16.25v8.334zm0 13.75H12.5v-25h12.083c7.5 0 9.584 2.5 9.584 6.666 0 2.917-2.084 5.417-5.834 5.834 3.334.416 4.167 1.666 5 5.833.417 2.5.834 5 1.25 6.667h-3.75c-.416-1.667-.833-5-1.666-7.917-.417-1.667-1.667-2.917-6.25-2.917h-7.084zM47.083 198.333h18.75v2.5h-15v7.917h13.75v2.917h-13.75v8.75H66.25v2.5H47.083zM103.333 216.25c-.833 5.417-5.833 7.5-12.083 7.5-8.75 0-12.917-6.25-12.917-12.917 0-5.833 3.75-12.916 14.167-12.916 5.833 0 10.417 2.916 10.833 7.083h-4.166c-.417-3.333-3.75-4.583-7.084-4.583-5.833 0-10 3.333-10 10.416s4.167 10.417 10 10.417c3.334 0 6.667-1.667 7.5-4.583h3.75zM135 211.667h-15.833v11.25h-3.75v-24.584h3.75v10.417H135v-10.417h3.75v24.584H135zM159.583 201.25h-10.416v-2.917h24.583v2.917h-10.417v21.667h-3.75zM201.667 205c-.417-3.333-3.75-4.583-7.917-4.583-3.75 0-6.667 1.666-6.667 4.583 0 1.25.834 2.917 3.75 3.333L200 210c4.167.833 5.833 2.917 5.833 6.25 0 5-4.583 7.917-11.666 7.917s-11.25-2.5-11.667-7.917h3.75c0 3.333 3.333 5.417 7.917 5.417 5 0 7.916-2.084 7.916-4.584 0-7.083-19.166-.833-19.166-11.25 0-4.583 4.166-7.5 10.833-7.5 5 0 10.833 1.667 10.833 7.084h-2.916zM236.25 213.75l-6.25-12.5-6.25 12.5zm1.25 2.917h-15.417l-3.333 6.666h-4.167l12.917-25h4.167l12.916 25h-4.166zM275 198.333h3.75v24.584h-5l-15.417-21.25v21.25H255v-24.584h4.583L275 219.583zM327.5 198.333h3.75l-8.75 24.584h-5L310 201.25l-7.917 21.667H297.5l-8.75-24.584h3.75L300 220l7.5-21.667h5L320 220zM359.167 213.75l-6.25-12.5-6.25 12.5zm1.666 2.917h-15.416l-3.334 6.666h-4.166l12.916-25H355l12.917 25h-4.167zM378.75 198.333h3.75v22.084h14.167v2.5H378.75zM414.583 201.25h-10.416v-2.917h24.583v2.917h-10.417v21.667h-3.75zM456.667 205c-.417-3.333-3.75-4.583-7.917-4.583-3.75 0-6.667 1.666-6.667 4.583 0 1.25.834 2.917 3.75 3.333L455 210c4.167.833 5.833 2.917 5.833 6.25 0 5-4.583 7.917-11.666 7.917s-11.25-2.5-11.667-7.917h3.75c0 3.333 3.333 5.417 7.917 5.417 5 0 7.916-2.084 7.916-4.584 0-7.083-19.166-.833-19.166-11.25 0-4.583 4.166-7.5 10.833-7.5 5 0 10.833 1.667 10.833 7.084h-2.916zM27.083 253.75H38.75V265c-4.167 1.667-7.917 2.5-12.083 2.5-10 0-14.584-6.25-14.584-12.917 0-6.25 3.75-12.916 14.167-12.916 7.083 0 11.25 2.083 12.083 7.083h-3.75c-.833-3.333-4.166-4.167-7.916-4.167-7.084 0-10.834 4.584-10.834 10.417 0 5.417 3.75 10.417 10.834 10.417 2.916 0 5.833-.417 8.333-1.667v-6.25h-7.917zM47.083 242.083h18.334V245h-15v7.917h14.166v2.5H50.417v8.75h15.416v2.916h-18.75zM90.833 248.75c-.416-3.333-3.75-4.583-7.916-4.583-3.75 0-6.667 1.666-6.667 4.583 0 1.25.833 2.917 3.75 3.333l9.167 1.667c4.166.833 5.833 2.917 5.833 6.25 0 5-4.583 7.917-11.667 7.917s-11.25-2.5-11.666-7.917h4.166c0 3.333 3.334 5.417 7.917 5.417 5 0 7.917-2.084 7.917-4.584 0-7.083-19.167-.833-19.167-11.25 0-4.583 4.167-7.5 10.833-7.5 5 0 10.834 1.667 10.834 7.084h-3.334zM102.5 242.083h18.75V245h-15v7.917h14.167v2.5H106.25v8.75h15.417v2.916H102.5zM129.583 242.083h3.75v22.084H147.5v2.916h-17.917zM153.75 242.083h3.333v22.084h14.584v2.916H153.75zM194.583 248.75c-.416-3.333-3.75-4.583-7.916-4.583-3.75 0-6.667 1.666-6.667 4.583 0 1.25.833 2.917 3.75 3.333l9.167 1.667c4.166.833 5.833 2.917 5.833 6.25 0 5-4.583 7.917-11.667 7.917s-11.25-2.5-11.666-7.917h3.75c0 3.333 3.333 5.417 7.916 5.417 5 0 7.917-2.084 7.917-4.584 0-7.083-19.167-.833-19.167-11.25 0-4.583 4.167-7.5 10.834-7.5 5 0 10.833 1.667 10.833 7.084h-2.917zM230.833 260c-.833 5.417-5.833 7.5-12.083 7.5-8.75 0-12.917-6.25-12.917-12.917 0-5.833 3.75-12.916 14.167-12.916 5.833 0 10.417 2.916 10.833 7.083h-4.166c-.417-3.333-3.75-4.583-7.084-4.583-5.833 0-10 3.333-10 10.416s4.167 10.417 10 10.417c3.334 0 6.667-1.667 7.5-4.583h3.75zM257.5 255.417h-15.833v11.666h-3.75v-25h3.75V252.5H257.5v-10.417h3.75v25h-3.75zM287.5 257.5l-6.25-12.5-6.25 12.5zm1.25 2.917h-15.417L270 267.083h-4.167l12.917-25h4.167l12.916 25h-4.166zM300.833 242.083h17.5V245h-13.75v7.917h13.334v2.916h-13.334v11.25h-3.75zM332.5 245h-10.417v-2.917h24.584V245H336.25v22.083h-3.75zM369.167 244.583v22.5h-3.75v-25h5.833l10.833 21.667 11.25-21.667h5.417v25h-3.333v-22.5l-11.25 22.5h-3.75zM410.417 264.167h8.75c5 0 6.25-2.084 6.25-4.167 0-2.917-2.084-4.583-6.25-4.583h-8.334v8.75zm0-11.667h9.166c2.917 0 5-1.25 5-3.75s-1.25-3.75-5.833-3.75h-7.917v7.5zm-3.334-10.417h11.667c6.667 0 9.583 2.084 9.583 6.25 0 3.334-1.666 5-5 5.417 4.167.417 5.834 2.917 5.834 6.25 0 3.75-2.917 7.083-9.584 7.083h-12.5zM456.25 255.417H440v11.666h-3.333v-25H440V252.5h16.25v-10.417h3.333v25h-3.333z" style="fill:var(--svg-hover-color,#7c98ab);fill-rule:nonzero"/></svg>