<svg width="175" height="54" viewBox="0 0 1115 346" version="1.1" xmlns="http://www.w3.org/2000/svg" xmlns:xlink="http://www.w3.org/1999/xlink" xml:space="preserve" xmlns:serif="http://www.serif.com/" style="fill-rule:evenodd;clip-rule:evenodd;stroke-linejoin:round;stroke-miterlimit:2;"><path d="M451.417,329l-2.875,0c-2,0 -3.625,-1.625 -3.625,-3.625l-0,-307.125c-0,-2 1.625,-3.625 3.625,-3.625l2.833,0c2,0 3.625,1.625 3.625,3.625l0,307.125c0,2 -1.625,3.625 -3.625,3.625m259.833,2.75c-88.291,0 -160.166,-71.833 -160.166,-160.167c-0,-88.333 71.875,-160.125 160.208,-160.125c88.333,0 160.167,71.834 160.167,160.167c-0,88.333 -71.834,160.167 -160.167,160.167m-0,-310.209c-82.75,0 -150.042,67.292 -150.042,150.042c0,82.75 67.292,150.042 150.042,150.042c82.75,-0 150.042,-67.292 150.042,-150.042c-0,-82.75 -67.292,-150.083 -150.042,-150.083m317.5,310.125c-33.042,-1.459 -61.833,-23.167 -73.833,-54c-0.709,-1.792 0.208,-3.792 1.958,-4.5l2.958,-1.167c1.792,-0.708 3.792,0.208 4.5,2l0,0.167c10.584,27.083 35.834,46.125 64.875,47.416c41.459,1.834 75.75,-31.375 75.75,-72.416c0,-34.084 -21.458,-55.167 -74.083,-72.75c-34.208,-11.417 -79.542,-32.125 -80.958,-80c-1.292,-42.959 31.333,-80.375 74.125,-84.542c29.541,-2.875 57.208,9.458 74.625,32.792l0.833,1.125c1.208,1.583 0.875,3.875 -0.75,5.083l-2.292,1.708c-1.583,1.209 -3.875,0.875 -5.083,-0.75l-0.875,-1.125c-13.833,-18.5 -35,-29.125 -58.125,-29.125c-39.958,0 -72.5,32.5 -72.5,72.5c0,33.209 22.875,55.625 74.083,72.75c40.042,13.375 81,33.625 81,82.334c0,48.708 -39.083,84.583 -86.333,82.5" style="fill:var(--svg-hover-color,#434241);"/><rect x="0" y="0" width="345.833" height="345.833" style="fill:url(#_Linear1);"/><defs><linearGradient id="_Linear1" x1="0" y1="0" x2="1" y2="0" gradientUnits="userSpaceOnUse" gradientTransform="matrix(-345.833,342.375,-342.375,-345.833,346.125,0.833333)"><stop offset="0" style="stop-color:var(--svg-hover-color,#06aa70);stop-opacity:1"/><stop offset="1" style="stop-color:var(--svg-hover-color,#e84250);stop-opacity:1"/></linearGradient></defs></svg>