<svg viewBox="0 0 176 40" fill="none" xmlns="http://www.w3.org/2000/svg">
<path d="M34.7319 6.23299C34.5426 7.32565 34.3534 8.4183 34.1641 9.51118C33.88 11.0088 32.9064 11.6967 31.5674 11.6967H28.9304C29.3903 9.14712 29.8499 6.59729 30.3098 4.04746H32.9469C34.2859 4.04746 35.016 4.73537 34.7319 6.23299ZM32.866 17.8486C32.6088 19.2649 32.3518 20.6814 32.0949 22.0981C31.8515 23.5953 30.8777 24.2832 29.5392 24.2832H26.7394C27.24 21.4097 27.7403 18.5365 28.2407 15.6631H31.0402C32.379 15.6631 33.1091 16.351 32.866 17.8486ZM38.9514 9.14712C39.1541 7.95955 39.3573 6.77244 39.56 5.58532C40.209 2.02374 37.6126 0 33.7179 0H26.2933C24.63 9.44384 22.9663 18.8872 21.3033 28.3306H28.6465C33.3525 28.3306 36.0709 26.3069 36.6793 22.7455C36.9634 21.1941 37.2477 19.6427 37.5313 18.0911C37.8965 15.9055 37.2067 13.9629 34.9756 13.5986C37.2881 13.3157 38.5457 11.5754 38.9514 9.14712ZM77.3407 39.9998H89.1913L89.879 36.1103H82.4632L83.8393 28.4068H89.9561L90.644 24.5171H84.5276L85.7889 17.1953H93.0903L93.7785 13.3055H82.0424L77.3407 39.9998ZM94.811 17.1955H99.2833L95.2691 40H99.7041L103.718 17.1955H108.19L108.879 13.3058H95.4989L94.811 17.1955ZM123.023 13.3055H109.643L108.955 17.1953H113.427L109.414 39.9998H113.848L117.862 17.1953H122.335L123.023 13.3055ZM129.062 17.1955H136.364L137.052 13.3058H125.316L120.614 40H132.464L133.152 36.1101H125.736L127.113 28.407H133.229L133.917 24.5173H127.801L129.062 17.1955ZM148.406 19.6359C148.202 20.7928 147.998 21.9496 147.794 23.1062C147.45 25.0129 146.38 25.5467 144.927 25.5467H142.596C143.08 22.7629 143.564 19.9792 144.048 17.1955H146.38C147.833 17.1955 148.75 17.7293 148.406 19.6359ZM147.221 13.3058H140.302C138.734 22.2036 137.167 31.1017 135.6 39.9998H140.034C140.659 36.4533 141.283 32.9067 141.907 29.3604H144.277C144.774 32.9067 145.271 36.4533 145.769 39.9998H150.165C149.566 36.2502 148.967 32.5001 148.368 28.7501C150.394 27.9492 151.656 26.3476 152.114 23.7164C152.394 22.1272 152.675 20.5385 152.955 18.9494C153.681 14.9071 150.891 13.3058 147.221 13.3058ZM162.172 1.63774L161.049 7.83073L170.842 14.8242L158.641 21.711L157.463 28.3309L174.855 17.6533L175.819 12.3148L162.172 1.63774ZM0 29.3225L13.6468 39.9998L14.7706 33.807L4.97718 26.8133L17.1787 19.9268L18.3561 13.3069L0.963155 23.984L0 29.3225ZM65.8499 0.000227589H51.6501L50.92 4.12836H55.6666L51.4065 28.3309H56.1127L60.3726 4.12836H65.1197L65.8499 0.000227589ZM39.357 28.3309H44.0632L49.0533 0.000227589H44.3473L39.357 28.3309ZM73.1355 19.1783C72.9572 20.2079 72.7787 21.2377 72.6006 22.2671C72.3328 23.6782 71.4156 24.3266 70.1541 24.3266H67.6691C68.1026 21.9241 68.5356 19.5218 68.9688 17.1191H71.4537C72.7152 17.1191 73.4031 17.7675 73.1355 19.1783ZM71.3771 30.1229C71.1351 31.4579 70.8928 32.7925 70.651 34.127C70.4214 35.5383 69.5039 36.1864 68.2424 36.1864H65.6047C66.0763 33.4786 66.5478 30.7711 67.0192 28.0637H69.6569C70.9184 28.0637 71.6065 28.7121 71.3771 30.1229ZM77.1114 21.9241C77.3026 20.8056 77.4935 19.6868 77.6847 18.5684C78.2962 15.2124 75.8499 13.3058 72.1798 13.3058H65.1844C63.6169 22.2036 62.0495 31.1017 60.4822 39.9998H67.4013C71.8359 39.9998 74.3972 38.0931 74.9706 34.7372C75.2381 33.2752 75.5059 31.8136 75.7735 30.3519C76.1172 28.2927 75.4675 26.4621 73.3652 26.1189C75.5439 25.852 76.7288 24.2122 77.1114 21.9241Z" fill="currentColor"/>
</svg>
