<svg viewBox="0 0 20 20" fill="none" xmlns="http://www.w3.org/2000/svg">
<path d="M6.65323 15.7258C6.65323 15.8064 6.57258 15.8468 6.45161 15.8468C6.33065 15.8871 6.25 15.8064 6.25 15.7258C6.25 15.6451 6.33065 15.5645 6.45161 15.5645C6.57258 15.5645 6.65323 15.6451 6.65323 15.7258ZM5.40323 15.5242C5.44355 15.4435 5.56452 15.4032 5.68548 15.4435C5.80645 15.4838 5.84677 15.5645 5.84677 15.6451C5.80645 15.7258 5.68548 15.7661 5.60484 15.7258C5.48387 15.7258 5.40323 15.6048 5.40323 15.5242ZM7.21774 15.4838C7.29839 15.4435 7.41935 15.5242 7.41935 15.6048C7.45968 15.6855 7.37903 15.7258 7.25806 15.7661C7.1371 15.8064 7.01613 15.7661 7.01613 15.6855C7.01613 15.5645 7.09677 15.4838 7.21774 15.4838ZM9.83871 0C15.4435 0 20 4.27419 20 9.83869C20 14.3145 17.2581 18.1451 13.2258 19.4758C12.7016 19.5967 12.5 19.2742 12.5 18.9919C12.5 18.6693 12.5403 16.9758 12.5403 15.6451C12.5403 14.6774 12.2177 14.0726 11.8548 13.75C14.1129 13.508 16.4919 13.1855 16.4919 9.3145C16.4919 8.18547 16.0887 7.66128 15.4435 6.93547C15.5242 6.65322 15.8871 5.60483 15.3226 4.19354C14.4758 3.91128 12.5403 5.28225 12.5403 5.28225C11.7339 5.04032 10.8871 4.95967 10 4.95967C9.15323 4.95967 8.30645 5.04032 7.5 5.28225C7.5 5.28225 5.52419 3.95161 4.71774 4.19354C4.15323 5.60483 4.47581 6.65322 4.59677 6.93547C3.95161 7.66128 3.62903 8.18547 3.62903 9.3145C3.62903 13.1855 5.92742 13.508 8.18548 13.75C7.8629 14.0322 7.62097 14.4758 7.54032 15.1209C6.93548 15.4032 5.48387 15.8468 4.59677 14.2742C4.03226 13.3064 3.02419 13.2258 3.02419 13.2258C2.05645 13.2258 2.98387 13.8709 2.98387 13.8709C3.62903 14.1532 4.07258 15.3226 4.07258 15.3226C4.67742 17.1371 7.5 16.5322 7.5 16.5322C7.5 17.379 7.5 18.75 7.5 19.0322C7.5 19.2742 7.33871 19.5967 6.81452 19.5161C2.78226 18.1451 0 14.3145 0 9.83869C0 4.27419 4.27419 0 9.83871 0ZM3.91129 13.9113C3.95161 13.8709 4.03226 13.9113 4.1129 13.9516C4.19355 14.0322 4.19355 14.1532 4.15323 14.1935C4.07258 14.2338 3.99194 14.1935 3.91129 14.1532C3.87097 14.0726 3.83065 13.9516 3.91129 13.9113ZM3.46774 13.5887C3.50806 13.5484 3.54839 13.5484 3.62903 13.5887C3.70968 13.629 3.75 13.6693 3.75 13.7097C3.70968 13.7903 3.62903 13.7903 3.54839 13.75C3.46774 13.7097 3.42742 13.6693 3.46774 13.5887ZM4.75806 15.0403C4.83871 14.9597 4.95968 15 5.04032 15.0806C5.12097 15.1613 5.12097 15.2822 5.08065 15.3226C5.04032 15.4032 4.91935 15.3629 4.83871 15.2822C4.71774 15.2016 4.71774 15.0806 4.75806 15.0403ZM4.31452 14.4355C4.39516 14.3951 4.47581 14.4355 4.55645 14.5161C4.59677 14.5968 4.59677 14.7177 4.55645 14.758C4.47581 14.7984 4.39516 14.758 4.31452 14.6774C4.23387 14.5968 4.23387 14.4758 4.31452 14.4355Z" fill="currentColor"/>
</svg>
